<svg width="24" height="24" viewBox="0 0 24 24" fill="none" xmlns="http://www.w3.org/2000/svg">
<path d="M12 15.6058C12.7084 15.6058 13.3333 15.3618 13.8747 14.8738C14.416 14.3858 14.6867 13.8225 14.6867 13.1839C14.6867 12.5453 14.416 11.9912 13.8747 11.5216C13.3333 11.0521 12.7084 10.8173 12 10.8173C11.2916 10.8173 10.6667 11.0521 10.1253 11.5216C9.584 11.9912 9.31333 12.5453 9.31333 13.1839C9.31333 13.8225 9.584 14.3858 10.1253 14.8738C10.6667 15.3618 11.2916 15.6058 12 15.6058ZM5.312 5.97115C5.312 6.60978 5.58267 7.17308 6.124 7.66106C6.66533 8.14904 7.29022 8.39303 7.99867 8.39303C8.70711 8.39303 9.332 8.14904 9.87333 7.66106C10.4147 7.17308 10.6853 6.60978 10.6853 5.97115C10.6853 5.33253 10.4147 4.77845 9.87333 4.30889C9.332 3.83934 8.70711 3.60457 7.99867 3.60457C7.29022 3.60457 6.66533 3.83934 6.124 4.30889C5.58267 4.77845 5.312 5.33253 5.312 5.97115ZM12 0C16.792 0 20.792 1.59615 24 4.78846L12 24L0 4.78846C3.208 1.59615 7.208 0 12 0Z" fill="#EF4444"/>
</svg>
