<svg width="22" height="22" viewBox="0 0 22 22" fill="none" xmlns="http://www.w3.org/2000/svg">
<g clip-path="url(#clip0_10484_638)">
<path d="M19.3234 6.41665C19.165 6.14222 18.9382 5.91353 18.6651 5.75287C18.3919 5.59222 18.0819 5.50509 17.765 5.49999H6.03171L5.50004 3.42832C5.44632 3.22834 5.32648 3.05244 5.16003 2.92926C4.99358 2.80609 4.79032 2.7429 4.58337 2.74999H2.75004C2.50693 2.74999 2.27377 2.84657 2.10186 3.01847C1.92995 3.19038 1.83337 3.42354 1.83337 3.66665C1.83337 3.90977 1.92995 4.14293 2.10186 4.31484C2.27377 4.48674 2.50693 4.58332 2.75004 4.58332H3.88671L6.41671 13.9883C6.47042 14.1883 6.59027 14.3642 6.75672 14.4874C6.92317 14.6106 7.12642 14.6737 7.33337 14.6667H15.5834C15.7527 14.6661 15.9185 14.6188 16.0625 14.5298C16.2065 14.4408 16.323 14.3137 16.3992 14.1625L19.4059 8.14916C19.5362 7.876 19.5969 7.57484 19.5825 7.27253C19.5681 6.97023 19.4791 6.67619 19.3234 6.41665Z" fill="#F97316"/>
<path d="M6.875 19.25C7.63439 19.25 8.25 18.6344 8.25 17.875C8.25 17.1156 7.63439 16.5 6.875 16.5C6.11561 16.5 5.5 17.1156 5.5 17.875C5.5 18.6344 6.11561 19.25 6.875 19.25Z" fill="#F97316"/>
<path d="M16.0416 19.25C16.801 19.25 17.4166 18.6344 17.4166 17.875C17.4166 17.1156 16.801 16.5 16.0416 16.5C15.2822 16.5 14.6666 17.1156 14.6666 17.875C14.6666 18.6344 15.2822 19.25 16.0416 19.25Z" fill="#F97316"/>
</g>
<defs>
<clipPath id="clip0_10484_638">
<rect width="22" height="22" fill="white"/>
</clipPath>
</defs>
</svg>
