<svg width="174" height="30" viewBox="0 0 174 30" fill="none" xmlns="http://www.w3.org/2000/svg">
<path d="M12 19.6058C12.7084 19.6058 13.3333 19.3618 13.8747 18.8738C14.416 18.3858 14.6867 17.8225 14.6867 17.1839C14.6867 16.5453 14.416 15.9912 13.8747 15.5216C13.3333 15.0521 12.7084 14.8173 12 14.8173C11.2916 14.8173 10.6667 15.0521 10.1253 15.5216C9.584 15.9912 9.31333 16.5453 9.31333 17.1839C9.31333 17.8225 9.584 18.3858 10.1253 18.8738C10.6667 19.3618 11.2916 19.6058 12 19.6058ZM5.312 9.97115C5.312 10.6098 5.58267 11.1731 6.124 11.6611C6.66533 12.149 7.29022 12.393 7.99867 12.393C8.70711 12.393 9.332 12.149 9.87333 11.6611C10.4147 11.1731 10.6853 10.6098 10.6853 9.97115C10.6853 9.33253 10.4147 8.77845 9.87333 8.30889C9.332 7.83934 8.70711 7.60457 7.99867 7.60457C7.29022 7.60457 6.66533 7.83934 6.124 8.30889C5.58267 8.77845 5.312 9.33253 5.312 9.97115ZM12 4C16.792 4 20.792 5.59615 24 8.78846L12 28L0 8.78846C3.208 5.59615 7.208 4 12 4Z" fill="#FEE2E2"/>
<path d="M53.984 4.44V27H47.712V17.944H40.064V27H33.792V4.44H40.064V12.92H47.712V4.44H53.984ZM65.9253 27.224C64.1333 27.224 62.5226 26.8507 61.0933 26.104C59.6853 25.3573 58.5759 24.2907 57.7653 22.904C56.9546 21.5173 56.5493 19.8853 56.5493 18.008C56.5493 16.152 56.9546 14.5307 57.7653 13.144C58.5973 11.7573 59.7173 10.6907 61.1253 9.944C62.5546 9.19733 64.1653 8.824 65.9573 8.824C67.7493 8.824 69.3493 9.19733 70.7573 9.944C72.1866 10.6907 73.3066 11.7573 74.1173 13.144C74.9493 14.5307 75.3653 16.152 75.3653 18.008C75.3653 19.864 74.9493 21.496 74.1173 22.904C73.3066 24.2907 72.1866 25.3573 70.7573 26.104C69.3279 26.8507 67.7173 27.224 65.9253 27.224ZM65.9253 21.784C66.7999 21.784 67.5253 21.464 68.1013 20.824C68.6986 20.1627 68.9973 19.224 68.9973 18.008C68.9973 16.792 68.6986 15.864 68.1013 15.224C67.5253 14.584 66.8106 14.264 65.9573 14.264C65.1039 14.264 64.3893 14.584 63.8133 15.224C63.2373 15.864 62.9493 16.792 62.9493 18.008C62.9493 19.2453 63.2266 20.184 63.7812 20.824C64.3359 21.464 65.0506 21.784 65.9253 21.784ZM88.509 21.656V27H85.789C81.2023 27 78.909 24.728 78.909 20.184V14.264H76.701V9.048H78.909V4.696H85.213V9.048H88.477V14.264H85.213V20.28C85.213 20.7707 85.3197 21.1227 85.533 21.336C85.7677 21.5493 86.1517 21.656 86.685 21.656H88.509ZM109.21 11.96C109.21 13.3253 108.89 14.5733 108.25 15.704C107.631 16.8133 106.682 17.7093 105.402 18.392C104.143 19.0533 102.596 19.384 100.762 19.384H97.6578V27H91.3858V4.44H100.762C102.575 4.44 104.111 4.76 105.37 5.4C106.65 6.04 107.61 6.92533 108.25 8.056C108.89 9.18667 109.21 10.488 109.21 11.96ZM100.154 14.392C101.924 14.392 102.81 13.5813 102.81 11.96C102.81 10.3173 101.924 9.496 100.154 9.496H97.6578V14.392H100.154ZM114.898 7.384C113.788 7.384 112.892 7.08533 112.21 6.488C111.548 5.86933 111.218 5.10133 111.218 4.184C111.218 3.24533 111.548 2.46667 112.21 1.848C112.892 1.22933 113.788 0.919998 114.898 0.919998C115.986 0.919998 116.86 1.22933 117.522 1.848C118.204 2.46667 118.546 3.24533 118.546 4.184C118.546 5.10133 118.204 5.86933 117.522 6.488C116.86 7.08533 115.986 7.384 114.898 7.384ZM118.002 9.048V27H111.73V9.048H118.002ZM127.525 21.784H135.173V27H120.613V22.04L127.749 14.264H120.677V9.048H134.917V14.008L127.525 21.784ZM143.744 21.784H151.392V27H136.832V22.04L143.968 14.264H136.896V9.048H151.136V14.008L143.744 21.784ZM152.987 18.008C152.987 16.152 153.317 14.5307 153.979 13.144C154.661 11.7573 155.579 10.6907 156.731 9.944C157.904 9.19733 159.205 8.824 160.635 8.824C161.872 8.824 162.939 9.06933 163.835 9.56C164.731 10.0507 165.424 10.712 165.915 11.544V9.048H172.187V27H165.915V24.504C165.424 25.336 164.72 25.9973 163.803 26.488C162.907 26.9787 161.851 27.224 160.635 27.224C159.205 27.224 157.904 26.8507 156.731 26.104C155.579 25.3573 154.661 24.2907 153.979 22.904C153.317 21.496 152.987 19.864 152.987 18.008ZM165.915 18.008C165.915 16.856 165.595 15.9493 164.955 15.288C164.336 14.6267 163.568 14.296 162.651 14.296C161.712 14.296 160.933 14.6267 160.315 15.288C159.696 15.928 159.387 16.8347 159.387 18.008C159.387 19.16 159.696 20.0773 160.315 20.76C160.933 21.4213 161.712 21.752 162.651 21.752C163.568 21.752 164.336 21.4213 164.955 20.76C165.595 20.0987 165.915 19.1813 165.915 18.008Z" fill="#FEE2E2"/>
</svg>
