<svg width="372" height="372" viewBox="0 0 372 372" fill="none" xmlns="http://www.w3.org/2000/svg">
<path d="M340.99 91.1006H265.493C265.493 91.1006 272.98 71.2588 284.499 71.2588C296.018 71.2588 299.634 84.9487 299.634 84.9487C299.634 84.9487 307.404 77.5134 313.79 77.5134C320.175 77.5134 325.723 87.3872 325.723 87.3872C325.723 87.3872 334.745 82.0567 340.99 91.1006Z" fill="#EBEBEB"/>
<path d="M275.08 40.0886H239.801C239.801 40.0886 247.685 28.9656 253.912 28.9656C260.139 28.9656 261.965 36.3496 261.965 36.3496C261.965 36.3496 266.374 32.9271 270.405 33.526C274.436 34.125 275.08 40.0886 275.08 40.0886Z" fill="#EBEBEB"/>
<path d="M85.9662 100.615H17.2514C17.2514 100.615 26.6621 80.2345 36.7255 78.9596C46.7888 77.6847 51.6132 94.1041 51.6132 94.1041C51.6132 94.1041 58.1046 88.303 63.2112 88.303C68.3179 88.303 72.225 95.9436 72.225 95.9436C72.225 95.9436 82.4648 90.7073 85.9662 100.615Z" fill="#EBEBEB"/>
<path d="M157.256 14.9848H110.829C110.829 14.9848 118.767 0.216881 127.463 0.00297601C136.159 -0.210928 140.693 11.1773 140.693 11.1773C140.693 11.1773 154.117 0.704583 157.256 14.9848Z" fill="#EBEBEB"/>
<path d="M207.458 55.8407H176.131C176.131 55.8407 181.511 45.8727 187.349 45.7358C193.188 45.5989 196.257 53.2738 196.257 53.2738C196.257 53.2738 205.342 46.2064 207.458 55.8407Z" fill="#EBEBEB"/>
<path d="M288.177 103.661H256.082V266.896H288.177V103.661Z" fill="#DBDBDB"/>
<path d="M267.301 108.966H261.065V115.195H267.301V108.966Z" fill="#EBEBEB"/>
<path d="M275.282 108.966H269.047V115.195H275.282V108.966Z" fill="#EBEBEB"/>
<path d="M267.301 119.55H261.065V125.779H267.301V119.55Z" fill="#EBEBEB"/>
<path d="M275.282 119.55H269.047V125.779H275.282V119.55Z" fill="#EBEBEB"/>
<path d="M267.301 130.134H261.065V136.363H267.301V130.134Z" fill="#EBEBEB"/>
<path d="M275.282 130.134H269.047V136.363H275.282V130.134Z" fill="#EBEBEB"/>
<path d="M267.301 140.709H261.065V146.938H267.301V140.709Z" fill="#EBEBEB"/>
<path d="M275.282 140.709H269.047V146.938H275.282V140.709Z" fill="#EBEBEB"/>
<path d="M267.301 151.293H261.065V157.522H267.301V151.293Z" fill="#EBEBEB"/>
<path d="M275.282 151.293H269.047V157.522H275.282V151.293Z" fill="#EBEBEB"/>
<path d="M267.301 161.877H261.065V168.106H267.301V161.877Z" fill="#EBEBEB"/>
<path d="M275.282 161.877H269.047V168.106H275.282V161.877Z" fill="#EBEBEB"/>
<path d="M267.301 172.461H261.065V178.69H267.301V172.461Z" fill="#EBEBEB"/>
<path d="M275.282 172.461H269.047V178.69H275.282V172.461Z" fill="#EBEBEB"/>
<path d="M267.301 183.037H261.065V189.266H267.301V183.037Z" fill="#EBEBEB"/>
<path d="M275.282 183.037H269.047V189.266H275.282V183.037Z" fill="#EBEBEB"/>
<path d="M267.301 193.621H261.065V199.85H267.301V193.621Z" fill="#EBEBEB"/>
<path d="M275.282 193.621H269.047V199.85H275.282V193.621Z" fill="#EBEBEB"/>
<path d="M267.301 204.205H261.065V210.434H267.301V204.205Z" fill="#EBEBEB"/>
<path d="M275.282 204.205H269.047V210.434H275.282V204.205Z" fill="#EBEBEB"/>
<path d="M267.301 214.78H261.065V221.009H267.301V214.78Z" fill="#EBEBEB"/>
<path d="M275.282 214.78H269.047V221.009H275.282V214.78Z" fill="#EBEBEB"/>
<path d="M267.301 225.364H261.065V231.593H267.301V225.364Z" fill="#EBEBEB"/>
<path d="M275.282 225.364H269.047V231.593H275.282V225.364Z" fill="#EBEBEB"/>
<path d="M267.301 235.948H261.065V242.177H267.301V235.948Z" fill="#EBEBEB"/>
<path d="M275.282 235.948H269.047V242.177H275.282V235.948Z" fill="#EBEBEB"/>
<path d="M267.301 246.532H261.065V252.761H267.301V246.532Z" fill="#EBEBEB"/>
<path d="M276.958 252.761H283.194V246.532H276.958V252.761Z" fill="#EBEBEB"/>
<path d="M276.958 242.177H283.194V235.948H276.958V242.177Z" fill="#EBEBEB"/>
<path d="M276.958 231.602H283.194V225.373H276.958V231.602Z" fill="#EBEBEB"/>
<path d="M276.958 221.018H283.194V214.789H276.958V221.018Z" fill="#EBEBEB"/>
<path d="M276.958 210.434H283.194V204.205H276.958V210.434Z" fill="#EBEBEB"/>
<path d="M276.958 199.85H283.194V193.621H276.958V199.85Z" fill="#EBEBEB"/>
<path d="M276.958 189.274H283.194V183.045H276.958V189.274Z" fill="#EBEBEB"/>
<path d="M276.958 178.682H283.194V172.453H276.958V178.682Z" fill="#EBEBEB"/>
<path d="M276.958 168.106H283.194V161.877H276.958V168.106Z" fill="#EBEBEB"/>
<path d="M276.958 157.531H283.194V151.302H276.958V157.531Z" fill="#EBEBEB"/>
<path d="M276.958 146.947H283.194V140.718H276.958V146.947Z" fill="#EBEBEB"/>
<path d="M276.958 136.363H283.194V130.134H276.958V136.363Z" fill="#EBEBEB"/>
<path d="M276.958 125.779H283.194V119.55H276.958V125.779Z" fill="#EBEBEB"/>
<path d="M276.958 115.203H283.194V108.974H276.958V115.203Z" fill="#EBEBEB"/>
<path d="M275.282 246.532H269.047V252.761H275.282V246.532Z" fill="#EBEBEB"/>
<path d="M313.481 103.661H288.177V266.896H313.481V103.661Z" fill="#A6A6A6"/>
<path d="M305.719 252.761H310.87V246.532H305.719V252.761Z" fill="#C7C7C7"/>
<path d="M299.14 252.761H304.291V246.532H299.14V252.761Z" fill="#C7C7C7"/>
<path d="M305.719 242.177H310.87V235.948H305.719V242.177Z" fill="#C7C7C7"/>
<path d="M299.14 242.177H304.291V235.948H299.14V242.177Z" fill="#C7C7C7"/>
<path d="M305.719 231.602H310.87V225.373H305.719V231.602Z" fill="#C7C7C7"/>
<path d="M299.14 231.602H304.291V225.373H299.14V231.602Z" fill="#C7C7C7"/>
<path d="M305.719 221.018H310.87V214.789H305.719V221.018Z" fill="#C7C7C7"/>
<path d="M299.14 221.018H304.291V214.789H299.14V221.018Z" fill="#C7C7C7"/>
<path d="M305.719 210.434H310.87V204.205H305.719V210.434Z" fill="#C7C7C7"/>
<path d="M299.14 210.434H304.291V204.205H299.14V210.434Z" fill="#C7C7C7"/>
<path d="M305.719 199.85H310.87V193.621H305.719V199.85Z" fill="#C7C7C7"/>
<path d="M299.14 199.85H304.291V193.621H299.14V199.85Z" fill="#C7C7C7"/>
<path d="M305.719 189.274H310.87V183.045H305.719V189.274Z" fill="#C7C7C7"/>
<path d="M299.14 189.274H304.291V183.045H299.14V189.274Z" fill="#C7C7C7"/>
<path d="M305.719 178.682H310.87V172.453H305.719V178.682Z" fill="#C7C7C7"/>
<path d="M299.14 178.682H304.291V172.453H299.14V178.682Z" fill="#C7C7C7"/>
<path d="M305.719 168.106H310.87V161.877H305.719V168.106Z" fill="#C7C7C7"/>
<path d="M299.14 168.106H304.291V161.877H299.14V168.106Z" fill="#C7C7C7"/>
<path d="M305.719 157.531H310.87V151.302H305.719V157.531Z" fill="#C7C7C7"/>
<path d="M299.14 157.531H304.291V151.302H299.14V157.531Z" fill="#C7C7C7"/>
<path d="M305.719 146.947H310.87V140.718H305.719V146.947Z" fill="#C7C7C7"/>
<path d="M299.14 146.947H304.291V140.718H299.14V146.947Z" fill="#C7C7C7"/>
<path d="M305.719 136.363H310.87V130.134H305.719V136.363Z" fill="#C7C7C7"/>
<path d="M299.14 136.363H304.291V130.134H299.14V136.363Z" fill="#C7C7C7"/>
<path d="M305.719 125.779H310.87V119.55H305.719V125.779Z" fill="#C7C7C7"/>
<path d="M299.14 125.779H304.291V119.55H299.14V125.779Z" fill="#C7C7C7"/>
<path d="M305.719 115.203H310.87V108.974H305.719V115.203Z" fill="#C7C7C7"/>
<path d="M297.746 108.966H292.596V115.195H297.746V108.966Z" fill="#C7C7C7"/>
<path d="M297.746 119.55H292.596V125.779H297.746V119.55Z" fill="#C7C7C7"/>
<path d="M297.746 130.134H292.596V136.363H297.746V130.134Z" fill="#C7C7C7"/>
<path d="M297.746 140.709H292.596V146.938H297.746V140.709Z" fill="#C7C7C7"/>
<path d="M297.746 151.293H292.596V157.522H297.746V151.293Z" fill="#C7C7C7"/>
<path d="M297.746 161.877H292.596V168.106H297.746V161.877Z" fill="#C7C7C7"/>
<path d="M297.746 172.461H292.596V178.69H297.746V172.461Z" fill="#C7C7C7"/>
<path d="M297.746 183.037H292.596V189.266H297.746V183.037Z" fill="#C7C7C7"/>
<path d="M297.746 193.621H292.596V199.85H297.746V193.621Z" fill="#C7C7C7"/>
<path d="M297.746 204.205H292.596V210.434H297.746V204.205Z" fill="#C7C7C7"/>
<path d="M297.746 214.78H292.596V221.009H297.746V214.78Z" fill="#C7C7C7"/>
<path d="M297.746 225.364H292.596V231.593H297.746V225.364Z" fill="#C7C7C7"/>
<path d="M297.746 235.948H292.596V242.177H297.746V235.948Z" fill="#C7C7C7"/>
<path d="M297.746 246.532H292.596V252.761H297.746V246.532Z" fill="#C7C7C7"/>
<path d="M299.14 115.203H304.291V108.974H299.14V115.203Z" fill="#C7C7C7"/>
<path d="M90.5878 94.8655H52.6187V266.896H90.5878V94.8655Z" fill="#EBEBEB"/>
<path d="M90.5878 91.1007H51.7014V94.8654H90.5878V91.1007Z" fill="#C7C7C7"/>
<path d="M59.895 100.418H56.0496V266.904H59.895V100.418Z" fill="white"/>
<path d="M66.7038 100.418H62.8584V266.904H66.7038V100.418Z" fill="white"/>
<path d="M73.5215 100.418H69.6761V266.904H73.5215V100.418Z" fill="white"/>
<path d="M80.3392 100.418H76.4938V266.904H80.3392V100.418Z" fill="white"/>
<path d="M87.1481 100.418H83.3026V266.904H87.1481V100.418Z" fill="white"/>
<path d="M59.895 105.176H56.0496V112.611H59.895V105.176Z" fill="#EBEBEB"/>
<path d="M66.7038 105.176H62.8584V112.611H66.7038V105.176Z" fill="#EBEBEB"/>
<path d="M73.5215 105.176H69.6761V112.611H73.5215V105.176Z" fill="#EBEBEB"/>
<path d="M80.3392 105.176H76.4938V112.611H80.3392V105.176Z" fill="#EBEBEB"/>
<path d="M87.1481 105.176H83.3026V112.611H87.1481V105.176Z" fill="#EBEBEB"/>
<path d="M59.895 117.257H56.0496V124.692H59.895V117.257Z" fill="#EBEBEB"/>
<path d="M66.7038 117.257H62.8584V124.692H66.7038V117.257Z" fill="#EBEBEB"/>
<path d="M73.5215 117.257H69.6761V124.692H73.5215V117.257Z" fill="#EBEBEB"/>
<path d="M80.3392 117.257H76.4938V124.692H80.3392V117.257Z" fill="#EBEBEB"/>
<path d="M87.1481 117.257H83.3026V124.692H87.1481V117.257Z" fill="#EBEBEB"/>
<path d="M59.895 129.338H56.0496V136.773H59.895V129.338Z" fill="#EBEBEB"/>
<path d="M66.7038 129.338H62.8584V136.773H66.7038V129.338Z" fill="#EBEBEB"/>
<path d="M73.5215 129.338H69.6761V136.773H73.5215V129.338Z" fill="#EBEBEB"/>
<path d="M80.3392 129.338H76.4938V136.773H80.3392V129.338Z" fill="#EBEBEB"/>
<path d="M87.1481 129.338H83.3026V136.773H87.1481V129.338Z" fill="#EBEBEB"/>
<path d="M59.895 141.428H56.0496V148.863H59.895V141.428Z" fill="#EBEBEB"/>
<path d="M66.7038 141.428H62.8584V148.863H66.7038V141.428Z" fill="#EBEBEB"/>
<path d="M73.5215 141.428H69.6761V148.863H73.5215V141.428Z" fill="#EBEBEB"/>
<path d="M80.3392 141.428H76.4938V148.863H80.3392V141.428Z" fill="#EBEBEB"/>
<path d="M87.1481 141.428H83.3026V148.863H87.1481V141.428Z" fill="#EBEBEB"/>
<path d="M59.895 153.509H56.0496V160.945H59.895V153.509Z" fill="#EBEBEB"/>
<path d="M66.7038 153.509H62.8584V160.945H66.7038V153.509Z" fill="#EBEBEB"/>
<path d="M73.5215 153.509H69.6761V160.945H73.5215V153.509Z" fill="#EBEBEB"/>
<path d="M80.3392 153.509H76.4938V160.945H80.3392V153.509Z" fill="#EBEBEB"/>
<path d="M87.1481 153.509H83.3026V160.945H87.1481V153.509Z" fill="#EBEBEB"/>
<path d="M59.895 165.591H56.0496V173.026H59.895V165.591Z" fill="#EBEBEB"/>
<path d="M66.7038 165.591H62.8584V173.026H66.7038V165.591Z" fill="#EBEBEB"/>
<path d="M73.5215 165.591H69.6761V173.026H73.5215V165.591Z" fill="#EBEBEB"/>
<path d="M80.3392 165.591H76.4938V173.026H80.3392V165.591Z" fill="#EBEBEB"/>
<path d="M87.1481 165.591H83.3026V173.026H87.1481V165.591Z" fill="#EBEBEB"/>
<path d="M59.895 177.672H56.0496V185.107H59.895V177.672Z" fill="#EBEBEB"/>
<path d="M66.7038 177.672H62.8584V185.107H66.7038V177.672Z" fill="#EBEBEB"/>
<path d="M73.5215 177.672H69.6761V185.107H73.5215V177.672Z" fill="#EBEBEB"/>
<path d="M80.3392 177.672H76.4938V185.107H80.3392V177.672Z" fill="#EBEBEB"/>
<path d="M87.1481 177.672H83.3026V185.107H87.1481V177.672Z" fill="#EBEBEB"/>
<path d="M59.895 189.762H56.0496V197.197H59.895V189.762Z" fill="#EBEBEB"/>
<path d="M66.7038 189.762H62.8584V197.197H66.7038V189.762Z" fill="#EBEBEB"/>
<path d="M73.5215 189.762H69.6761V197.197H73.5215V189.762Z" fill="#EBEBEB"/>
<path d="M80.3392 189.762H76.4938V197.197H80.3392V189.762Z" fill="#EBEBEB"/>
<path d="M87.1481 189.762H83.3026V197.197H87.1481V189.762Z" fill="#EBEBEB"/>
<path d="M59.895 201.843H56.0496V209.279H59.895V201.843Z" fill="#EBEBEB"/>
<path d="M66.7038 201.843H62.8584V209.279H66.7038V201.843Z" fill="#EBEBEB"/>
<path d="M73.5215 201.843H69.6761V209.279H73.5215V201.843Z" fill="#EBEBEB"/>
<path d="M80.3392 201.843H76.4938V209.279H80.3392V201.843Z" fill="#EBEBEB"/>
<path d="M87.1481 201.843H83.3026V209.279H87.1481V201.843Z" fill="#EBEBEB"/>
<path d="M59.895 213.925H56.0496V221.36H59.895V213.925Z" fill="#EBEBEB"/>
<path d="M66.7038 213.925H62.8584V221.36H66.7038V213.925Z" fill="#EBEBEB"/>
<path d="M73.5215 213.925H69.6761V221.36H73.5215V213.925Z" fill="#EBEBEB"/>
<path d="M80.3392 213.925H76.4938V221.36H80.3392V213.925Z" fill="#EBEBEB"/>
<path d="M87.1481 213.925H83.3026V221.36H87.1481V213.925Z" fill="#EBEBEB"/>
<path d="M59.895 226.015H56.0496V233.45H59.895V226.015Z" fill="#EBEBEB"/>
<path d="M66.7038 226.015H62.8584V233.45H66.7038V226.015Z" fill="#EBEBEB"/>
<path d="M73.5215 226.015H69.6761V233.45H73.5215V226.015Z" fill="#EBEBEB"/>
<path d="M80.3392 226.015H76.4938V233.45H80.3392V226.015Z" fill="#EBEBEB"/>
<path d="M87.1481 226.015H83.3026V233.45H87.1481V226.015Z" fill="#EBEBEB"/>
<path d="M59.895 238.096H56.0496V245.531H59.895V238.096Z" fill="#EBEBEB"/>
<path d="M66.7038 238.096H62.8584V245.531H66.7038V238.096Z" fill="#EBEBEB"/>
<path d="M73.5215 238.096H69.6761V245.531H73.5215V238.096Z" fill="#EBEBEB"/>
<path d="M80.3392 238.096H76.4938V245.531H80.3392V238.096Z" fill="#EBEBEB"/>
<path d="M87.1481 238.096H83.3026V245.531H87.1481V238.096Z" fill="#EBEBEB"/>
<path d="M59.895 250.177H56.0496V257.612H59.895V250.177Z" fill="#EBEBEB"/>
<path d="M66.7038 250.177H62.8584V257.612H66.7038V250.177Z" fill="#EBEBEB"/>
<path d="M73.5215 250.177H69.6761V257.612H73.5215V250.177Z" fill="#EBEBEB"/>
<path d="M80.3392 250.177H76.4938V257.612H80.3392V250.177Z" fill="#EBEBEB"/>
<path d="M87.1481 250.177H83.3026V257.612H87.1481V250.177Z" fill="#EBEBEB"/>
<path d="M59.895 262.258H56.0496V266.896H59.895V262.258Z" fill="#EBEBEB"/>
<path d="M66.7038 262.258H62.8584V266.896H66.7038V262.258Z" fill="#EBEBEB"/>
<path d="M73.5215 262.258H69.6761V266.896H73.5215V262.258Z" fill="#EBEBEB"/>
<path d="M80.3392 262.258H76.4938V266.896H80.3392V262.258Z" fill="#EBEBEB"/>
<path d="M87.1481 262.258H83.3026V266.896H87.1481V262.258Z" fill="#EBEBEB"/>
<path d="M114.966 94.8655H90.5878V266.896H114.966V94.8655Z" fill="#DBDBDB"/>
<path d="M116.024 91.1007H90.5878V94.8654H116.024V91.1007Z" fill="#C7C7C7"/>
<path d="M97.8641 100.418H94.0187V266.904H97.8641V100.418Z" fill="#C7C7C7"/>
<path d="M104.682 100.418H100.836V266.904H104.682V100.418Z" fill="#C7C7C7"/>
<path d="M111.499 100.418H107.654V266.904H111.499V100.418Z" fill="#C7C7C7"/>
<path d="M97.8641 105.176H94.0187V112.611H97.8641V105.176Z" fill="#DBDBDB"/>
<path d="M104.682 105.176H100.836V112.611H104.682V105.176Z" fill="#DBDBDB"/>
<path d="M111.499 105.176H107.654V112.611H111.499V105.176Z" fill="#DBDBDB"/>
<path d="M97.8641 117.257H94.0187V124.692H97.8641V117.257Z" fill="#DBDBDB"/>
<path d="M104.682 117.257H100.836V124.692H104.682V117.257Z" fill="#DBDBDB"/>
<path d="M111.499 117.257H107.654V124.692H111.499V117.257Z" fill="#DBDBDB"/>
<path d="M97.8641 129.338H94.0187V136.773H97.8641V129.338Z" fill="#DBDBDB"/>
<path d="M104.682 129.338H100.836V136.773H104.682V129.338Z" fill="#DBDBDB"/>
<path d="M111.499 129.338H107.654V136.773H111.499V129.338Z" fill="#DBDBDB"/>
<path d="M97.8641 141.428H94.0187V148.863H97.8641V141.428Z" fill="#DBDBDB"/>
<path d="M104.682 141.428H100.836V148.863H104.682V141.428Z" fill="#DBDBDB"/>
<path d="M111.499 141.428H107.654V148.863H111.499V141.428Z" fill="#DBDBDB"/>
<path d="M97.8641 153.509H94.0187V160.945H97.8641V153.509Z" fill="#DBDBDB"/>
<path d="M104.682 153.509H100.836V160.945H104.682V153.509Z" fill="#DBDBDB"/>
<path d="M111.499 153.509H107.654V160.945H111.499V153.509Z" fill="#DBDBDB"/>
<path d="M97.8641 165.591H94.0187V173.026H97.8641V165.591Z" fill="#DBDBDB"/>
<path d="M104.682 165.591H100.836V173.026H104.682V165.591Z" fill="#DBDBDB"/>
<path d="M111.499 165.591H107.654V173.026H111.499V165.591Z" fill="#DBDBDB"/>
<path d="M97.8641 177.672H94.0187V185.107H97.8641V177.672Z" fill="#DBDBDB"/>
<path d="M104.682 177.672H100.836V185.107H104.682V177.672Z" fill="#DBDBDB"/>
<path d="M111.499 177.672H107.654V185.107H111.499V177.672Z" fill="#DBDBDB"/>
<path d="M97.8641 189.762H94.0187V197.197H97.8641V189.762Z" fill="#DBDBDB"/>
<path d="M104.682 189.762H100.836V197.197H104.682V189.762Z" fill="#DBDBDB"/>
<path d="M111.499 189.762H107.654V197.197H111.499V189.762Z" fill="#DBDBDB"/>
<path d="M97.8641 201.843H94.0187V209.279H97.8641V201.843Z" fill="#DBDBDB"/>
<path d="M104.682 201.843H100.836V209.279H104.682V201.843Z" fill="#DBDBDB"/>
<path d="M111.499 201.843H107.654V209.279H111.499V201.843Z" fill="#DBDBDB"/>
<path d="M97.8641 213.925H94.0187V221.36H97.8641V213.925Z" fill="#DBDBDB"/>
<path d="M104.682 213.925H100.836V221.36H104.682V213.925Z" fill="#DBDBDB"/>
<path d="M111.499 213.925H107.654V221.36H111.499V213.925Z" fill="#DBDBDB"/>
<path d="M97.8641 226.015H94.0187V233.45H97.8641V226.015Z" fill="#DBDBDB"/>
<path d="M104.682 226.015H100.836V233.45H104.682V226.015Z" fill="#DBDBDB"/>
<path d="M111.499 226.015H107.654V233.45H111.499V226.015Z" fill="#DBDBDB"/>
<path d="M97.8641 238.096H94.0187V245.531H97.8641V238.096Z" fill="#DBDBDB"/>
<path d="M104.682 238.096H100.836V245.531H104.682V238.096Z" fill="#DBDBDB"/>
<path d="M111.499 238.096H107.654V245.531H111.499V238.096Z" fill="#DBDBDB"/>
<path d="M97.8641 250.177H94.0187V257.612H97.8641V250.177Z" fill="#DBDBDB"/>
<path d="M104.682 250.177H100.836V257.612H104.682V250.177Z" fill="#DBDBDB"/>
<path d="M111.499 250.177H107.654V257.612H111.499V250.177Z" fill="#DBDBDB"/>
<path d="M97.8641 262.258H94.0187V266.896H97.8641V262.258Z" fill="#DBDBDB"/>
<path d="M104.682 262.258H100.836V266.896H104.682V262.258Z" fill="#DBDBDB"/>
<path d="M111.499 262.258H107.654V266.896H111.499V262.258Z" fill="#DBDBDB"/>
<path d="M42.7582 158.087H4.94788V266.896H42.7582V158.087Z" fill="#EBEBEB"/>
<path d="M42.7494 148.863H10.3191V158.087H42.7494V148.863Z" fill="#C7C7C7"/>
<path d="M38.6129 162.904H9.09315V266.896H38.6129V162.904Z" fill="#DBDBDB"/>
<path d="M38.6129 172.829H9.09315V175.285H38.6129V172.829Z" fill="white"/>
<path d="M38.6129 183.003H9.09315V185.458H38.6129V183.003Z" fill="white"/>
<path d="M38.6129 193.184H9.09315V195.64H38.6129V193.184Z" fill="white"/>
<path d="M38.6129 203.366H9.09315V205.822H38.6129V203.366Z" fill="white"/>
<path d="M38.6129 213.54H9.09315V215.995H38.6129V213.54Z" fill="white"/>
<path d="M38.6129 223.721H9.09315V226.177H38.6129V223.721Z" fill="white"/>
<path d="M38.6129 233.903H9.09315V236.359H38.6129V233.903Z" fill="white"/>
<path d="M38.6129 244.077H9.09315V246.532H38.6129V244.077Z" fill="white"/>
<path d="M38.6129 254.258H9.09315V256.714H38.6129V254.258Z" fill="white"/>
<path d="M38.6129 264.44H9.09315V266.896H38.6129V264.44Z" fill="white"/>
<path d="M66.4393 158.087H42.7582V266.896H66.4393V158.087Z" fill="#DBDBDB"/>
<path d="M62.8849 148.863H42.7582V158.087H62.8849V148.863Z" fill="#A6A6A6"/>
<path d="M64.2343 162.904H46.0215V266.896H64.2343V162.904Z" fill="#C7C7C7"/>
<path d="M64.2343 172.829H46.0215V175.285H64.2343V172.829Z" fill="white"/>
<path d="M64.2343 183.003H46.0215V185.458H64.2343V183.003Z" fill="white"/>
<path d="M64.2343 193.184H46.0215V195.64H64.2343V193.184Z" fill="white"/>
<path d="M64.2343 203.366H46.0215V205.822H64.2343V203.366Z" fill="white"/>
<path d="M64.2343 213.54H46.0215V215.995H64.2343V213.54Z" fill="white"/>
<path d="M64.2343 223.721H46.0215V226.177H64.2343V223.721Z" fill="white"/>
<path d="M64.2343 233.903H46.0215V236.359H64.2343V233.903Z" fill="white"/>
<path d="M64.2343 244.077H46.0215V246.532H64.2343V244.077Z" fill="white"/>
<path d="M64.2343 254.258H46.0215V256.714H64.2343V254.258Z" fill="white"/>
<path d="M64.2343 264.44H46.0215V266.896H64.2343V264.44Z" fill="white"/>
<path d="M138.62 203.195H109.392V266.896H138.62V203.195Z" fill="#DBDBDB"/>
<path d="M119.155 208.714H113.987V212.615H119.155V208.714Z" fill="#C7C7C7"/>
<path d="M119.155 217.048H113.987V220.949H119.155V217.048Z" fill="#C7C7C7"/>
<path d="M119.155 225.381H113.987V229.283H119.155V225.381Z" fill="#C7C7C7"/>
<path d="M119.155 233.715H113.987V237.617H119.155V233.715Z" fill="#C7C7C7"/>
<path d="M119.155 242.057H113.987V245.959H119.155V242.057Z" fill="#C7C7C7"/>
<path d="M119.155 250.391H113.987V254.293H119.155V250.391Z" fill="#C7C7C7"/>
<path d="M119.155 258.725H113.987V262.626H119.155V258.725Z" fill="#C7C7C7"/>
<path d="M126.608 208.714H121.43V212.615H126.608V208.714Z" fill="#C7C7C7"/>
<path d="M126.608 217.048H121.43V220.949H126.608V217.048Z" fill="#C7C7C7"/>
<path d="M126.608 225.381H121.43V229.283H126.608V225.381Z" fill="#C7C7C7"/>
<path d="M126.608 233.715H121.43V237.617H126.608V233.715Z" fill="#C7C7C7"/>
<path d="M126.608 242.057H121.43V245.959H126.608V242.057Z" fill="#C7C7C7"/>
<path d="M126.608 250.391H121.43V254.293H126.608V250.391Z" fill="#C7C7C7"/>
<path d="M126.608 258.725H121.43V262.626H126.608V258.725Z" fill="#C7C7C7"/>
<path d="M134.034 208.714H128.857V212.615H134.034V208.714Z" fill="#C7C7C7"/>
<path d="M134.034 217.048H128.857V220.949H134.034V217.048Z" fill="#C7C7C7"/>
<path d="M134.034 225.381H128.857V229.283H134.034V225.381Z" fill="#C7C7C7"/>
<path d="M134.034 233.715H128.857V237.617H134.034V233.715Z" fill="#C7C7C7"/>
<path d="M134.034 242.057H128.857V245.959H134.034V242.057Z" fill="#C7C7C7"/>
<path d="M134.034 250.391H128.857V254.293H134.034V250.391Z" fill="#C7C7C7"/>
<path d="M134.034 258.725H128.857V262.626H134.034V258.725Z" fill="#C7C7C7"/>
<path d="M159.126 203.195H138.62V266.896H159.126V203.195Z" fill="#A6A6A6"/>
<path d="M152.829 262.01H157.036V258.109H152.829V262.01Z" fill="#C7C7C7"/>
<path d="M152.829 253.668H157.036V249.766H152.829V253.668Z" fill="#C7C7C7"/>
<path d="M152.829 245.334H157.036V241.433H152.829V245.334Z" fill="#C7C7C7"/>
<path d="M152.829 236.992H157.036V233.09H152.829V236.992Z" fill="#C7C7C7"/>
<path d="M152.829 228.667H157.036V224.765H152.829V228.667Z" fill="#C7C7C7"/>
<path d="M152.829 220.324H157.036V216.423H152.829V220.324Z" fill="#C7C7C7"/>
<path d="M152.829 211.991H157.036V208.089H152.829V211.991Z" fill="#C7C7C7"/>
<path d="M146.77 262.01H150.977V258.109H146.77V262.01Z" fill="#C7C7C7"/>
<path d="M146.77 253.668H150.977V249.766H146.77V253.668Z" fill="#C7C7C7"/>
<path d="M146.77 245.334H150.977V241.433H146.77V245.334Z" fill="#C7C7C7"/>
<path d="M146.77 236.992H150.977V233.09H146.77V236.992Z" fill="#C7C7C7"/>
<path d="M146.77 228.667H150.977V224.765H146.77V228.667Z" fill="#C7C7C7"/>
<path d="M146.77 220.324H150.977V216.423H146.77V220.324Z" fill="#C7C7C7"/>
<path d="M146.77 211.991H150.977V208.089H146.77V211.991Z" fill="#C7C7C7"/>
<path d="M140.728 262.01H144.935V258.109H140.728V262.01Z" fill="#C7C7C7"/>
<path d="M140.728 253.668H144.935V249.766H140.728V253.668Z" fill="#C7C7C7"/>
<path d="M140.728 245.334H144.935V241.433H140.728V245.334Z" fill="#C7C7C7"/>
<path d="M140.728 236.992H144.935V233.09H140.728V236.992Z" fill="#C7C7C7"/>
<path d="M140.728 228.667H144.935V224.765H140.728V228.667Z" fill="#C7C7C7"/>
<path d="M140.728 220.324H144.935V216.423H140.728V220.324Z" fill="#C7C7C7"/>
<path d="M140.728 211.991H144.935V208.089H140.728V211.991Z" fill="#C7C7C7"/>
<path d="M335.883 130.134H315.686V153.278H335.883V130.134Z" fill="#DBDBDB"/>
<path d="M348.689 130.134H335.883V154.125H348.689V130.134Z" fill="#C7C7C7"/>
<path d="M349.536 140.35H336.827V154.125H349.536V140.35Z" fill="#DBDBDB"/>
<path d="M357.465 140.35H349.536V154.125H357.465V140.35Z" fill="#C7C7C7"/>
<path d="M340.593 151.764H307.942V266.896H340.593V151.764Z" fill="#EBEBEB"/>
<path d="M321.939 156.718H311.673V160.791H321.939V156.718Z" fill="white"/>
<path d="M335.072 156.718H324.805V160.791H335.072V156.718Z" fill="white"/>
<path d="M321.939 163.631H311.673V167.704H321.939V163.631Z" fill="white"/>
<path d="M335.072 163.631H324.805V167.704H335.072V163.631Z" fill="white"/>
<path d="M321.939 170.536H311.673V174.609H321.939V170.536Z" fill="white"/>
<path d="M335.072 170.536H324.805V174.609H335.072V170.536Z" fill="white"/>
<path d="M321.939 177.449H311.673V181.522H321.939V177.449Z" fill="white"/>
<path d="M335.072 177.449H324.805V181.522H335.072V177.449Z" fill="white"/>
<path d="M321.939 184.354H311.673V188.427H321.939V184.354Z" fill="white"/>
<path d="M335.072 184.354H324.805V188.427H335.072V184.354Z" fill="white"/>
<path d="M321.939 191.268H311.673V195.34H321.939V191.268Z" fill="white"/>
<path d="M335.072 191.268H324.805V195.34H335.072V191.268Z" fill="white"/>
<path d="M321.939 198.181H311.673V202.254H321.939V198.181Z" fill="white"/>
<path d="M335.072 198.181H324.805V202.254H335.072V198.181Z" fill="white"/>
<path d="M321.939 205.086H311.673V209.159H321.939V205.086Z" fill="white"/>
<path d="M335.072 205.086H324.805V209.159H335.072V205.086Z" fill="white"/>
<path d="M321.939 211.999H311.673V216.072H321.939V211.999Z" fill="white"/>
<path d="M335.072 211.999H324.805V216.072H335.072V211.999Z" fill="white"/>
<path d="M321.939 218.913H311.673V222.985H321.939V218.913Z" fill="white"/>
<path d="M335.072 218.913H324.805V222.985H335.072V218.913Z" fill="white"/>
<path d="M321.939 225.818H311.673V229.89H321.939V225.818Z" fill="white"/>
<path d="M335.072 225.818H324.805V229.89H335.072V225.818Z" fill="white"/>
<path d="M321.939 232.731H311.673V236.804H321.939V232.731Z" fill="white"/>
<path d="M335.072 232.731H324.805V236.804H335.072V232.731Z" fill="white"/>
<path d="M321.939 239.645H311.673V243.717H321.939V239.645Z" fill="white"/>
<path d="M335.072 239.645H324.805V243.717H335.072V239.645Z" fill="white"/>
<path d="M321.939 246.549H311.673V250.622H321.939V246.549Z" fill="white"/>
<path d="M335.072 246.549H324.805V250.622H335.072V246.549Z" fill="white"/>
<path d="M367.052 151.764H340.593V266.896H367.052V151.764Z" fill="#C7C7C7"/>
<path d="M355.966 250.622H364.397V246.549H355.966V250.622Z" fill="#EBEBEB"/>
<path d="M345.188 250.622H353.62V246.549H345.188V250.622Z" fill="#EBEBEB"/>
<path d="M355.966 243.708H364.397V239.636H355.966V243.708Z" fill="#EBEBEB"/>
<path d="M345.188 243.708H353.62V239.636H345.188V243.708Z" fill="#EBEBEB"/>
<path d="M355.966 236.804H364.397V232.731H355.966V236.804Z" fill="#EBEBEB"/>
<path d="M345.188 236.804H353.62V232.731H345.188V236.804Z" fill="#EBEBEB"/>
<path d="M355.966 229.891H364.397V225.818H355.966V229.891Z" fill="#EBEBEB"/>
<path d="M345.188 229.891H353.62V225.818H345.188V229.891Z" fill="#EBEBEB"/>
<path d="M355.966 222.977H364.397V218.904H355.966V222.977Z" fill="#EBEBEB"/>
<path d="M345.188 222.977H353.62V218.904H345.188V222.977Z" fill="#EBEBEB"/>
<path d="M355.966 216.072H364.397V211.999H355.966V216.072Z" fill="#EBEBEB"/>
<path d="M345.188 216.072H353.62V211.999H345.188V216.072Z" fill="#EBEBEB"/>
<path d="M355.966 209.167H364.397V205.095H355.966V209.167Z" fill="#EBEBEB"/>
<path d="M345.188 209.167H353.62V205.095H345.188V209.167Z" fill="#EBEBEB"/>
<path d="M355.966 202.245H364.397V198.173H355.966V202.245Z" fill="#EBEBEB"/>
<path d="M345.188 202.245H353.62V198.173H345.188V202.245Z" fill="#EBEBEB"/>
<path d="M355.966 195.341H364.397V191.268H355.966V195.341Z" fill="#EBEBEB"/>
<path d="M345.188 195.341H353.62V191.268H345.188V195.341Z" fill="#EBEBEB"/>
<path d="M355.966 188.436H364.397V184.363H355.966V188.436Z" fill="#EBEBEB"/>
<path d="M345.188 188.436H353.62V184.363H345.188V188.436Z" fill="#EBEBEB"/>
<path d="M355.966 181.514H364.397V177.441H355.966V181.514Z" fill="#EBEBEB"/>
<path d="M345.188 181.514H353.62V177.441H345.188V181.514Z" fill="#EBEBEB"/>
<path d="M355.966 174.609H364.397V170.536H355.966V174.609Z" fill="#EBEBEB"/>
<path d="M345.188 174.609H353.62V170.536H345.188V174.609Z" fill="#EBEBEB"/>
<path d="M355.966 167.696H364.397V163.623H355.966V167.696Z" fill="#EBEBEB"/>
<path d="M345.188 167.696H353.62V163.623H345.188V167.696Z" fill="#EBEBEB"/>
<path d="M355.966 160.782H364.397V156.709H355.966V160.782Z" fill="#EBEBEB"/>
<path d="M345.188 160.782H353.62V156.709H345.188V160.782Z" fill="#EBEBEB"/>
<path d="M222.646 191.875H184.13V266.896H222.646V191.875Z" fill="#C7C7C7"/>
<path d="M197.007 198.37H190.189V202.964H197.007V198.37Z" fill="#DBDBDB"/>
<path d="M197.007 208.192H190.189V212.787H197.007V208.192Z" fill="#DBDBDB"/>
<path d="M197.007 218.006H190.189V222.601H197.007V218.006Z" fill="#DBDBDB"/>
<path d="M197.007 227.82H190.189V232.414H197.007V227.82Z" fill="#DBDBDB"/>
<path d="M197.007 237.642H190.189V242.237H197.007V237.642Z" fill="#DBDBDB"/>
<path d="M197.007 247.456H190.189V252.051H197.007V247.456Z" fill="#DBDBDB"/>
<path d="M197.007 257.27H190.189V261.865H197.007V257.27Z" fill="#DBDBDB"/>
<path d="M206.815 198.37H199.997V202.964H206.815V198.37Z" fill="#DBDBDB"/>
<path d="M206.815 208.192H199.997V212.787H206.815V208.192Z" fill="#DBDBDB"/>
<path d="M206.815 218.006H199.997V222.601H206.815V218.006Z" fill="#DBDBDB"/>
<path d="M206.815 227.82H199.997V232.414H206.815V227.82Z" fill="#DBDBDB"/>
<path d="M206.815 237.642H199.997V242.237H206.815V237.642Z" fill="#DBDBDB"/>
<path d="M206.815 247.456H199.997V252.051H206.815V247.456Z" fill="#DBDBDB"/>
<path d="M206.815 257.27H199.997V261.865H206.815V257.27Z" fill="#DBDBDB"/>
<path d="M216.596 198.37H209.778V202.964H216.596V198.37Z" fill="#DBDBDB"/>
<path d="M216.596 208.192H209.778V212.787H216.596V208.192Z" fill="#DBDBDB"/>
<path d="M216.596 218.006H209.778V222.601H216.596V218.006Z" fill="#DBDBDB"/>
<path d="M216.596 227.82H209.778V232.414H216.596V227.82Z" fill="#DBDBDB"/>
<path d="M216.596 237.642H209.778V242.237H216.596V237.642Z" fill="#DBDBDB"/>
<path d="M216.596 247.456H209.778V252.051H216.596V247.456Z" fill="#DBDBDB"/>
<path d="M216.596 257.27H209.778V261.865H216.596V257.27Z" fill="#DBDBDB"/>
<path d="M222.646 184.064H197.007V191.884H222.646V184.064Z" fill="#DBDBDB"/>
<path d="M222.646 179.221H206.391V184.064H222.646V179.221Z" fill="#EBEBEB"/>
<path d="M249.67 191.875H222.646V266.896H249.67V191.875Z" fill="#A6A6A6"/>
<path d="M241.362 261.137H246.909V256.543H241.362V261.137Z" fill="#C7C7C7"/>
<path d="M241.362 251.323H246.909V246.729H241.362V251.323Z" fill="#C7C7C7"/>
<path d="M241.362 241.501H246.909V236.906H241.362V241.501Z" fill="#C7C7C7"/>
<path d="M241.362 231.679H246.909V227.084H241.362V231.679Z" fill="#C7C7C7"/>
<path d="M241.362 221.873H246.909V217.279H241.362V221.873Z" fill="#C7C7C7"/>
<path d="M241.362 212.051H246.909V207.456H241.362V212.051Z" fill="#C7C7C7"/>
<path d="M241.362 202.237H246.909V197.642H241.362V202.237Z" fill="#C7C7C7"/>
<path d="M233.38 261.137H238.927V256.543H233.38V261.137Z" fill="#C7C7C7"/>
<path d="M233.38 251.323H238.927V246.729H233.38V251.323Z" fill="#C7C7C7"/>
<path d="M233.38 241.501H238.927V236.906H233.38V241.501Z" fill="#C7C7C7"/>
<path d="M233.38 231.679H238.927V227.084H233.38V231.679Z" fill="#C7C7C7"/>
<path d="M233.38 221.873H238.927V217.279H233.38V221.873Z" fill="#C7C7C7"/>
<path d="M233.38 212.051H238.927V207.456H233.38V212.051Z" fill="#C7C7C7"/>
<path d="M233.38 202.237H238.927V197.642H233.38V202.237Z" fill="#C7C7C7"/>
<path d="M225.415 261.137H230.963V256.543H225.415V261.137Z" fill="#C7C7C7"/>
<path d="M225.415 251.323H230.963V246.729H225.415V251.323Z" fill="#C7C7C7"/>
<path d="M225.415 241.501H230.963V236.906H225.415V241.501Z" fill="#C7C7C7"/>
<path d="M225.415 231.679H230.963V227.084H225.415V231.679Z" fill="#C7C7C7"/>
<path d="M225.415 221.873H230.963V217.279H225.415V221.873Z" fill="#C7C7C7"/>
<path d="M225.415 212.051H230.963V207.456H225.415V212.051Z" fill="#C7C7C7"/>
<path d="M225.415 202.237H230.963V197.642H225.415V202.237Z" fill="#C7C7C7"/>
<path d="M245.577 184.064H222.646V191.884H245.577V184.064Z" fill="#C7C7C7"/>
<path d="M235.073 179.221H222.646V184.064H235.073V179.221Z" fill="#DBDBDB"/>
<path d="M186 372C278.364 372 353.24 366.097 353.24 358.815C353.24 351.533 278.364 345.63 186 345.63C93.6357 345.63 18.7596 351.533 18.7596 358.815C18.7596 366.097 93.6357 372 186 372Z" fill="#EBEBEB"/>
<path d="M0 273.117L46.4978 272.911L93.0044 272.834L186 272.689L278.996 272.834L325.502 272.903L372 273.117L325.502 273.322L278.996 273.399L186 273.544L93.0044 273.399L46.4978 273.322L0 273.117Z" fill="#263238"/>
<path d="M370.007 266.896H1.98444V273.116H370.007V266.896Z" fill="#C7C7C7"/>
<path d="M27.7911 266.896C28.3672 268.932 28.3672 271.081 27.7911 273.116C27.4811 272.109 27.3323 271.062 27.3501 270.01C27.3355 268.957 27.4842 267.907 27.7911 266.896Z" fill="#263238"/>
<path d="M56.5523 266.896C56.8592 267.907 57.0079 268.957 56.9933 270.01C57.0111 271.062 56.8624 272.109 56.5523 273.116C55.9762 271.081 55.9762 268.932 56.5523 266.896Z" fill="#263238"/>
<path d="M85.3224 266.896C85.8985 268.932 85.8985 271.081 85.3224 273.116C85.0124 272.109 84.8636 271.062 84.8814 270.01C84.8668 268.957 85.0155 267.907 85.3224 266.896Z" fill="#263238"/>
<path d="M114.084 266.896C114.391 267.907 114.539 268.957 114.525 270.01C114.542 271.062 114.394 272.109 114.084 273.116C113.508 271.081 113.508 268.932 114.084 266.896Z" fill="#263238"/>
<path d="M142.854 266.896C143.43 268.932 143.43 271.081 142.854 273.116C142.544 272.109 142.395 271.062 142.413 270.01C142.398 268.957 142.547 267.907 142.854 266.896Z" fill="#263238"/>
<path d="M171.615 266.896C171.922 267.907 172.071 268.957 172.056 270.01C172.074 271.062 171.925 272.109 171.615 273.116C171.039 271.081 171.039 268.932 171.615 266.896Z" fill="#263238"/>
<path d="M200.385 266.896C200.961 268.932 200.961 271.081 200.385 273.116C200.075 272.109 199.926 271.062 199.944 270.01C199.929 268.957 200.078 267.907 200.385 266.896Z" fill="#263238"/>
<path d="M229.146 266.896C229.453 267.907 229.602 268.957 229.587 270.01C229.605 271.062 229.456 272.109 229.146 273.116C228.57 271.081 228.57 268.932 229.146 266.896Z" fill="#263238"/>
<path d="M257.916 266.896C258.492 268.932 258.492 271.081 257.916 273.116C257.606 272.109 257.458 271.062 257.475 270.01C257.461 268.957 257.609 267.907 257.916 266.896Z" fill="#263238"/>
<path d="M286.678 266.896C286.984 267.907 287.133 268.957 287.119 270.01C287.136 271.062 286.988 272.109 286.678 273.116C286.101 271.081 286.101 268.932 286.678 266.896Z" fill="#263238"/>
<path d="M315.448 266.896C316.024 268.932 316.024 271.081 315.448 273.116C315.138 272.109 314.989 271.062 315.007 270.01C314.992 268.957 315.141 267.907 315.448 266.896Z" fill="#263238"/>
<path d="M344.209 266.896C344.516 267.907 344.664 268.957 344.65 270.01C344.668 271.062 344.519 272.109 344.209 273.116C343.633 271.081 343.633 268.932 344.209 266.896Z" fill="#263238"/>
<path d="M43.4902 266.896C43.4902 266.896 42.7494 263.533 41.2677 263.02C39.7859 262.507 38.8775 264.012 38.8775 264.012C38.8775 264.012 38.5335 260.795 36.4256 259.837C34.3177 258.879 32.7478 260.847 32.7478 260.847C32.7478 260.847 31.1338 256.8 28.2497 256.8C25.3656 256.8 23.9192 262.789 23.9192 262.789C23.9192 262.789 22.217 261.018 20.4707 262.019C18.7244 263.02 18.7067 266.956 18.7067 266.956L43.4902 266.896Z" fill="#37474F"/>
<path d="M289.421 266.896C289.421 266.896 288.68 263.533 287.198 263.02C285.716 262.507 284.817 264.012 284.817 264.012C284.817 264.012 284.464 260.795 282.365 259.837C280.266 258.879 278.687 260.847 278.687 260.847C278.687 260.847 277.073 256.8 274.198 256.8C271.322 256.8 269.858 262.789 269.858 262.789C269.858 262.789 268.165 261.018 266.419 262.019C264.672 263.02 264.655 266.956 264.655 266.956L289.421 266.896Z" fill="#455A64"/>
<path d="M109.003 266.896H82.941C82.941 266.896 83.823 263.337 85.5252 263.08C86.0532 263.03 86.5843 263.139 87.0455 263.393C87.5067 263.648 87.8753 264.034 88.1006 264.5C88.1006 264.5 88.0212 259.529 91.2493 258.682C94.4773 257.835 97.1761 262.224 97.1761 262.224C97.1761 262.224 99.2047 259.717 101.956 259.88C104.708 260.043 105.423 264.158 105.423 264.158C105.423 264.158 107.892 262.729 109.003 266.896Z" fill="#37474F"/>
<path d="M20.3296 266.896H6.61482C6.61482 266.896 6.61482 264.919 7.9907 264.389C8.35738 264.236 8.76545 264.202 9.15354 264.293C9.54164 264.384 9.88877 264.595 10.1427 264.894C10.1427 264.894 10.6896 261.249 13.2032 261.249C15.7168 261.249 16.9251 264.389 16.9251 264.389C17.1383 264.089 17.4374 263.857 17.7853 263.72C18.1333 263.583 18.5149 263.548 18.8831 263.619C20.2766 263.79 20.3296 266.896 20.3296 266.896Z" fill="#455A64"/>
<path d="M119.764 266.896H106.049C106.049 266.896 106.049 264.919 107.425 264.389C107.791 264.236 108.199 264.202 108.588 264.293C108.976 264.384 109.323 264.595 109.577 264.894C109.577 264.894 110.132 261.249 112.646 261.249C115.16 261.249 116.359 264.389 116.359 264.389C116.572 264.089 116.871 263.857 117.219 263.72C117.567 263.583 117.949 263.548 118.317 263.619C119.711 263.79 119.764 266.896 119.764 266.896Z" fill="#455A64"/>
<path d="M345.373 266.896H331.658C331.658 266.896 331.658 264.919 333.034 264.389C333.401 264.236 333.809 264.202 334.197 264.293C334.585 264.384 334.932 264.595 335.186 264.894C335.186 264.894 335.733 261.249 338.247 261.249C340.76 261.249 341.969 264.389 341.969 264.389C342.181 264.088 342.48 263.855 342.828 263.718C343.176 263.581 343.558 263.547 343.927 263.619C345.32 263.79 345.373 266.896 345.373 266.896Z" fill="#455A64"/>
<path d="M365.385 266.896H342.771C342.771 266.896 342.824 263.627 345.047 262.763C345.651 262.517 346.322 262.467 346.958 262.621C347.593 262.776 348.161 263.126 348.575 263.619C348.575 263.619 349.457 257.63 353.628 257.63C357.8 257.63 359.749 262.789 359.749 262.789C360.101 262.294 360.593 261.91 361.167 261.683C361.74 261.457 362.37 261.398 362.977 261.514C365.297 261.779 365.385 266.896 365.385 266.896Z" fill="#37474F"/>
<path d="M263.482 14.9591H248.4V23.25H263.482V14.9591Z" fill="#263238"/>
<path d="M265.607 12.1699H246.265V17.5945H265.607V12.1699Z" fill="#455A64"/>
<path d="M229.76 23.1535L225.65 27.1405L232.142 33.4387L236.252 29.4517L229.76 23.1535Z" fill="#263238"/>
<path d="M228.788 19.8575L222.259 26.192L226.499 30.3061L233.029 23.9716L228.788 19.8575Z" fill="#455A64"/>
<path d="M275.628 29.4447L279.738 33.4318L286.231 27.1336L282.121 23.1465L275.628 29.4447Z" fill="#263238"/>
<path d="M278.834 23.9758L285.364 30.3103L289.605 26.1962L283.075 19.8617L278.834 23.9758Z" fill="#455A64"/>
<path d="M291.615 65.8842C296.239 46.7595 284.006 27.6195 264.292 23.1339C244.578 18.6482 224.849 30.5155 220.225 49.6402C215.601 68.7648 227.834 87.9048 247.548 92.3904C267.262 96.8761 286.991 85.0088 291.615 65.8842Z" fill="#455A64"/>
<path d="M255.491 91.1177C274.809 91.1177 290.47 75.9251 290.47 57.1839C290.47 38.4428 274.809 23.2501 255.491 23.2501C236.172 23.2501 220.512 38.4428 220.512 57.1839C220.512 75.9251 236.172 91.1177 255.491 91.1177Z" fill="#263238"/>
<path d="M286.499 61.9462C288.968 45.5672 277.283 30.3476 260.4 27.9523C243.516 25.557 227.828 36.8931 225.358 53.2721C222.889 69.6511 234.575 84.8707 251.458 87.266C268.342 89.6613 284.03 78.3252 286.499 61.9462Z" fill="white"/>
<path opacity="0.5" d="M286.836 57.6203H255.967V27.6737C264.154 27.6737 272.006 30.8288 277.795 36.4449C283.584 42.061 286.836 49.678 286.836 57.6203Z" fill="#DC2626"/>
<path d="M256.241 29.8213H255.641V34.3646H256.241V29.8213Z" fill="#C7C7C7"/>
<path d="M241.865 33.3811L241.345 33.672L243.687 37.6066L244.206 37.3157L241.865 33.3811Z" fill="#C7C7C7"/>
<path d="M231.261 43.4568L230.961 43.9607L235.017 46.2324L235.317 45.7285L231.261 43.4568Z" fill="#C7C7C7"/>
<path d="M231.969 57.3295H227.285V57.9113H231.969V57.3295Z" fill="#C7C7C7"/>
<path d="M236.079 69.2845L232.005 71.5562L232.305 72.0623L236.379 69.7907L236.079 69.2845Z" fill="#C7C7C7"/>
<path d="M243.69 77.6161L241.35 81.5519L241.87 81.8425L244.209 77.9067L243.69 77.6161Z" fill="#C7C7C7"/>
<path d="M256.241 80.8761H255.641V85.4194H256.241V80.8761Z" fill="#C7C7C7"/>
<path d="M268.177 77.6007L267.658 77.8916L270 81.8262L270.519 81.5353L268.177 77.6007Z" fill="#C7C7C7"/>
<path d="M276.843 68.9746L276.544 69.4785L280.599 71.7502L280.899 71.2463L276.843 68.9746Z" fill="#C7C7C7"/>
<path d="M284.596 57.3295H279.913V57.9113H284.596V57.3295Z" fill="#C7C7C7"/>
<path d="M280.601 43.4528L276.545 45.7245L276.845 46.2284L280.901 43.9567L280.601 43.4528Z" fill="#C7C7C7"/>
<path d="M270.002 33.3931L267.661 37.3285L268.181 37.6192L270.521 33.6838L270.002 33.3931Z" fill="#C7C7C7"/>
<path d="M256.152 35.9304L257.528 59.4L254.424 59.3572L255.315 35.9219L256.152 35.9304Z" fill="#DC2626"/>
<path d="M256.999 57.6203C256.999 57.8254 256.936 58.0259 256.819 58.1964C256.701 58.3668 256.534 58.4995 256.338 58.5776C256.143 58.6557 255.928 58.6757 255.72 58.635C255.513 58.5944 255.323 58.4949 255.174 58.3493C255.025 58.2036 254.924 58.0184 254.884 57.817C254.844 57.6156 254.866 57.4072 254.948 57.2181C255.031 57.0291 255.169 56.868 255.345 56.7553C255.522 56.6426 255.729 56.5833 255.941 56.585C256.08 56.585 256.219 56.6118 256.348 56.664C256.477 56.7161 256.594 56.7925 256.692 56.8887C256.791 56.985 256.868 57.0992 256.921 57.2248C256.974 57.3503 257 57.4847 256.999 57.6203Z" fill="#DC2626"/>
<path d="M278.334 57.9712L254.141 59.2974L254.186 56.2856L278.343 57.1498L278.334 57.9712Z" fill="#263238"/>
<path d="M256.999 57.6203C256.999 57.8254 256.936 58.0259 256.819 58.1964C256.701 58.3668 256.534 58.4995 256.338 58.5776C256.143 58.6557 255.928 58.6757 255.72 58.635C255.513 58.5944 255.323 58.4949 255.174 58.3493C255.025 58.2036 254.924 58.0184 254.884 57.817C254.844 57.6156 254.866 57.4072 254.948 57.2181C255.031 57.0291 255.169 56.868 255.345 56.7553C255.522 56.6426 255.729 56.5833 255.941 56.585C256.08 56.585 256.219 56.6118 256.348 56.664C256.477 56.7161 256.594 56.7925 256.692 56.8887C256.791 56.985 256.868 57.0992 256.921 57.2248C256.974 57.3503 257 57.4847 256.999 57.6203Z" fill="#DC2626"/>
<path d="M130.321 122.04C134.863 138.853 140.781 149.83 144.75 153.629C154.258 162.733 174.737 164.752 186.256 169.39C190.004 170.904 200.367 147.837 196.531 145.817C193.7 144.32 160.82 140.281 158.024 139.451C156.586 139.024 145.676 125.24 139.502 117.488C129.553 105.064 127.834 112.859 130.321 122.04Z" fill="#F7A9A0"/>
<path d="M204.257 172.624C202.493 172.581 202.431 173.479 204.892 175.456C207.353 177.432 218.81 183.157 216.402 186.878C213.994 190.6 197.951 182.25 194.114 178.673C190.278 175.097 185.347 168.012 185.347 168.012C188.813 169.03 197.466 170.716 204.257 172.624Z" fill="#F7A9A0"/>
<path d="M193.761 145.09C210.836 147.657 217.628 150.9 225.107 159.37C225.961 160.286 226.476 161.451 226.571 162.682C229.993 166.412 229.217 169.107 229.217 169.107C231.298 173.531 230.099 176.175 230.099 176.175C230.099 176.175 234.068 180.598 231.704 183.37C229.058 186.485 224.013 179.657 218.871 177.552C207.079 172.718 188.884 169.056 185.356 167.995L193.761 145.09Z" fill="#F7A9A0"/>
<path d="M210.148 164.085C213.618 165.455 216.987 167.056 220.229 168.876C223.648 171.078 226.891 173.527 229.931 176.2C229.952 176.212 229.976 176.216 229.999 176.213C230.023 176.209 230.045 176.198 230.061 176.182C230.077 176.165 230.087 176.143 230.089 176.12C230.091 176.097 230.085 176.074 230.072 176.055C224.722 170.328 217.855 166.134 210.219 163.931C210.043 163.879 209.972 164.008 210.148 164.085Z" fill="#263238"/>
<path d="M212.115 156.752C215.387 158.378 221.103 161.278 229.102 169.201C229.102 169.201 229.182 169.201 229.155 169.201C224.814 163.566 218.941 159.214 212.195 156.632C211.983 156.513 211.904 156.641 212.115 156.752Z" fill="#263238"/>
<path d="M213.253 152.834C218.695 155.811 221.738 158.352 226.527 162.699C226.527 162.699 226.597 162.699 226.571 162.656C221.676 157.163 219.259 155.708 213.341 152.637C213.13 152.534 213.041 152.714 213.253 152.834Z" fill="#263238"/>
<path d="M149.689 129.663L133.963 143.961C133.963 143.961 127.613 121.783 127.657 114.767C127.657 106.853 131.855 108.598 137.359 113.911C142.863 119.225 149.689 129.663 149.689 129.663Z" fill="#DC2626"/>
<path opacity="0.1" d="M149.689 129.663L133.963 143.961C133.963 143.961 127.613 121.783 127.657 114.767C127.657 106.853 131.855 108.598 137.359 113.911C142.863 119.225 149.689 129.663 149.689 129.663Z" fill="black"/>
<path d="M146.47 127.405C144.212 128.962 138.117 134.558 137.094 135.473C136.556 135.961 134.51 137.972 133.972 138.451C133.902 138.511 133.972 138.605 134.078 138.545C135.11 137.638 136.239 136.834 137.271 135.918C138.303 135.003 144.723 129.535 146.54 127.482C146.584 127.439 146.523 127.37 146.47 127.405Z" fill="#263238"/>
<path d="M233.027 301.232C230.893 301.908 169.436 299.521 167.135 298.075C166.852 297.912 165.759 286.447 165.759 286.447L172.867 242.391L213.218 242.913L205.43 280.56C205.43 280.56 214.32 284.53 221.649 287.995C226.165 290.117 230.09 292.06 230.99 292.77C233.353 294.601 235.17 300.564 233.027 301.232Z" fill="#F7A9A0"/>
<path d="M233.036 301.232C230.901 301.908 169.428 299.521 167.135 298.083C166.861 297.912 165.75 286.447 165.75 286.447L167.946 272.877L206.656 274.588L205.403 280.526C205.403 280.526 214.285 284.496 221.623 287.953C226.139 290.075 230.064 292.017 230.963 292.727C233.344 294.609 235.161 300.573 233.036 301.232Z" fill="#EBEBEB"/>
<path d="M233.001 301.292C230.822 301.951 168.96 300.556 166.641 299.05C165.759 298.494 165.432 289.732 165.362 279.14V278.815L205.289 279.285V279.936C205.289 279.936 228.723 290.751 231.095 292.667C233.468 294.584 235.179 300.659 233.001 301.292Z" fill="#C7C7C7"/>
<path d="M229.473 301.463C215.934 301.6 168.616 300.368 166.641 299.059C165.759 298.502 165.432 289.741 165.362 279.148V278.823L190.366 279.114L229.473 301.463Z" fill="#A6A6A6"/>
<path d="M232.357 298.964C221.932 298.477 179.844 297.476 169.507 297.766C169.419 297.766 169.419 297.826 169.507 297.835C179.826 298.528 221.914 299.195 232.348 299.127C232.568 299.127 232.577 298.973 232.357 298.964Z" fill="#263238"/>
<path d="M208.605 280.141C204.521 279.285 199.485 279.799 196.257 282.571C196.134 282.673 196.257 282.845 196.425 282.802C200.376 281.664 204.442 280.941 208.552 280.646C208.615 280.642 208.675 280.618 208.721 280.575C208.767 280.533 208.795 280.476 208.802 280.415C208.808 280.354 208.792 280.293 208.756 280.243C208.72 280.192 208.666 280.156 208.605 280.141Z" fill="#263238"/>
<path d="M211.524 281.937C207.441 281.082 202.405 281.604 199.177 284.367C199.053 284.47 199.177 284.641 199.344 284.607C203.305 283.474 207.379 282.756 211.498 282.468C211.57 282.471 211.641 282.447 211.695 282.399C211.749 282.352 211.781 282.286 211.785 282.215C211.788 282.145 211.763 282.076 211.714 282.024C211.665 281.972 211.597 281.941 211.524 281.937Z" fill="#263238"/>
<path d="M214.444 283.735C210.36 282.879 205.324 283.401 202.096 286.164C201.973 286.276 202.096 286.438 202.264 286.404C206.215 285.265 210.28 284.539 214.391 284.239C214.454 284.236 214.514 284.211 214.56 284.169C214.605 284.127 214.634 284.07 214.641 284.009C214.647 283.948 214.631 283.887 214.594 283.836C214.558 283.786 214.505 283.75 214.444 283.735Z" fill="#263238"/>
<path d="M208.817 274.862L163.774 272.877C163.774 272.877 179.341 211.555 177.683 209.561C175.919 207.422 110.706 223.251 97.67 207.559C84.3169 191.482 91.0111 168.337 91.0111 168.337H135.489C135.489 168.337 134.607 174.13 135.207 176.893C135.207 176.893 197.827 167.601 211.445 174.6C214.091 175.978 223.793 183.713 223.951 191.045C224.807 223.431 208.817 274.862 208.817 274.862Z" fill="#455A64"/>
<path d="M209.267 266.947C203.922 266.297 198.568 265.903 193.197 265.51C187.826 265.116 182.454 264.808 177.083 264.611C174.049 264.492 171.015 264.517 167.981 264.415C167.966 264.42 167.952 264.43 167.943 264.443C167.933 264.456 167.928 264.471 167.928 264.487C167.928 264.503 167.933 264.519 167.943 264.532C167.952 264.545 167.966 264.555 167.981 264.56C170.68 264.748 173.37 265.082 176.069 265.287L184.06 265.852C189.431 266.194 194.802 266.485 200.173 266.802C203.199 266.981 206.224 267.076 209.258 267.144C209.28 267.139 209.3 267.126 209.314 267.109C209.329 267.092 209.337 267.071 209.338 267.049C209.339 267.027 209.333 267.005 209.32 266.986C209.307 266.968 209.288 266.954 209.267 266.947Z" fill="#263238"/>
<path d="M184.624 205.206C175.972 205.48 167.364 206.207 158.756 207.028C150.148 207.85 141.487 208.74 132.808 209.287C128.504 209.552 124.182 209.724 119.861 209.749C116.271 209.899 112.678 209.535 109.197 208.671C105.742 207.691 102.788 205.494 100.916 202.511C99.0335 199.487 97.8005 196.126 97.2908 192.628C96.1531 185.552 97.2908 178.322 98.6226 171.341C98.7902 170.485 98.9577 169.629 99.1165 168.705C99.1165 168.628 99.0018 168.594 98.9754 168.705C97.2114 175.747 95.5621 182.994 96.0913 190.267C96.3077 193.836 97.2049 197.334 98.7372 200.586C100.119 203.744 102.497 206.398 105.528 208.166C108.624 209.878 112.284 210.382 115.839 210.553C119.984 210.759 124.182 210.553 128.328 210.374C137.2 209.955 146.038 209.065 154.857 208.175C163.677 207.285 172.453 206.412 181.317 205.984C182.296 205.933 183.275 205.899 184.254 205.865C182.913 213.565 171.562 259.409 170.927 263.037C170.865 263.396 171.218 263.508 171.315 263.14C173.255 255.995 184.271 210.091 185.003 205.608C185.015 205.556 185.014 205.502 184.999 205.45C184.985 205.399 184.958 205.351 184.921 205.312C184.884 205.272 184.838 205.242 184.786 205.224C184.734 205.205 184.679 205.199 184.624 205.206Z" fill="#263238"/>
<path d="M219.348 303.02H123.089V313.348H219.348V303.02Z" fill="#DC2626"/>
<path d="M38.4983 212.419H43.9577L79.2367 251.572H73.7773L38.4983 212.419Z" fill="#A6A6A6"/>
<path d="M107.257 209.313H31.3895V212.41H107.257V209.313Z" fill="#A6A6A6"/>
<path d="M59.0836 212.419H64.543L99.8221 251.572H94.3626L59.0836 212.419Z" fill="#A6A6A6"/>
<path d="M94.1862 284.599C121.598 284.599 137.482 303.071 137.482 324.813C137.482 346.554 122.771 364.607 96.0384 364.607C66.4569 364.607 52.3277 341.78 52.3277 324.616C52.3277 307.452 66.4393 284.599 94.1862 284.599Z" fill="#37474F"/>
<path d="M89.9704 284.599C116.033 284.599 131.123 303.071 131.123 324.813C131.123 346.554 117.144 364.607 91.7167 364.607C63.5905 364.607 50.1756 341.745 50.1756 324.582C50.1756 307.418 63.5905 284.599 89.9704 284.599Z" fill="#263238"/>
<path d="M90.235 300.214C106.111 300.214 115.31 311.474 115.31 324.719C115.31 337.963 106.79 348.958 91.3022 348.958C74.1566 348.958 65.9718 335.046 65.9718 324.582C65.9718 314.117 74.1566 300.214 90.235 300.214Z" fill="#C7C7C7"/>
<path d="M171.783 235.854V232.354L79.5366 235.238V243.11C79.5366 243.11 52.8216 271.73 50.1227 301.48L142.624 303.379L157.486 303.02H175.734V285.035C175.734 285.035 161.94 275.281 164.356 255.354C165.159 248.74 171.783 235.854 171.783 235.854Z" fill="#DC2626"/>
<path d="M134.007 299.213C133.046 300.924 119.014 303.379 92.4135 304.073C68.4678 304.697 50.5813 304.184 49.1966 302.686C47.8119 301.189 51.3398 274.708 67.5505 260.368C83.7613 246.027 106.71 243.965 121.845 252.522C135.154 260.025 145.085 279.097 134.007 299.213Z" fill="#DC2626"/>
<path opacity="0.1" d="M138.523 274.143C137.101 267.872 133.821 262.142 129.086 257.655C124.34 253.042 118.413 249.737 111.914 248.081C104.665 246.326 97.0728 246.405 89.8646 248.312C86.2571 249.23 82.7687 250.541 79.4661 252.222C75.9791 254.04 72.6928 256.199 69.6585 258.665C68.8471 259.315 68.0268 259.965 67.2242 260.633C67.1537 260.684 67.2242 260.778 67.3301 260.727C70.3831 258.123 73.6882 255.81 77.1994 253.822C80.4033 252.047 83.8026 250.626 87.3333 249.587C94.3332 247.463 101.767 247.057 108.968 248.406C115.477 249.675 121.509 252.632 126.422 256.962C131.157 261.098 134.64 266.408 136.495 272.321C138.7 279.525 137.976 287.457 135.78 294.567C135.489 295.525 135.172 296.466 134.845 297.407C134.845 297.51 134.969 297.544 135.004 297.45C137.968 290.066 140.181 282.109 138.523 274.143Z" fill="black"/>
<path d="M74.4035 306.802C58.3427 306.802 49.8405 306.323 45.5276 304.663L47.5297 299.777C52.5746 301.72 68.3708 301.685 93.7893 301.403C112.567 301.189 126.422 299.469 135.066 296.269L136.997 301.181C127.648 304.603 113.537 306.417 93.8511 306.639C86.3807 306.742 79.9423 306.802 74.4035 306.802Z" fill="#DBDBDB"/>
<path d="M173.3 234.656C173.3 234.656 173.917 215.08 173.3 214.31C172.682 213.539 79.2985 211.905 76.5026 212.145C73.7068 212.384 73.4245 235.247 73.6362 236.316C73.8479 237.386 170.865 234.861 173.3 234.656Z" fill="#37474F"/>
<path d="M182.049 214.703C181.775 214.395 169.939 214.07 169.287 214.053C168.634 214.036 168.405 234.905 168.757 234.887C169.11 234.87 181.617 235.041 182.031 234.596C182.446 234.152 182.64 215.371 182.049 214.703Z" fill="#455A64"/>
<path d="M116.641 212.162C116.307 212.5 116.088 212.931 116.015 213.394C115.904 213.882 115.825 214.377 115.777 214.874C115.662 215.867 115.601 216.876 115.548 217.878C115.46 219.897 115.407 221.925 115.371 223.961C115.336 225.997 115.283 228.017 115.371 230.027C115.379 231.023 115.45 232.017 115.583 233.005C115.636 233.482 115.752 233.951 115.927 234.4C115.991 234.601 116.105 234.784 116.259 234.933C116.413 235.082 116.601 235.193 116.809 235.255C116.576 235.249 116.35 235.177 116.158 235.05C115.966 234.923 115.815 234.744 115.724 234.536C115.477 234.089 115.285 233.615 115.151 233.125C114.901 232.121 114.739 231.1 114.666 230.07C114.503 228.021 114.45 225.964 114.507 223.91C114.56 221.865 114.648 219.811 114.886 217.766C115.001 216.743 115.169 215.727 115.389 214.72C115.512 214.222 115.662 213.731 115.839 213.249C115.98 212.829 116.227 212.307 116.641 212.162Z" fill="#455A64"/>
<path d="M34.8998 209.27H123.089V156.085H34.8998V209.27Z" fill="#37474F"/>
<path d="M34.8998 209.27H98.6138V156.085H34.8998L34.8998 209.27Z" fill="#263238"/>
<path d="M70.1877 156.076H63.3347V209.262H70.1877V156.076Z" fill="#DC2626"/>
<path d="M98.6226 151.156H33.1094V156.076H98.6226V151.156Z" fill="#37474F"/>
<path d="M125.064 151.156H98.6138V156.076H125.064V151.156Z" fill="#263238"/>
<path d="M70.7609 151.156H62.7526V156.076H70.7609V151.156Z" fill="#DC2626"/>
<path d="M44.2399 151.379H108.615V112.551H44.2399V151.379Z" fill="#37474F"/>
<path d="M44.2399 151.379H90.7465V112.551H44.2399L44.2399 151.379Z" fill="#263238"/>
<path d="M69.9936 112.56H64.9928V151.388H69.9936V112.56Z" fill="#DC2626"/>
<path d="M90.7465 108.966H42.9258V112.56H90.7465V108.966Z" fill="#37474F"/>
<path d="M110.053 108.966H90.7465V112.56H110.053V108.966Z" fill="#263238"/>
<path d="M70.417 108.966H64.5695V112.56H70.417V108.966Z" fill="#DC2626"/>
<path d="M295.524 284.273C322.944 284.273 338.82 302.746 338.82 324.487C338.82 346.229 324.109 364.257 297.367 364.257C267.777 364.257 253.648 341.429 253.648 324.274C253.648 307.118 267.777 284.273 295.524 284.273Z" fill="#37474F"/>
<path d="M291.308 284.273C317.37 284.273 332.47 302.746 332.47 324.487C332.47 346.229 318.482 364.257 293.063 364.257C264.937 364.257 251.504 341.429 251.504 324.274C251.504 307.118 264.937 284.273 291.308 284.273Z" fill="#263238"/>
<path d="M291.573 299.889C307.448 299.889 316.656 311.149 316.656 324.394C316.656 337.639 308.136 348.633 292.64 348.633C275.503 348.633 267.318 334.721 267.318 324.265C267.318 313.81 275.503 299.889 291.573 299.889Z" fill="#C7C7C7"/>
<path d="M251.169 193.45H240.383L232.992 182.926H245.63L251.169 193.45Z" fill="#DC2626"/>
<path d="M232.992 182.926L237.322 189.086L240.383 193.45H251.169L248.25 187.905L245.622 182.926H232.992Z" fill="#DC2626"/>
<path opacity="0.1" d="M232.992 182.926L237.322 189.086L248.25 187.905L245.622 182.926H232.992Z" fill="black"/>
<path d="M277.382 271.987L266.877 274.331L257.246 265.672L269.558 262.934L277.382 271.987Z" fill="#DC2626"/>
<path d="M257.246 265.672L262.882 270.746L266.868 274.331L277.39 271.987L273.263 267.221L269.558 262.934L257.246 265.672Z" fill="#DC2626"/>
<path opacity="0.1" d="M257.246 265.672L262.882 270.746L273.263 267.221L269.558 262.934L257.246 265.672Z" fill="black"/>
<path d="M336.439 289.407L326.234 294.609C326.234 294.609 296.679 289.407 277.726 293.343C258.772 297.279 253.656 307.101 253.656 307.101H244.078C244.078 307.101 252.298 278.772 266.242 268.487C280.186 258.203 302.597 260.504 314.989 266.981C327.381 273.459 336.439 289.407 336.439 289.407Z" fill="#DC2626"/>
<path opacity="0.1" d="M325.158 292.65C323.181 290.648 321.04 288.805 318.755 287.14C316.491 285.433 314.097 283.894 311.593 282.537C306.741 279.921 301.419 278.225 295.912 277.54C285.134 276.256 273.862 279.302 265.925 287.337C261.462 291.889 258.287 297.476 255.27 303.114C255.226 303.2 255.35 303.268 255.394 303.183C257.949 298.225 261.177 293.621 264.99 289.493C268.664 285.601 273.237 282.61 278.334 280.766C288.503 277.146 299.502 278.532 309.274 282.905C312.072 284.135 314.772 285.565 317.353 287.183C319.991 288.907 322.538 290.76 324.982 292.736C324.998 292.749 325.017 292.758 325.038 292.761C325.06 292.764 325.081 292.761 325.1 292.751C325.119 292.742 325.135 292.727 325.145 292.709C325.156 292.691 325.16 292.671 325.158 292.65Z" fill="black"/>
<path d="M213.015 187.785C212.856 188.145 191.556 191.944 191.556 191.944C191.556 191.944 188.029 189.634 190.207 186.707L211.577 182.233C212.399 182.886 212.982 183.779 213.241 184.779C213.5 185.779 213.42 186.833 213.015 187.785Z" fill="#263238"/>
<path d="M257.722 161.073V185.587C257.722 185.587 244.078 184.432 240.444 184.312C236.811 184.192 220.662 186.22 220.662 186.22L219.409 180.727C219.409 180.727 231.863 176.509 237.155 173.214C242.446 169.92 248.541 163.623 251.813 162.228C253.665 161.407 255.687 161.012 257.722 161.073Z" fill="#DC2626"/>
<path d="M220.715 180.034C221.526 180.843 222.138 181.82 222.504 182.891C222.871 183.962 222.983 185.1 222.831 186.22C222.831 186.22 212.662 188.025 212.539 188.025C212.623 186.864 212.333 185.707 211.709 184.714C211.085 183.72 210.157 182.94 209.055 182.481L220.715 180.034Z" fill="#DBDBDB"/>
<path d="M257.855 185.587C261.547 185.587 264.54 180.101 264.54 173.334C264.54 166.567 261.547 161.082 257.855 161.082C254.162 161.082 251.169 166.567 251.169 173.334C251.169 180.101 254.162 185.587 257.855 185.587Z" fill="#DBDBDB"/>
<path d="M258.269 184.269C261.43 184.269 263.993 179.373 263.993 173.334C263.993 167.295 261.43 162.399 258.269 162.399C255.108 162.399 252.545 167.295 252.545 173.334C252.545 179.373 255.108 184.269 258.269 184.269Z" fill="white"/>
<path d="M260.007 193.484C262.229 196.641 271.128 239.576 272.875 241.732C274.621 243.888 277.964 244.042 277.964 244.042L283.846 258.229C283.846 258.229 269.232 262.703 261.118 269.172C250.631 277.531 240.938 305.245 240.938 305.245C239.351 306.323 219.647 314.186 214.241 314.494C214.241 314.494 239.368 287.73 241.415 250.69C242.208 236.342 233.106 216.132 232.515 206.121C231.863 195.375 235.214 193.484 241.097 193.484H260.007Z" fill="#DC2626"/>
<path d="M213.033 317.549L209.099 313.938C231.148 291.298 239.28 255.628 238.636 245.891C238.301 240.902 236.652 235.324 234.897 229.411C233.027 223.105 230.91 215.961 230.011 208.201C229.173 200.996 230.011 196.342 232.542 193.561C235.073 190.78 238.548 190.789 240.859 190.797H261.85V196.051H240.85C238.83 196.051 237.454 196.119 236.581 197.069C235.708 198.019 234.57 200.491 235.399 207.619C236.281 214.934 238.213 221.557 240.109 227.957C241.944 234.151 243.637 239.995 244.043 245.548C244.731 255.944 236.273 293.788 213.033 317.549Z" fill="#DBDBDB"/>
<path d="M272.98 253.446C274.215 257.861 278.105 260.667 281.668 259.726C285.231 258.785 287.127 254.447 285.884 250.04C284.64 245.634 280.751 242.81 277.188 243.751C273.624 244.693 271.737 249.039 272.98 253.446Z" fill="#DBDBDB"/>
<path d="M274.303 253.095C275.406 257.031 278.775 259.563 281.827 258.759C284.878 257.955 286.448 254.113 285.355 250.203C284.261 246.293 280.883 243.734 277.84 244.539C274.797 245.343 273.201 249.159 274.303 253.095Z" fill="white"/>
<path opacity="0.1" d="M257.378 252.735C256.399 248.295 255.341 243.871 254.424 239.422C253.506 234.973 252.66 230.515 251.945 226.04C251.249 221.873 250.499 217.664 250.225 213.445C249.952 209.039 250.225 204.59 252.43 200.611C252.435 200.603 252.438 200.595 252.439 200.586C252.44 200.577 252.44 200.568 252.437 200.559C252.435 200.55 252.431 200.542 252.425 200.535C252.419 200.528 252.412 200.522 252.404 200.517C252.396 200.513 252.387 200.51 252.378 200.508C252.368 200.507 252.359 200.508 252.35 200.51C252.341 200.513 252.333 200.517 252.325 200.522C252.318 200.528 252.312 200.535 252.307 200.543C250.04 203.751 249.299 207.61 249.176 211.435C249.188 215.651 249.571 219.859 250.322 224.012C251.609 233.132 253.376 242.182 255.614 251.127C256.893 256.184 258.543 261.155 260.306 266.066C260.306 266.082 260.313 266.097 260.325 266.108C260.336 266.119 260.352 266.126 260.368 266.126C260.385 266.126 260.4 266.119 260.412 266.108C260.423 266.097 260.43 266.082 260.43 266.066C259.377 261.6 258.36 257.156 257.378 252.735Z" fill="black"/>
<path opacity="0.1" d="M175.734 285.035V303.003H159.929V289.399C159.929 289.399 151.109 285.078 149.345 269.36C147.757 255.122 159.47 236.119 161.693 232.671L171.756 232.354V235.854C171.756 235.854 165.132 248.74 164.33 255.354C161.94 275.281 175.734 285.035 175.734 285.035Z" fill="black"/>
<path d="M215.484 307.204C213.35 307.871 151.885 305.493 149.583 304.047C149.31 303.884 148.216 292.41 148.216 292.41L155.325 248.355L195.675 248.877L187.887 286.524C187.887 286.524 196.769 290.485 204.107 293.95C208.623 296.081 212.547 298.023 213.447 298.725C215.802 300.573 217.619 306.537 215.484 307.204Z" fill="#F7A9A0"/>
<path d="M215.493 307.204C213.35 307.871 151.885 305.493 149.592 304.047C149.31 303.884 148.207 292.419 148.207 292.419L150.403 278.84L189.113 280.552L187.887 286.472C187.887 286.472 196.769 290.442 204.107 293.899C208.614 296.03 212.547 297.972 213.447 298.674C215.802 300.582 217.619 306.537 215.493 307.204Z" fill="#EBEBEB"/>
<path d="M215.449 307.281C213.28 307.94 151.409 306.537 149.089 305.031C148.207 304.475 147.89 295.722 147.819 285.129V284.795L187.737 285.266V285.925C187.737 285.925 211.172 296.731 213.544 298.648C215.917 300.564 217.628 306.622 215.449 307.281Z" fill="#C7C7C7"/>
<path d="M214.805 304.928C204.389 304.449 162.301 303.448 151.965 303.739C151.876 303.739 151.876 303.799 151.965 303.799C162.284 304.5 204.372 305.168 214.805 305.099C215.026 305.091 215.026 304.937 214.805 304.928Z" fill="#263238"/>
<path d="M191.063 286.105C186.979 285.249 181.943 285.771 178.715 288.535C178.583 288.646 178.715 288.808 178.882 288.774C182.833 287.634 186.899 286.908 191.01 286.609C191.073 286.606 191.133 286.581 191.178 286.539C191.224 286.497 191.253 286.44 191.259 286.379C191.266 286.318 191.249 286.257 191.213 286.206C191.177 286.156 191.124 286.12 191.063 286.105Z" fill="#263238"/>
<path d="M193.982 287.91C189.898 287.054 184.862 287.568 181.634 290.331C181.511 290.442 181.634 290.614 181.802 290.571C185.756 289.43 189.824 288.704 193.938 288.406C193.971 288.409 194.005 288.405 194.037 288.395C194.069 288.385 194.099 288.37 194.125 288.349C194.151 288.327 194.172 288.302 194.188 288.273C194.203 288.244 194.213 288.212 194.216 288.179C194.218 288.147 194.215 288.114 194.205 288.083C194.194 288.052 194.178 288.023 194.156 287.998C194.135 287.973 194.108 287.952 194.078 287.937C194.048 287.922 194.015 287.913 193.982 287.91Z" fill="#263238"/>
<path d="M196.901 289.707C192.818 288.851 187.782 289.364 184.554 292.137C184.43 292.239 184.554 292.41 184.721 292.368C188.673 291.235 192.739 290.512 196.848 290.212C196.911 290.208 196.971 290.183 197.017 290.141C197.063 290.099 197.092 290.042 197.098 289.981C197.104 289.92 197.088 289.859 197.052 289.809C197.016 289.758 196.962 289.722 196.901 289.707Z" fill="#263238"/>
<path d="M191.292 280.834L146.249 278.84C146.249 278.84 161.825 217.518 160.167 215.525C158.403 213.377 99.0107 229.214 85.9662 213.522C72.6131 197.445 85.9662 170.536 85.9662 170.536H131.626C131.626 170.536 131.626 175.464 128.522 182.84C128.522 182.84 180.294 173.539 193.938 180.538C196.628 181.924 206.285 189.659 206.444 196.992C207.238 229.42 191.292 280.834 191.292 280.834Z" fill="#455A64"/>
<path d="M191.724 272.919C186.379 272.269 181.017 271.867 175.646 271.482C170.274 271.097 164.912 270.78 159.532 270.575C156.507 270.464 153.473 270.489 150.439 270.378C150.418 270.378 150.397 270.386 150.383 270.401C150.368 270.415 150.359 270.435 150.359 270.455C150.359 270.476 150.368 270.495 150.383 270.51C150.397 270.524 150.418 270.532 150.439 270.532C153.138 270.72 155.828 271.046 158.526 271.251C161.225 271.456 163.818 271.644 166.517 271.816C171.88 272.166 177.251 272.449 182.622 272.774C185.656 272.954 188.681 273.048 191.715 273.116C191.737 273.111 191.757 273.099 191.772 273.082C191.786 273.064 191.794 273.043 191.795 273.021C191.796 272.999 191.79 272.977 191.777 272.959C191.764 272.94 191.746 272.927 191.724 272.919Z" fill="#263238"/>
<path d="M105.061 174.241C105.001 174.422 104.924 174.596 104.832 174.763C104.822 174.775 104.816 174.79 104.816 174.806C104.816 174.821 104.822 174.836 104.832 174.849C104.303 176.449 104.082 178.143 103.57 179.751C103.085 181.459 102.007 182.952 100.519 183.978C97.3966 186.083 93.6482 187.033 90.0145 187.905C89.9926 187.912 89.9735 187.925 89.9599 187.942C89.9462 187.96 89.9389 187.982 89.9389 188.004C89.9389 188.026 89.9462 188.047 89.9599 188.065C89.9735 188.083 89.9926 188.096 90.0145 188.102C92.1092 188.113 94.1927 187.804 96.1883 187.187C98.0634 186.683 99.8313 185.86 101.41 184.757C102.892 183.668 103.949 182.124 104.408 180.376C104.63 179.447 104.804 178.507 104.929 177.561C105.133 176.473 105.254 175.372 105.29 174.267C105.277 174.25 105.261 174.236 105.242 174.225C105.224 174.215 105.203 174.208 105.181 174.206C105.16 174.204 105.138 174.205 105.117 174.211C105.097 174.218 105.078 174.228 105.061 174.241Z" fill="#263238"/>
<path d="M135.868 180.65C133.385 181.345 130.966 182.241 128.636 183.328L128.522 183.379C128.569 183.24 128.605 183.097 128.627 182.951C128.627 182.78 128.68 182.618 128.716 182.446C128.751 182.275 128.716 182.096 128.769 181.916V181.642C129.069 181.623 129.362 181.544 129.629 181.41C129.896 181.276 130.131 181.09 130.321 180.864C130.808 180.207 131.137 179.453 131.282 178.656C131.556 177.664 131.811 176.654 132.032 175.644C132.252 174.635 132.49 173.394 132.676 172.222C132.9 171.113 133.032 169.989 133.073 168.859C133.073 168.818 133.056 168.779 133.026 168.75C132.996 168.721 132.956 168.705 132.914 168.705C132.872 168.705 132.831 168.721 132.802 168.75C132.772 168.779 132.755 168.818 132.755 168.859C132.482 169.895 132.358 170.964 132.155 172.008C131.952 173.052 131.723 174.104 131.476 175.148C131.229 176.192 130.965 177.236 130.665 178.262C130.365 179.289 130.136 180.513 129.042 180.829C126.784 181.454 127.798 176.551 127.895 175.576C128.125 173.351 128.266 171.075 128.672 168.868C128.672 168.782 128.539 168.739 128.522 168.868C128.028 170.896 127.472 172.889 127.102 174.943C126.916 175.952 126.784 176.97 126.669 177.98C126.486 178.855 126.56 179.762 126.881 180.598C127.021 180.881 127.23 181.126 127.49 181.312C127.749 181.499 128.052 181.621 128.372 181.668L128.301 181.899C128.248 182.061 128.195 182.224 128.151 182.387C128.107 182.549 128.072 182.72 128.036 182.883C127.959 183.076 127.932 183.285 127.957 183.49C127.977 183.548 128.018 183.597 128.072 183.627C127.11 184.029 126.14 184.431 125.188 184.868C123.99 185.324 122.831 185.871 121.722 186.502C121.589 186.562 121.722 186.733 121.819 186.707C123.06 186.369 124.275 185.943 125.452 185.433C126.661 184.988 127.851 184.508 129.051 184.021C131.427 183.174 133.725 182.135 135.921 180.915C135.958 180.908 135.99 180.888 136.01 180.858C136.031 180.828 136.039 180.792 136.032 180.757C136.025 180.721 136.003 180.69 135.973 180.67C135.942 180.65 135.905 180.643 135.868 180.65Z" fill="#263238"/>
<path d="M205.104 191.422C203.541 186.966 200.38 183.204 196.196 180.821C191.9 178.519 186.891 177.903 182.084 177.758C176.492 177.595 170.865 177.877 165.282 178.22C159.338 178.579 153.393 179.127 147.484 179.931C141.575 180.735 135.771 181.719 129.959 182.934C128.566 183.225 127.181 183.584 125.796 183.961C125.69 183.961 125.708 184.183 125.796 184.166C131.573 183.379 137.324 182.455 143.101 181.685C148.878 180.915 154.716 180.307 160.555 179.88C166.394 179.452 172.171 179.212 177.983 179.127C182.745 179.058 187.685 179.127 192.209 180.615C194.446 181.309 196.518 182.429 198.304 183.91C200.057 185.431 201.494 187.263 202.537 189.309C204.918 193.852 205.139 199.063 205.377 204.094C206.065 219.024 194.996 266.468 193.029 274.092C193.024 274.158 193.043 274.224 193.083 274.278C193.123 274.332 193.182 274.37 193.248 274.386C193.314 274.403 193.384 274.396 193.446 274.367C193.508 274.338 193.557 274.289 193.585 274.229C195.799 265.621 206.815 220.804 206.815 207.336C206.823 201.963 207.026 196.487 205.104 191.422Z" fill="#263238"/>
<path d="M166.782 210.357C158.712 210.631 150.686 211.358 142.66 212.179C134.634 213.001 126.546 213.89 118.467 214.438C114.445 214.703 110.415 214.874 106.384 214.9C103.033 215.052 99.6779 214.689 96.4441 213.822C93.1598 212.793 90.3992 210.594 88.718 207.67C86.9534 204.606 85.807 201.243 85.34 197.762C84.2816 190.686 85.34 183.456 86.5836 176.474C86.7424 175.619 86.8923 174.763 87.0511 173.848C87.0511 173.762 86.9364 173.728 86.9188 173.848C85.2342 180.889 83.726 188.136 84.2728 195.409C84.4732 198.963 85.3057 202.457 86.7335 205.736C87.9783 208.84 90.1926 211.487 93.0661 213.309C96.0254 214.845 99.3236 215.664 102.68 215.696C106.564 215.837 110.453 215.777 114.331 215.516C122.604 215.097 130.841 214.207 139.07 213.317C147.299 212.427 155.475 211.555 163.712 211.127C164.594 211.084 165.538 211.041 166.447 211.016C165.203 218.673 154.619 264.552 154.028 268.179C153.967 268.539 154.302 268.65 154.39 268.291C156.154 261.138 166.473 215.242 167.152 210.75C167.164 210.699 167.163 210.646 167.149 210.596C167.135 210.545 167.109 210.499 167.073 210.46C167.036 210.421 166.991 210.392 166.94 210.374C166.89 210.356 166.835 210.35 166.782 210.357Z" fill="#263238"/>
<path d="M83.3468 176.003C83.4702 176.175 143.806 180.675 144.441 180.128C145.323 179.349 139.352 119.379 133.963 110.583C132.808 108.709 128.389 107.725 124.517 107.759C123.509 107.755 122.503 107.838 121.51 108.008H121.413C120.611 108.14 119.839 108.403 119.129 108.786C107.539 115.802 95.1741 143.507 92.0607 151.892C86.9011 165.719 82.8969 175.387 83.3468 176.003Z" fill="#DC2626"/>
<path d="M131.185 118.232C128.186 118.232 123.124 113.535 122.118 109.129C122.048 108.821 123.291 106.194 124.632 102.925C125.443 100.932 126.299 98.7072 126.925 96.6195C127.049 96.1831 139.476 103.61 139.476 103.61C137.923 106.006 136.679 108.578 135.771 111.268C135.69 111.548 135.634 111.834 135.604 112.123C135.607 112.172 135.607 112.22 135.604 112.269C135.366 114.006 134.387 118.275 131.185 118.232Z" fill="#F7A9A0"/>
<path d="M135.604 112.149C135.607 112.197 135.607 112.246 135.604 112.294C135.128 112.227 134.659 112.121 134.202 111.978C126.264 109.565 127.093 99.3146 127.428 96.7563C129.73 97.766 139.502 103.601 139.502 103.601C137.951 105.999 136.704 108.571 135.789 111.259C135.703 111.551 135.641 111.848 135.604 112.149Z" fill="#263238"/>
<path d="M128.028 80.585C125.849 85.1883 126.519 99.4086 129.598 102.934C134.069 108.067 142.36 109.616 147.114 104.192C151.718 98.9295 150.509 80.4396 146.981 77.1112C141.769 72.2171 131.256 73.8 128.028 80.585Z" fill="#F7A9A0"/>
<path d="M140.799 90.7157C140.799 90.7157 140.728 90.767 140.728 90.8098C140.799 91.7596 140.728 92.8719 139.846 93.2227C139.846 93.2227 139.846 93.2826 139.846 93.274C140.931 93.0858 141.019 91.6141 140.799 90.7157Z" fill="#263238"/>
<path d="M139.873 89.7574C138.285 89.6976 138.294 92.7949 139.767 92.8462C141.24 92.8976 141.213 89.8002 139.873 89.7574Z" fill="#263238"/>
<path d="M146.514 90.8696C146.514 90.8696 146.593 90.9124 146.584 90.9552C146.584 91.9049 146.69 93.0087 147.581 93.3252C147.581 93.3252 147.581 93.3851 147.581 93.3766C146.487 93.2311 146.311 91.768 146.514 90.8696Z" fill="#263238"/>
<path d="M147.396 89.8685C148.975 89.7487 149.107 92.8375 147.634 92.9402C146.161 93.0429 146.064 89.9541 147.396 89.8685Z" fill="#263238"/>
<path d="M138.62 88.3456C139.037 88.2248 139.446 88.082 139.846 87.9178C140.302 87.8326 140.716 87.6004 141.019 87.259C141.094 87.1335 141.125 86.9876 141.106 86.8437C141.086 86.6998 141.019 86.5661 140.913 86.4633C140.673 86.2927 140.39 86.1877 140.094 86.1591C139.798 86.1305 139.499 86.1794 139.229 86.3007C138.641 86.4611 138.137 86.8308 137.818 87.336C137.753 87.4548 137.726 87.5891 137.738 87.7228C137.75 87.8565 137.801 87.984 137.885 88.0903C137.97 88.1966 138.084 88.2771 138.214 88.3224C138.344 88.3676 138.485 88.3757 138.62 88.3456Z" fill="#263238"/>
<path d="M148.622 88.3027C148.192 88.2224 147.768 88.1166 147.352 87.9861C146.89 87.941 146.458 87.7449 146.126 87.4299C146.036 87.3154 145.988 87.1757 145.988 87.0321C145.988 86.8884 146.036 86.7487 146.126 86.6342C146.35 86.4428 146.623 86.3132 146.916 86.259C147.209 86.2048 147.512 86.228 147.793 86.3262C148.392 86.4357 148.927 86.7593 149.292 87.2332C149.366 87.3427 149.407 87.4704 149.409 87.6014C149.411 87.7324 149.375 87.8613 149.305 87.9733C149.235 88.0852 149.134 88.1756 149.013 88.2339C148.892 88.2922 148.756 88.3161 148.622 88.3027Z" fill="#263238"/>
<path d="M139.899 99.6056C140.137 99.828 140.375 100.136 140.781 100.17C141.148 100.16 141.508 100.075 141.839 99.9222C141.839 99.9222 141.901 99.9222 141.884 99.9735C141.743 100.162 141.552 100.31 141.331 100.402C141.111 100.494 140.869 100.526 140.631 100.495C140.428 100.445 140.245 100.337 140.107 100.184C139.968 100.031 139.88 99.8417 139.855 99.6398C139.793 99.597 139.864 99.5714 139.899 99.6056Z" fill="#263238"/>
<path d="M140.931 96.7392C141.183 97.1179 141.512 97.4419 141.899 97.6908C142.286 97.9397 142.722 98.108 143.18 98.1852C143.578 98.2581 143.985 98.2753 144.388 98.2365C144.464 98.2454 144.541 98.2454 144.618 98.2365H144.838C144.89 98.2257 144.937 98.1991 144.971 98.1606C145.006 98.1221 145.028 98.0737 145.032 98.0226C145.037 97.9914 145.037 97.9597 145.032 97.9285V97.8429C145.032 97.1071 144.97 95.9862 144.97 95.9862C145.253 96.1231 146.673 96.7392 146.646 96.3541C146.553 93.0306 146.11 89.725 145.323 86.4889C145.323 86.4662 145.314 86.4444 145.297 86.4284C145.281 86.4123 145.258 86.4033 145.235 86.4033C145.212 86.4033 145.189 86.4123 145.173 86.4284C145.156 86.4444 145.147 86.4662 145.147 86.4889C145.217 89.5605 145.835 92.598 145.958 95.6782C145.454 95.4534 144.919 95.2978 144.371 95.2162C144.265 95.2162 144.556 97.3809 144.521 97.7146C143.899 97.7742 143.271 97.7126 142.674 97.5334C142.078 97.3541 141.524 97.0608 141.046 96.6707C140.957 96.6023 140.878 96.6622 140.931 96.7392Z" fill="#263238"/>
<path d="M143.939 97.86C143.524 98.3904 142.974 98.8062 142.342 99.0665C141.996 99.1967 141.618 99.2206 141.257 99.1349C140.472 98.9381 140.446 98.2793 140.587 97.629C140.671 97.3127 140.789 97.0058 140.94 96.7135C141.787 97.3971 142.838 97.7989 143.939 97.86Z" fill="#263238"/>
<path d="M142.342 99.0665C141.996 99.1967 141.618 99.2206 141.257 99.1349C140.472 98.9381 140.446 98.2793 140.587 97.629C141.004 97.6421 141.404 97.7911 141.722 98.0519C142.041 98.3128 142.259 98.6702 142.342 99.0665Z" fill="#FF9BBC"/>
<path d="M149.089 81.8087C148.551 80.5937 147.925 79.3702 147.167 79.1221C146.408 78.874 145.923 80.6708 144.203 80.782C141.892 80.936 140.772 78.874 137.535 78.6515C132.879 78.3435 130.832 82.074 130.727 88.5082C130.63 94.2237 127.066 94.7628 127.066 94.7628C127.066 94.7628 124.905 82.1595 128.566 77.9841C132.226 73.8087 140.631 71.9948 146.276 75.9477C148.331 77.3937 149.089 81.8087 149.089 81.8087Z" fill="#263238"/>
<path d="M130.039 92.5209C130.039 92.5209 127.331 87.6696 125.1 88.5509C122.868 89.4322 124.526 96.2514 126.863 97.3894C127.156 97.5601 127.482 97.6715 127.82 97.717C128.159 97.7624 128.503 97.7409 128.833 97.6537C129.162 97.5666 129.47 97.4156 129.738 97.2099C130.006 97.0042 130.228 96.748 130.391 96.4568L130.039 92.5209Z" fill="#F7A9A0"/>
<path d="M125.629 90.4761V90.536C127.278 91.3916 128.001 93.1028 128.451 94.7542C128.371 94.5749 128.251 94.4147 128.1 94.2846C127.95 94.1545 127.772 94.0576 127.579 94.0007C127.386 93.9438 127.183 93.9281 126.983 93.9548C126.784 93.9815 126.592 94.0498 126.422 94.1552C126.37 94.1552 126.422 94.2579 126.422 94.2494C126.738 94.1907 127.064 94.2273 127.358 94.3543C127.651 94.4813 127.897 94.6925 128.063 94.9595C128.33 95.4129 128.549 95.8917 128.716 96.3884C128.777 96.5424 129.068 96.4996 129.024 96.3199V96.2772C129.324 94.1381 127.966 90.9552 125.629 90.4761Z" fill="#263238"/>
<path d="M148.534 78.0526C147.167 77.736 139.59 77.9584 136.186 79.3788C132.782 80.7991 126.731 85.5478 126.422 85.7959C126.114 86.044 124.553 73.9285 134.687 71.721C145.72 69.3081 148.534 78.0526 148.534 78.0526Z" fill="#DC2626"/>
<path d="M127.005 85.2996C127.005 85.2996 133.699 76.7434 137.421 74.7755C141.143 72.8075 149.477 71.7124 154.637 73.9198C158.65 75.6311 148.842 80.645 148.842 80.645C148.749 80.2345 148.559 79.8506 148.287 79.5238C148.014 79.1971 147.667 78.9364 147.272 78.7626C144.768 77.7958 140.005 78.5402 137.288 79.4215C133.866 80.5423 127.005 85.2996 127.005 85.2996Z" fill="#DC2626"/>
<path opacity="0.2" d="M127.005 85.3424C127.005 85.3424 133.699 76.7349 137.421 74.7755C141.143 72.8162 149.477 71.7124 154.637 73.9199C158.65 75.6311 148.842 80.6451 148.842 80.6451C148.749 80.2345 148.559 79.8506 148.287 79.5239C148.014 79.1971 147.667 78.9365 147.272 78.7627C144.768 77.7959 140.005 78.5402 137.288 79.4215C133.866 80.5424 127.005 85.3424 127.005 85.3424Z" fill="black"/>
<path d="M115.31 124.786C114.745 141.659 121.166 173.257 125.893 175.405C141.151 182.318 166.826 182.755 175.619 182.832C179.412 182.832 185.233 156.667 181.475 155.195C178.979 154.22 141.337 154.211 140.675 152.911C140.014 151.61 131.044 132.821 127.172 122.416C122.03 108.581 115.636 114.878 115.31 124.786Z" fill="#F7A9A0"/>
<path d="M177.436 154.844C177.436 154.844 188.963 155.529 196.469 156.316C200.667 156.752 207.785 158.13 210.704 159.815C215.114 162.382 231.73 175.627 228.502 179.614C225.574 183.217 212.768 170.049 212.768 170.049C212.768 170.049 226.88 182.224 222.558 185.946C218.236 189.668 205.8 172.906 205.8 172.906C205.8 172.906 220.035 185.741 214.929 188.889C211.075 191.259 198.93 176.705 198.93 176.705C198.93 176.705 211.092 187.828 207.229 190.395C202.96 193.279 190.886 180.521 190.886 180.521C179.923 185.552 172.585 183.593 167.531 181.599C166.288 181.154 177.436 154.844 177.436 154.844Z" fill="#F7A9A0"/>
<path d="M208.155 165.531C209.866 166.9 211.613 168.277 213.191 169.809C214.77 171.341 216.305 172.898 217.733 174.549C219.645 176.673 221.302 179.001 222.673 181.488C219.912 177.21 214.338 171.734 212.75 170.22C211.163 168.705 209.672 167.114 208.093 165.599C208.049 165.548 208.111 165.497 208.155 165.531Z" fill="#263238"/>
<path d="M202.414 170.973C204.521 172.812 206.682 174.575 208.711 176.509C210.739 178.442 212.468 180.436 214.347 182.498C214.488 182.652 214.347 182.678 214.197 182.498C212.239 180.521 210.272 178.836 208.296 176.876C206.321 174.917 204.407 172.881 202.361 170.998C202.325 170.99 202.378 170.947 202.414 170.973Z" fill="#263238"/>
<path d="M196.584 174.78C199.892 177.532 202.898 180.609 205.553 183.961C205.686 184.123 205.509 184.141 205.359 183.961C202.44 180.855 200.173 178.399 196.487 174.883C196.46 174.84 196.584 174.729 196.584 174.78Z" fill="#263238"/>
<path d="M209.249 158.463C206.509 157.328 203.6 156.62 200.632 156.367C194.229 155.606 187.79 155.109 181.352 154.656C174.914 154.202 168.378 153.8 161.887 153.569C158.235 153.432 154.584 153.327 150.933 153.253C147.281 153.184 146.523 153.313 142.854 153.355C142.757 153.355 142.765 153.484 142.854 153.492C149.248 153.817 152.776 154.074 159.17 154.399C165.565 154.724 171.941 155.092 178.318 155.52C184.695 155.948 190.965 156.376 197.263 157.06C200.309 157.261 203.329 157.733 206.285 158.472C209.182 159.504 211.868 161.021 214.223 162.955C216.922 165.017 227.038 174.455 227.964 175.678C228.079 175.824 228.123 175.781 228.061 175.593C227.329 173.035 215.167 161.141 209.249 158.463Z" fill="#263238"/>
<path d="M133.522 135.678L114.763 145.997C114.763 145.997 113.969 122.998 115.706 116.17C117.664 108.47 121.281 111.139 125.355 117.539C129.43 123.939 133.522 135.678 133.522 135.678Z" fill="#DC2626"/>
<path opacity="0.1" d="M133.522 135.678L114.763 145.997C114.763 145.997 113.969 122.998 115.706 116.17C117.664 108.47 121.281 111.139 125.355 117.539C129.43 123.939 133.522 135.678 133.522 135.678Z" fill="black"/>
<path d="M130.938 132.735C128.372 133.736 121.087 137.792 119.878 138.451C119.243 138.793 116.756 140.29 116.121 140.632C116.042 140.675 116.121 140.786 116.2 140.744C117.426 140.093 118.714 139.563 119.949 138.921C121.184 138.279 128.769 134.412 130.991 132.821C131 132.812 131.005 132.802 131.006 132.79C131.008 132.779 131.005 132.767 130.999 132.758C130.993 132.748 130.984 132.74 130.973 132.736C130.962 132.732 130.95 132.732 130.938 132.735Z" fill="#263238"/>
<path d="M130.568 127.165C130.277 126.095 129.977 125.034 129.642 123.973C129.827 124.761 130.039 125.548 130.25 126.335C129.571 124.846 128.874 123.374 128.116 121.946H128.072C128.892 124.264 129.836 126.54 130.718 128.842C131.6 131.143 132.482 133.342 133.364 135.593C132.967 135.892 132.579 136.183 132.173 136.448C132.157 136.458 132.145 136.475 132.141 136.493C132.137 136.511 132.14 136.531 132.151 136.547C132.161 136.563 132.178 136.574 132.197 136.578C132.216 136.582 132.236 136.578 132.252 136.568C132.737 136.328 133.223 136.089 133.725 135.875C133.783 135.854 133.831 135.812 133.859 135.758C133.887 135.704 133.892 135.642 133.875 135.584C132.887 132.786 131.794 129.946 130.568 127.165Z" fill="#263238"/>
<g opacity="0.5">
<path d="M340.011 116.983C340.011 117.777 339.768 118.553 339.313 119.213C338.858 119.873 338.211 120.388 337.455 120.691C336.699 120.995 335.867 121.074 335.064 120.918C334.261 120.763 333.524 120.38 332.946 119.818C332.368 119.255 331.975 118.54 331.816 117.761C331.658 116.982 331.741 116.175 332.055 115.441C332.37 114.708 332.901 114.082 333.583 113.642C334.264 113.202 335.065 112.969 335.883 112.97C336.426 112.97 336.963 113.074 337.465 113.276C337.966 113.478 338.421 113.773 338.805 114.146C339.188 114.519 339.492 114.961 339.699 115.448C339.906 115.935 340.012 116.457 340.011 116.983Z" fill="#DC2626"/>
<path d="M335.883 123.785C334.484 123.794 333.114 123.398 331.947 122.649C330.779 121.9 329.868 120.832 329.329 119.579C328.789 118.327 328.646 116.947 328.917 115.615C329.188 114.284 329.86 113.06 330.85 112.1C331.839 111.14 333.101 110.488 334.473 110.225C335.846 109.962 337.268 110.101 338.56 110.625C339.851 111.148 340.952 112.032 341.724 113.164C342.496 114.296 342.903 115.626 342.895 116.983C342.883 118.784 342.141 120.507 340.828 121.78C339.516 123.054 337.739 123.774 335.883 123.785ZM335.883 111.036C334.673 111.036 333.489 111.384 332.482 112.036C331.475 112.687 330.689 113.613 330.224 114.698C329.759 115.782 329.635 116.975 329.868 118.127C330.101 119.28 330.68 120.339 331.533 121.173C332.386 122.006 333.474 122.576 334.66 122.81C335.847 123.044 337.078 122.933 338.198 122.489C339.319 122.045 340.28 121.29 340.958 120.318C341.637 119.345 342.004 118.2 342.013 117.026C342.019 116.241 341.864 115.463 341.559 114.737C341.253 114.011 340.803 113.35 340.233 112.793C339.663 112.236 338.986 111.795 338.239 111.493C337.492 111.192 336.692 111.036 335.883 111.036Z" fill="#DC2626"/>
<path d="M87.0775 78.6087C87.0793 79.4027 86.8382 80.1794 86.3847 80.8404C85.9312 81.5014 85.2858 82.0171 84.5301 82.3221C83.7744 82.6272 82.9425 82.7079 82.1395 82.554C81.3365 82.4001 80.5986 82.0186 80.0193 81.4578C79.4399 80.8969 79.045 80.1819 78.8847 79.4032C78.7244 78.6246 78.8058 77.8173 79.1186 77.0836C79.4314 76.3498 79.9616 75.7226 80.642 75.2813C81.3225 74.8399 82.1226 74.6044 82.941 74.6044C84.0366 74.6044 85.0874 75.026 85.8629 75.7767C86.6383 76.5274 87.0752 77.5459 87.0775 78.6087Z" fill="#DC2626"/>
<path d="M82.941 85.4194C81.5437 85.4278 80.1752 85.0336 79.0091 84.2866C77.843 83.5397 76.9318 82.4736 76.391 81.2237C75.8502 79.9737 75.7041 78.5961 75.9714 77.2655C76.2386 75.9349 76.9071 74.7112 77.8921 73.7497C78.8771 72.7881 80.1343 72.1319 81.5041 71.8643C82.874 71.5967 84.295 71.7297 85.5868 72.2465C86.8787 72.7633 87.9832 73.6406 88.7605 74.7672C89.5378 75.8937 89.9527 77.2188 89.9528 78.5744C89.9528 80.3824 89.2155 82.117 87.9018 83.3995C86.5881 84.6819 84.8047 85.4081 82.941 85.4194ZM82.941 72.6621C81.7163 72.6537 80.5166 72.9988 79.4946 73.6536C78.4725 74.3085 77.6744 75.2435 77.2017 76.3396C76.7289 77.4357 76.603 78.6435 76.8398 79.8093C77.0766 80.9751 77.6655 82.0462 78.5316 82.8864C79.3976 83.7266 80.5017 84.2979 81.7034 84.5276C82.9051 84.7573 84.1501 84.6351 85.28 84.1765C86.4099 83.7179 87.3737 82.9436 88.0487 81.9521C88.7237 80.9607 89.0795 79.7968 89.0708 78.6086C89.0592 77.035 88.4097 75.529 87.2627 74.4162C86.1156 73.3034 84.5632 72.6733 82.941 72.6621Z" fill="#DC2626"/>
<path d="M239.007 138.168H185.559V58.0138H115.027V79.0364H89.5118V78.1807H114.145V57.1582H186.441V137.312H238.125V115.109H298.62V93.4877H336.324V110.609H335.442V94.3434H299.502V115.965H239.007V138.168Z" fill="#DC2626"/>
</g>
<path d="M97.626 36.9058C96.8939 29.787 91.8314 22.694 82.941 22.694C74.0507 22.694 68.997 29.8213 68.265 36.9058C67.1449 47.9005 74.7828 57.8599 82.941 66.9465C91.0993 57.8941 98.7461 47.9347 97.626 36.9058ZM82.941 44.8117C81.3498 44.8117 79.7943 44.3538 78.4713 43.496C77.1484 42.6382 76.1174 41.419 75.5089 39.9926C74.9003 38.5663 74.7416 36.9969 75.0526 35.483C75.3637 33.9691 76.1307 32.5787 77.2565 31.4877C78.3823 30.3968 79.8163 29.6542 81.3772 29.3541C82.9381 29.054 84.5557 29.2097 86.0253 29.8017C87.4949 30.3936 88.7506 31.3951 89.6334 32.6794C90.5162 33.9638 90.9864 35.4733 90.9847 37.017C90.9893 38.0442 90.7846 39.0622 90.3824 40.0124C89.9801 40.9626 89.3882 41.8263 88.6407 42.5539C87.8932 43.2814 87.0049 43.8584 86.0267 44.2518C85.0486 44.6451 83.9999 44.8471 82.941 44.8459V44.8117Z" fill="#DC2626"/>
</svg>
