<svg width="200" height="36" viewBox="0 0 200 36" fill="none" xmlns="http://www.w3.org/2000/svg">
<path d="M12.5 19.6058C13.2084 19.6058 13.8333 19.3618 14.3747 18.8738C14.916 18.3858 15.1867 17.8225 15.1867 17.1839C15.1867 16.5453 14.916 15.9912 14.3747 15.5216C13.8333 15.0521 13.2084 14.8173 12.5 14.8173C11.7916 14.8173 11.1667 15.0521 10.6253 15.5216C10.084 15.9912 9.81333 16.5453 9.81333 17.1839C9.81333 17.8225 10.084 18.3858 10.6253 18.8738C11.1667 19.3618 11.7916 19.6058 12.5 19.6058ZM5.812 9.97115C5.812 10.6098 6.08267 11.1731 6.624 11.6611C7.16533 12.149 7.79022 12.393 8.49867 12.393C9.20711 12.393 9.832 12.149 10.3733 11.6611C10.9147 11.1731 11.1853 10.6098 11.1853 9.97115C11.1853 9.33253 10.9147 8.77845 10.3733 8.30889C9.832 7.83934 9.20711 7.60457 8.49867 7.60457C7.79022 7.60457 7.16533 7.83934 6.624 8.30889C6.08267 8.77845 5.812 9.33253 5.812 9.97115ZM12.5 4C17.292 4 21.292 5.59615 24.5 8.78846L12.5 28L0.5 8.78846C3.708 5.59615 7.708 4 12.5 4Z" fill="#EF4444"/>
<path d="M52.116 11.96C52.116 13.3253 51.796 14.5733 51.156 15.704C50.5373 16.8133 49.588 17.7093 48.308 18.392C47.0493 19.0533 45.5027 19.384 43.668 19.384H40.564V27H34.292V4.44H43.668C45.4813 4.44 47.0173 4.76 48.276 5.4C49.556 6.04 50.516 6.92533 51.156 8.056C51.796 9.18667 52.116 10.488 52.116 11.96ZM43.06 14.392C44.8307 14.392 45.716 13.5813 45.716 11.96C45.716 10.3173 44.8307 9.496 43.06 9.496H40.564V14.392H43.06ZM57.8038 7.384C56.6944 7.384 55.7984 7.08533 55.1158 6.488C54.4544 5.86933 54.1238 5.10133 54.1238 4.184C54.1238 3.24533 54.4544 2.46667 55.1158 1.848C55.7984 1.22933 56.6944 0.919998 57.8038 0.919998C58.8918 0.919998 59.7664 1.22933 60.4278 1.848C61.1104 2.46667 61.4518 3.24533 61.4518 4.184C61.4518 5.10133 61.1104 5.86933 60.4278 6.488C59.7664 7.08533 58.8918 7.384 57.8038 7.384ZM60.9078 9.048V27H54.6358V9.048H60.9078ZM70.4315 21.784H78.0795V27H63.5195V22.04L70.6555 14.264H63.5835V9.048H77.8235V14.008L70.4315 21.784ZM86.6503 21.784H94.2983V27H79.7383V22.04L86.8743 14.264H79.8023V9.048H94.0423V14.008L86.6503 21.784ZM95.893 18.008C95.893 16.152 96.2237 14.5307 96.885 13.144C97.5677 11.7573 98.485 10.6907 99.637 9.944C100.81 9.19733 102.112 8.824 103.541 8.824C104.778 8.824 105.845 9.06933 106.741 9.56C107.637 10.0507 108.33 10.712 108.821 11.544V9.048H115.093V27H108.821V24.504C108.33 25.336 107.626 25.9973 106.709 26.488C105.813 26.9787 104.757 27.224 103.541 27.224C102.112 27.224 100.81 26.8507 99.637 26.104C98.485 25.3573 97.5677 24.2907 96.885 22.904C96.2237 21.496 95.893 19.864 95.893 18.008ZM108.821 18.008C108.821 16.856 108.501 15.9493 107.861 15.288C107.242 14.6267 106.474 14.296 105.557 14.296C104.618 14.296 103.84 14.6267 103.221 15.288C102.602 15.928 102.293 16.8347 102.293 18.008C102.293 19.16 102.602 20.0773 103.221 20.76C103.84 21.4213 104.618 21.752 105.557 21.752C106.474 21.752 107.242 21.4213 107.861 20.76C108.501 20.0987 108.821 19.1813 108.821 18.008Z" fill="#EF4444"/>
<path d="M127.179 27.224C124.555 27.224 122.4 26.6053 120.715 25.368C119.03 24.1093 118.123 22.3173 117.995 19.992H124.683C124.747 20.7813 124.982 21.3573 125.387 21.72C125.792 22.0827 126.315 22.264 126.955 22.264C127.531 22.264 128 22.1253 128.363 21.848C128.747 21.5493 128.939 21.144 128.939 20.632C128.939 19.9707 128.63 19.4587 128.011 19.096C127.392 18.7333 126.39 18.328 125.003 17.88C123.531 17.3893 122.336 16.92 121.419 16.472C120.523 16.0027 119.734 15.3307 119.051 14.456C118.39 13.56 118.059 12.3973 118.059 10.968C118.059 9.51733 118.422 8.28 119.147 7.256C119.872 6.21067 120.875 5.42133 122.155 4.888C123.435 4.35467 124.886 4.088 126.507 4.088C129.131 4.088 131.222 4.70667 132.779 5.944C134.358 7.16 135.2 8.87733 135.307 11.096H128.491C128.47 10.4133 128.256 9.90133 127.851 9.56C127.467 9.21867 126.966 9.048 126.347 9.048C125.878 9.048 125.494 9.18667 125.195 9.464C124.896 9.74133 124.747 10.136 124.747 10.648C124.747 11.0747 124.907 11.448 125.227 11.768C125.568 12.0667 125.984 12.3333 126.475 12.568C126.966 12.7813 127.691 13.0587 128.651 13.4C130.08 13.8907 131.254 14.3813 132.171 14.872C133.11 15.3413 133.91 16.0133 134.571 16.888C135.254 17.7413 135.595 18.8293 135.595 20.152C135.595 21.496 135.254 22.7013 134.571 23.768C133.91 24.8347 132.939 25.6773 131.659 26.296C130.4 26.9147 128.907 27.224 127.179 27.224ZM150.319 8.888C152.367 8.888 153.988 9.58133 155.183 10.968C156.399 12.3333 157.007 14.1893 157.007 16.536V27H150.735V17.368C150.735 16.344 150.468 15.544 149.935 14.968C149.401 14.3707 148.687 14.072 147.791 14.072C146.852 14.072 146.116 14.3707 145.583 14.968C145.049 15.544 144.783 16.344 144.783 17.368V27H138.511V3.32H144.783V11.608C145.337 10.7973 146.084 10.1467 147.023 9.656C147.983 9.144 149.081 8.888 150.319 8.888ZM168.8 27.224C167.008 27.224 165.398 26.8507 163.968 26.104C162.56 25.3573 161.451 24.2907 160.64 22.904C159.83 21.5173 159.424 19.8853 159.424 18.008C159.424 16.152 159.83 14.5307 160.64 13.144C161.472 11.7573 162.592 10.6907 164 9.944C165.43 9.19733 167.04 8.824 168.832 8.824C170.624 8.824 172.224 9.19733 173.632 9.944C175.062 10.6907 176.182 11.7573 176.992 13.144C177.824 14.5307 178.24 16.152 178.24 18.008C178.24 19.864 177.824 21.496 176.992 22.904C176.182 24.2907 175.062 25.3573 173.632 26.104C172.203 26.8507 170.592 27.224 168.8 27.224ZM168.8 21.784C169.675 21.784 170.4 21.464 170.976 20.824C171.574 20.1627 171.872 19.224 171.872 18.008C171.872 16.792 171.574 15.864 170.976 15.224C170.4 14.584 169.686 14.264 168.832 14.264C167.979 14.264 167.264 14.584 166.688 15.224C166.112 15.864 165.824 16.792 165.824 18.008C165.824 19.2453 166.102 20.184 166.656 20.824C167.211 21.464 167.926 21.784 168.8 21.784ZM187.064 11.544C187.555 10.712 188.248 10.0507 189.144 9.56C190.04 9.06933 191.096 8.824 192.312 8.824C193.741 8.824 195.032 9.19733 196.184 9.944C197.357 10.6907 198.275 11.7573 198.936 13.144C199.619 14.5307 199.96 16.152 199.96 18.008C199.96 19.864 199.619 21.496 198.936 22.904C198.275 24.2907 197.357 25.3573 196.184 26.104C195.032 26.8507 193.741 27.224 192.312 27.224C191.096 27.224 190.04 26.9787 189.144 26.488C188.269 25.9973 187.576 25.336 187.064 24.504V35.576H180.792V9.048H187.064V11.544ZM193.592 18.008C193.592 16.8347 193.272 15.928 192.632 15.288C192.013 14.6267 191.245 14.296 190.328 14.296C189.411 14.296 188.632 14.6267 187.992 15.288C187.373 15.9493 187.064 16.856 187.064 18.008C187.064 19.1813 187.373 20.0987 187.992 20.76C188.632 21.4213 189.411 21.752 190.328 21.752C191.245 21.752 192.013 21.4213 192.632 20.76C193.272 20.0773 193.592 19.16 193.592 18.008Z" fill="#403937"/>
</svg>
