<svg width="400" height="401" viewBox="0 0 400 401" fill="none" xmlns="http://www.w3.org/2000/svg">
<path d="M15.3286 198.626L61.4965 198.392L107.664 198.317L200 198.158L292.336 198.308L338.504 198.392L384.672 198.626L338.504 198.85L292.336 198.934L200 199.084L107.664 198.934L61.4965 198.85L15.3286 198.626Z" fill="#EBEBEB"/>
<path d="M15.3286 166.318L61.4965 166.094L107.664 166.01L200 165.851L292.336 166.01L338.504 166.094L384.672 166.318L338.504 166.552L292.336 166.627L200 166.786L107.664 166.627L61.4965 166.552L15.3286 166.318Z" fill="#EBEBEB"/>
<path d="M15.3286 134.02L61.4965 133.796L107.664 133.712L200 133.553L292.336 133.712L338.504 133.787L384.672 134.02L338.504 134.245L292.336 134.329L200 134.488L107.664 134.329L61.4965 134.245L15.3286 134.02Z" fill="#EBEBEB"/>
<path d="M15.3286 101.722L61.4965 101.488L107.664 101.404L200 101.255L292.336 101.404L338.504 101.488L384.672 101.722L338.504 101.947L292.336 102.031L200 102.18L107.664 102.031L61.4965 101.947L15.3286 101.722Z" fill="#EBEBEB"/>
<path d="M15.3286 69.4152L61.4965 69.1908L107.664 69.1067L200 68.9478L292.336 69.1067L338.504 69.1908L384.672 69.4152L338.504 69.6489L292.336 69.7236L200 69.8826L107.664 69.7236L61.4965 69.6395L15.3286 69.4152Z" fill="#EBEBEB"/>
<path d="M15.3286 37.1169L61.4965 36.8926L107.664 36.8085L200 36.6495L292.336 36.8085L338.504 36.8832L384.672 37.1169L338.504 37.3413L292.336 37.4254L200 37.5844L107.664 37.4254L61.4965 37.3413L15.3286 37.1169Z" fill="#EBEBEB"/>
<path d="M15.3286 230.952L61.4965 230.727L107.664 230.643L200 230.484L292.336 230.643L338.504 230.727L384.672 230.952L338.504 231.185L292.336 231.26L200 231.419L107.664 231.26L61.4965 231.176L15.3286 230.952Z" fill="#EBEBEB"/>
<path d="M15.3286 263.278L61.4965 263.054L107.664 262.969L200 262.82L292.336 262.969L338.504 263.054L384.672 263.278L338.504 263.512L292.336 263.596L200 263.745L107.664 263.596L61.4965 263.512L15.3286 263.278Z" fill="#EBEBEB"/>
<path d="M15.3286 295.613L61.4965 295.389L107.664 295.305L200 295.146L292.336 295.305L338.504 295.38L384.672 295.613L338.504 295.838L292.336 295.922L200 296.081L107.664 295.922L61.4965 295.838L15.3286 295.613Z" fill="#EBEBEB"/>
<path d="M15.3286 327.939L61.4965 327.715L107.664 327.631L200 327.472L292.336 327.631L338.504 327.715L384.672 327.939L338.504 328.173L292.336 328.257L200 328.407L107.664 328.248L61.4965 328.173L15.3286 327.939Z" fill="#EBEBEB"/>
<path d="M384.663 230.484H15.3286V262.81H384.663V230.484Z" fill="#DBDBDB"/>
<path d="M231.533 1.77136L231.761 39.2296L231.843 67.3396L231.989 246.021L231.843 302.25L231.761 330.36L231.533 358.471L231.314 330.36L231.232 302.25L231.077 246.021L231.232 67.3396L231.314 39.2296L231.533 1.77136Z" fill="#EBEBEB"/>
<path d="M200 1.77136L200.219 39.2296L200.301 67.3396L200.456 246.021L200.301 302.25L200.228 330.36L200 358.471L199.772 330.36L199.699 302.25L199.544 246.021L199.699 67.3396L199.781 39.2296L200 1.77136Z" fill="#EBEBEB"/>
<path d="M168.468 1.77136L168.687 39.2296L168.769 67.3396L168.915 246.021L168.769 302.25L168.687 330.36L168.468 358.471L168.24 330.36L168.158 302.25L168.012 246.021L168.158 67.3396L168.24 39.2296L168.468 1.77136Z" fill="#EBEBEB"/>
<path d="M136.926 1.77136L137.145 39.2296L137.227 67.3396L137.382 246.021L137.227 302.25L137.154 330.36L136.926 358.471L136.708 330.36L136.625 302.25L136.47 246.021L136.625 67.3396L136.708 39.2296L136.926 1.77136Z" fill="#EBEBEB"/>
<path d="M326.148 1.77136L326.367 39.2296L326.449 67.3396L326.604 246.021L326.449 302.25L326.367 330.36L326.148 358.471L325.92 330.36L325.838 302.25L325.692 246.021L325.847 67.3396L325.92 39.2296L326.148 1.77136Z" fill="#EBEBEB"/>
<path d="M294.606 1.77136L294.834 39.2296L294.907 67.3396L295.062 246.021L294.907 302.25L294.834 330.36L294.606 358.471L294.387 330.36L294.305 302.25L294.15 246.021L294.305 67.3396L294.387 39.2296L294.606 1.77136Z" fill="#EBEBEB"/>
<path d="M263.074 1.77136L263.293 39.2296L263.375 67.3396L263.53 246.021L263.375 302.25L263.293 330.36L263.074 358.471L262.846 330.36L262.773 302.25L262.618 246.021L262.773 67.3396L262.855 39.2296L263.074 1.77136Z" fill="#EBEBEB"/>
<path d="M357.68 1.77136L357.899 39.2296L357.981 67.3396L358.136 246.021L357.981 302.25L357.908 330.36L357.68 358.471L357.461 330.36L357.379 302.25L357.224 246.021L357.379 67.3396L357.461 39.2296L357.68 1.77136Z" fill="#EBEBEB"/>
<path d="M326.148 1.77136L326.367 39.2296L326.449 67.3396L326.604 246.021L326.449 302.25L326.367 330.36L326.148 358.471L325.92 330.36L325.838 302.25L325.692 246.021L325.847 67.3396L325.92 39.2296L326.148 1.77136Z" fill="#EBEBEB"/>
<path d="M105.394 1.77136L105.613 39.2296L105.695 67.3396L105.85 246.021L105.695 302.25L105.613 330.36L105.394 358.471L105.166 330.36L105.084 302.25L104.938 246.021L105.093 67.3396L105.166 39.2296L105.394 1.77136Z" fill="#EBEBEB"/>
<path d="M73.8522 1.77136L74.0801 39.2296L74.1531 67.3396L74.3081 246.021L74.1622 302.25L74.0801 330.36L73.8522 358.471L73.6333 330.36L73.5513 302.25L73.3962 246.021L73.5513 67.3396L73.6333 39.2296L73.8522 1.77136Z" fill="#EBEBEB"/>
<path d="M42.3199 1.77136L42.5388 39.2296L42.6209 67.3396L42.7759 246.021L42.6209 302.25L42.5388 330.36L42.3199 358.471L42.092 330.36L42.019 302.25L41.864 246.021L42.019 67.3396L42.092 39.2296L42.3199 1.77136Z" fill="#EBEBEB"/>
<path d="M167.757 22.5338H21.8577V34.0414H167.757V22.5338Z" fill="#EBEBEB"/>
<path d="M149.948 140.527C148.637 140.46 147.353 140.115 146.179 139.513C145.005 138.911 143.965 138.066 143.127 137.03C139.197 132.637 137.109 124.971 137.656 117.016C138.039 111.641 140.482 104.732 142.844 98.0578C145.206 91.3832 147.495 84.8956 147.549 80.4645L148.206 28.1146H151.334V29.3392H149.401L148.762 80.4645C148.708 85.1386 146.41 91.5889 143.984 98.4598C141.65 105.06 139.233 111.874 138.868 117.091C138.321 124.719 140.291 132.048 144.011 136.18C144.739 137.093 145.645 137.84 146.67 138.375C147.695 138.909 148.818 139.218 149.966 139.283L149.948 140.527Z" fill="#EBEBEB"/>
<path d="M152.719 140.05C151.843 140.375 150.916 140.536 149.984 140.527V139.302C151.132 139.264 152.261 138.983 153.298 138.476C154.336 137.97 155.259 137.248 156.011 136.357C159.832 132.3 161.984 125.046 161.628 117.409C161.382 112.183 159.139 105.303 156.978 98.6468C154.716 91.7105 152.583 85.1667 152.647 80.53L153.258 29.4421H151.333V28.2175H154.452L153.805 80.5674C153.75 84.9985 155.847 91.4487 158.072 98.2729C160.297 105.097 162.531 111.977 162.787 117.371C163.151 125.327 160.872 132.936 156.832 137.227C155.694 138.483 154.286 139.449 152.719 140.05Z" fill="#EBEBEB"/>
<path d="M149.948 140.527C149.303 140.49 148.673 140.316 148.097 140.016C147.521 139.717 147.012 139.299 146.601 138.788C143.273 135.142 141.349 126.42 141.823 117.091C142.096 111.734 143.719 104.835 145.288 98.1608C146.856 91.4862 148.388 84.9425 148.452 80.474L149.099 28.1241H151.352V29.3488H150.303L149.665 80.474C149.601 85.0734 148.078 91.561 146.464 98.4226C144.914 105.05 143.309 111.893 143.036 117.119C142.589 126.009 144.422 134.563 147.495 137.928C147.799 138.313 148.177 138.632 148.605 138.863C149.033 139.094 149.502 139.234 149.984 139.274L149.948 140.527Z" fill="#EBEBEB"/>
<path d="M151.27 140.302C150.846 140.459 150.398 140.535 149.948 140.527H149.355L150.759 28.1521H153.604L152.948 80.502C152.893 84.9611 154.243 91.4207 155.683 98.2636C157.124 105.106 158.537 111.921 158.674 117.278C158.92 126.626 156.778 135.292 153.358 138.853C152.78 139.494 152.065 139.99 151.27 140.302ZM150.559 139.237C151.299 139.026 151.966 138.605 152.483 138.021C155.638 134.74 157.689 126.233 157.452 117.343C157.316 112.09 155.884 105.191 154.489 98.544C153.048 91.6451 151.689 85.12 151.753 80.5207L152.391 29.3954H151.936L150.559 139.237Z" fill="#EBEBEB"/>
<path d="M146.246 25.7028L145.735 67.0312L155.993 67.1621L156.513 25.6L146.246 25.7028Z" fill="#A6A6A6"/>
<path d="M96.9769 55.1963H92.6455V111.323H96.9769V55.1963Z" fill="#EBEBEB"/>
<path d="M106.534 108.902H83.0803L81.8857 142.443H107.737L106.534 108.902ZM89.8919 138.508H87.4573V113.669H89.8919V138.508ZM96.0197 138.508H93.5941V113.669H96.0471L96.0197 138.508ZM102.147 138.508H99.6945V113.669H102.12L102.147 138.508Z" fill="#EBEBEB"/>
<path d="M90.4119 25.7028L89.8921 67.0312L100.16 67.1621L100.67 25.6L90.4119 25.7028Z" fill="#A6A6A6"/>
<path d="M40.6787 81.5862V54.6821H33.8579V136.75H66.7581V81.5956L40.6787 81.5862ZM60.1471 91.2523C59.7582 91.2522 59.378 91.1336 59.0551 90.9115C58.7321 90.6894 58.4809 90.3738 58.3333 90.0049C58.1858 89.636 58.1486 89.2305 58.2265 88.8399C58.3044 88.4493 58.4938 88.0912 58.7707 87.8113C59.0477 87.5313 59.3995 87.3422 59.7816 87.2678C60.1637 87.1935 60.5587 87.2373 60.9165 87.3937C61.2742 87.5501 61.5785 87.8121 61.7906 88.1463C62.0027 88.4805 62.113 88.8718 62.1076 89.2705C62.1028 89.7994 61.8938 90.3049 61.5264 90.6763C61.159 91.0477 60.663 91.2548 60.1471 91.2523Z" fill="#EBEBEB"/>
<path d="M32.9094 25.7028L32.3896 67.0312L42.6573 67.1621L43.177 25.6L32.9094 25.7028Z" fill="#A6A6A6"/>
<path d="M325.792 0.5H258.916V202.038H325.792V0.5Z" fill="#37474F"/>
<path d="M399.945 358.498H184.744C184.744 234.626 207.541 174.984 292.345 174.984C377.149 174.984 399.945 234.626 399.945 358.498Z" fill="#455A64"/>
<path d="M375.207 266.765L292.609 267.316L251.065 267.541L209.475 267.634H208.444L208.645 266.587C210.531 256.247 213.499 246.145 217.499 236.458C221.504 226.68 227.447 217.862 234.952 210.563C242.649 203.445 251.869 198.28 261.87 195.485C271.782 192.577 282.105 191.615 292.327 191.596C302.596 191.491 312.829 192.86 322.729 195.662C332.671 198.508 341.823 203.708 349.446 210.844C356.987 218.033 362.559 227.119 366.598 236.71C370.529 246.377 373.415 256.455 375.207 266.765ZM375.207 266.765C373.199 256.523 370.143 246.528 366.088 236.944C362.051 227.378 356.156 218.755 348.762 211.601C341.204 204.661 332.162 199.637 322.364 196.934C312.625 194.129 302.439 193.194 292.272 193.194C282.105 193.194 271.974 194.251 262.281 197.121C252.544 199.874 243.573 204.934 236.092 211.891C228.697 218.902 223.171 227.783 219.086 237.215C215.109 246.771 212.147 256.737 210.25 266.942L209.42 265.905L250.682 265.989L292.017 266.213L375.207 266.765Z" fill="#37474F"/>
<path d="M292.363 193.325C292.71 199.408 292.944 205.497 293.065 211.592C293.211 217.687 293.257 223.744 293.275 229.867C293.293 235.99 293.22 242.02 293.074 248.134C292.929 254.248 292.71 260.286 292.363 266.41C292.004 260.314 291.767 254.223 291.652 248.134C291.506 242.048 291.46 235.981 291.451 229.867C291.442 223.754 291.506 217.715 291.652 211.592C291.798 205.469 292.008 199.411 292.363 193.325Z" fill="#37474F"/>
<path d="M282.707 227.1H276.652V250.49H282.707V227.1Z" fill="#37474F"/>
<path d="M308.057 227.1H302.002V250.49H308.057V227.1Z" fill="#37474F"/>
<path d="M334.911 284.592H249.797V289.154H334.911V284.592Z" fill="#37474F"/>
<path d="M334.911 292.267H249.797V296.829H334.911V292.267Z" fill="#37474F"/>
<path d="M334.911 299.932H249.797V304.494H334.911V299.932Z" fill="#37474F"/>
<path d="M334.911 307.598H249.797V312.16H334.911V307.598Z" fill="#37474F"/>
<path d="M334.911 315.272H249.797V319.834H334.911V315.272Z" fill="#37474F"/>
<path d="M334.911 322.938H249.797V327.5H334.911V322.938Z" fill="#37474F"/>
<path d="M304.655 315.273H290.831C289.345 316.479 286.518 318.386 284.941 319.825H304.573C304.701 319.414 304.819 319.077 304.901 318.844C305.044 317.648 304.961 316.436 304.655 315.273ZM311.749 315.273H308.585C308.111 316.544 307.354 318.292 306.762 319.825H311.321C311.598 318.324 311.742 316.8 311.749 315.273ZM308.403 307.598H307.774C308.216 309.099 308.584 310.621 308.877 312.16H310.701C310.062 310.673 309.16 308.953 308.403 307.598ZM311.768 319.348C311.768 319.348 311.768 319.526 311.768 319.825H312.132C311.923 319.526 311.768 319.348 311.768 319.348ZM315.014 324.359C314.872 323.855 314.656 323.376 314.376 322.938H311.859C311.87 323.188 311.839 323.438 311.768 323.677C311.512 324.144 310.683 325.042 310.482 324.883C310.498 324.227 310.584 323.575 310.737 322.938H305.932C305.987 324.486 306.241 326.02 306.689 327.5H314.549C314.907 326.495 315.065 325.427 315.014 324.359ZM269.84 315.273C269.629 315.783 269.509 316.327 269.484 316.881C269.53 317.554 269.703 318.619 269.922 319.825H279.196C279.567 318.277 280.039 316.756 280.609 315.273H269.84ZM278.047 307.598H273.387C272.603 309.122 271.791 310.72 271.117 312.16H279.925C279.396 310.729 278.63 308.953 278.083 307.598H278.047ZM274.956 292.267L274.782 292.089L274.846 292.267C275.065 292.874 275.758 294.856 276.278 296.819H278.776C277.509 294.996 275.576 292.912 274.992 292.267H274.956ZM276.834 299.932C276.858 300.246 276.83 300.562 276.752 300.867C276.235 302.097 275.651 303.295 275.001 304.457H277.655C278.302 303.185 279.761 301.129 280.144 299.895L276.834 299.932ZM303.561 327.117C303.041 326.547 303.269 324.742 303.689 322.938H270.515C270.849 324.443 271.098 325.966 271.263 327.5H276.05C276.396 326.201 276.734 325.172 276.734 325.172C277.212 325.888 277.584 326.673 277.837 327.5H304.026C303.871 327.388 303.727 327.259 303.597 327.117H303.561ZM304.619 315.273H282.98L281.776 316.011C280.545 316.787 279.77 318.75 279.424 319.825H304.619C304.746 319.414 304.865 319.077 304.947 318.844C305.075 317.645 304.976 316.433 304.655 315.273H304.619ZM292.418 295.772C291.944 295.193 291.971 293.622 292.099 292.267H291.105C290.366 293.557 289.436 295.239 288.661 296.819H293.612C293.177 296.518 292.776 296.166 292.418 295.772ZM287.311 299.932C287.204 300.235 287.127 300.548 287.083 300.867C287.007 302.122 287.296 303.371 287.913 304.457H294.296C294.67 303.26 296.412 300.998 296.749 299.895L287.311 299.932ZM302.695 308.533C302.158 308.092 301.537 307.773 300.871 307.598H288.324C287.881 309.156 287.333 310.68 286.682 312.16H303.953C303.68 310.902 303.258 309.684 302.695 308.533Z" fill="#EF4444"/>
<path d="M280.181 292.267C280.354 292.93 280.509 293.473 280.527 293.557C279.996 293.157 279.487 292.726 279.004 292.267H280.181Z" fill="#EF4444"/>
<path d="M281.357 284.592C280.91 286.209 279.925 288.041 279.642 289.154H276.907C276.907 289.154 276.907 289.088 276.907 289.051C276.843 287.957 277.545 286.246 278.138 284.592H281.357Z" fill="#EF4444"/>
<path d="M302.659 302.11C302.412 302.998 302.13 303.877 301.911 304.494H301.346C301.066 303.628 300.912 302.724 300.89 301.811C301.044 301.122 301.356 300.481 301.802 299.942H302.467C302.804 300.611 302.872 301.389 302.659 302.11Z" fill="#EF4444"/>
<path d="M311.431 299.932C311.239 301.297 310.683 303.531 310.437 304.494H310.026C309.244 303.072 308.684 301.532 308.367 299.932H311.431Z" fill="#EF4444"/>
<path d="M310.756 294.118C310.81 295.027 310.935 295.93 311.13 296.819H308.512C308.784 295.521 309.22 294.264 309.807 293.08C309.992 292.779 310.231 292.516 310.509 292.304H311.476C311.129 292.858 310.885 293.473 310.756 294.118Z" fill="#EF4444"/>
<path d="M294.415 292.267H294.588L294.378 292.426C294.378 292.426 294.388 292.369 294.415 292.267Z" fill="#EF4444"/>
<path d="M299.986 284.592C300.006 285.291 299.888 285.987 299.64 286.639C299.179 287.553 298.599 288.399 297.916 289.154H294.925C295.125 288.145 295.174 287.111 295.071 286.087C294.725 284.825 291.032 286.087 290.111 286.854C289.374 287.561 288.697 288.33 288.086 289.154H286.855C285.955 287.792 285.391 286.226 285.214 284.592H299.986Z" fill="#EF4444"/>
<path d="M283.737 302.232C283.482 302.933 283.235 303.83 283.071 304.494H280.244C280.828 303.036 282.524 301.138 282.633 300.502C282.656 300.313 282.656 300.122 282.633 299.932H283.454C283.766 300.654 283.864 301.453 283.737 302.232Z" fill="#EF4444"/>
<path d="M280.874 307.598H284.667C283.908 308.588 283.086 309.525 282.205 310.402C282.232 309.97 282.232 309.536 282.205 309.103C282.205 308.626 281.877 308.897 281.293 308.168C281.141 307.987 281.001 307.797 280.874 307.598Z" fill="#EF4444"/>
<path d="M285.269 304.494H283.819C283.88 304.418 283.929 304.333 283.965 304.242C284.118 303.788 284.249 303.326 284.357 302.858C284.731 303.359 285.038 303.909 285.269 304.494Z" fill="#EF4444"/>
<g opacity="0.4">
<path d="M291.643 312.159C291.357 311.069 291.004 309.998 290.585 308.953C291.783 309.955 292.924 311.025 294.004 312.159H291.643Z" fill="white"/>
<path d="M295.81 319.825H284.94C286.518 318.386 289.345 316.479 290.831 315.273H296.357C296.416 315.393 296.465 315.518 296.503 315.647C296.849 316.759 296.403 318.348 295.81 319.825Z" fill="white"/>
<path d="M298.482 319.825H296.896C297.439 318.652 298.18 317.585 299.084 316.675C298.549 317.627 298.337 318.736 298.482 319.825Z" fill="white"/>
<path d="M301.345 326.182C301.251 326.633 301.117 327.074 300.944 327.5H283.482C283.646 326.63 283.527 324.592 283.609 322.938H294.451C294.339 323.166 294.268 323.413 294.242 323.667C294.242 324.527 296.065 327.098 296.065 327.098C296.824 326.102 297.312 324.919 297.479 323.667C297.498 323.424 297.498 323.181 297.479 322.938H300.442C301.101 323.879 301.421 325.026 301.345 326.182Z" fill="white"/>
<path d="M289.481 284.592H291.916C291.247 284.995 290.621 285.468 290.047 286.004C290.01 285.919 289.746 285.33 289.481 284.592Z" fill="white"/>
<path d="M297.159 284.592C296.856 285.308 296.454 285.975 295.965 286.574C295.808 285.873 295.54 285.203 295.172 284.592H297.159Z" fill="white"/>
<path d="M279.588 284.592C279.36 285.779 278.813 288.499 278.676 289.144H277.673C277.669 289.091 277.669 289.038 277.673 288.985C277.673 287.985 278.84 285.657 279.406 284.582L279.588 284.592Z" fill="white"/>
<path d="M311.494 326.07C311.494 326.07 311.303 326.724 311.12 327.5H310.336C310.956 326.715 311.494 326.07 311.494 326.07Z" fill="white"/>
<path d="M272.758 322.975H275.995C275.083 324.845 274.026 326.64 274.026 326.64C274.026 326.64 273.387 324.91 272.758 322.975Z" fill="white"/>
<path d="M274.773 312.16H273.25C274.162 309.991 274.974 308.018 274.974 308.018C274.974 308.018 274.901 310.178 274.773 312.16Z" fill="white"/>
<path d="M277.171 319.825H271.855C271.614 319.01 271.5 318.162 271.518 317.31C271.647 316.615 271.837 315.934 272.083 315.273H274.491C274.226 316.263 274.983 319.255 274.983 319.255C275.435 318.301 275.825 317.317 276.15 316.31C276.199 315.966 276.199 315.617 276.15 315.273H276.524C277.005 316.738 277.225 318.28 277.171 319.825Z" fill="white"/>
</g>
<path d="M353.577 206.263H347.449V358.527H353.577V206.263Z" fill="#EF4444"/>
<path d="M387.945 200.654C387.945 206.824 384.489 210.741 377.869 211.648C368.668 212.928 350.513 212.928 350.513 212.928C350.513 212.928 332.367 212.928 323.157 211.648C316.537 210.713 313.081 206.824 313.081 200.654C313.081 197.85 317.987 133.908 317.987 133.908H383.039C383.039 133.908 387.945 197.84 387.945 200.654Z" fill="#EF4444"/>
<g opacity="0.1">
<path d="M387.945 200.654C387.945 206.824 384.489 210.741 377.869 211.648C371.003 212.583 359.158 212.844 353.586 212.91V358.499H347.449V212.9C341.878 212.844 330.033 212.601 323.166 211.648C316.546 210.713 313.09 206.824 313.09 200.654C313.09 197.85 317.987 133.908 317.987 133.908H383.049C383.049 133.908 387.945 197.84 387.945 200.654Z" fill="black"/>
</g>
<path d="M164.793 299.072C164.793 299.072 164.793 299.072 164.793 299.175C164.793 299.278 164.793 299.175 164.793 299.25C164.793 299.325 164.793 299.371 164.793 299.455V299.586C164.818 299.681 164.836 299.778 164.847 299.876C164.844 299.945 164.844 300.013 164.847 300.082C164.847 300.231 164.847 300.39 164.929 300.577C165.012 300.764 165.039 301.176 165.103 301.512L165.422 303.326C165.458 303.519 165.495 303.725 165.531 303.943C165.586 304.223 165.632 304.522 165.695 304.821C165.759 305.12 165.814 305.504 165.878 305.868C165.923 306.121 165.978 306.382 166.024 306.644C166.161 307.439 166.306 308.29 166.471 309.196C166.476 309.218 166.476 309.24 166.471 309.262C166.644 310.271 166.835 311.356 167.036 312.487C167.091 312.786 167.145 313.085 167.209 313.422L167.373 314.357C167.373 314.553 167.437 314.749 167.483 314.955C167.756 316.544 168.057 318.208 168.395 319.975C168.495 320.573 168.604 321.171 168.705 321.779C168.923 322.976 169.133 324.191 169.361 325.443C169.416 325.733 169.471 326.023 169.516 326.322C169.838 328.142 170.173 330.033 170.519 331.997C170.519 332.193 170.592 332.399 170.629 332.595C170.793 333.53 170.966 334.464 171.121 335.399C171.125 335.474 171.125 335.549 171.121 335.624C171.203 336.063 171.276 336.558 171.358 336.97C171.677 338.783 172.006 340.644 172.343 342.532C172.434 342.999 172.516 343.467 172.598 343.962C172.762 344.897 172.936 345.879 173.109 346.851C173.328 348.066 173.547 349.281 173.766 350.525C173.984 351.768 174.194 353.002 174.422 354.264C174.541 354.89 174.65 355.526 174.759 356.134C174.869 356.741 175.033 357.648 175.161 358.415H237.697C229.973 325.518 223.462 299.016 223.462 299.016L164.793 299.072Z" fill="#37474F"/>
<path d="M174.258 306.476C177.395 323.807 180.562 341.139 183.76 358.47H184.626C181.307 341.102 177.878 323.761 174.468 306.41C174.468 306.27 174.231 306.336 174.258 306.476Z" fill="#263238"/>
<path d="M164.802 299.072C164.806 299.106 164.806 299.141 164.802 299.175C164.802 299.175 164.802 299.175 164.802 299.25C164.802 299.325 164.802 299.371 164.802 299.455V299.586C164.827 299.681 164.845 299.778 164.857 299.876C164.853 299.945 164.853 300.013 164.857 300.082C164.857 300.231 164.911 300.39 164.939 300.577C164.966 300.764 165.048 301.176 165.112 301.512C165.212 302.036 165.313 302.643 165.431 303.326C165.468 303.519 165.504 303.724 165.541 303.943C165.595 304.223 165.641 304.522 165.705 304.821C165.769 305.12 165.823 305.504 165.887 305.868C165.933 306.121 165.987 306.382 166.033 306.644C166.17 307.439 166.316 308.289 166.48 309.196C166.485 309.218 166.485 309.24 166.48 309.262C166.662 310.271 166.854 311.337 167.054 312.477C167.118 312.777 167.164 313.076 167.218 313.412L167.383 314.347C167.383 314.543 167.456 314.74 167.492 314.945C167.775 316.525 168.067 318.199 168.404 319.965C168.504 320.564 168.614 321.162 168.714 321.77C168.933 322.966 169.152 324.181 169.37 325.434C169.425 325.724 169.48 326.014 169.525 326.313C169.854 328.136 170.191 330.052 170.529 331.987C170.529 332.183 170.601 332.389 170.638 332.585C170.802 333.52 170.975 334.455 171.13 335.39C171.135 335.465 171.135 335.54 171.13 335.614C171.212 336.054 171.285 336.549 171.367 336.96C171.696 338.774 172.024 340.634 172.352 342.523C172.443 342.99 172.526 343.457 172.608 343.953C172.781 344.888 172.945 345.869 173.118 346.841C173.337 348.057 173.556 349.272 173.775 350.515C173.994 351.759 174.212 352.993 174.431 354.255C174.55 354.881 174.659 355.517 174.769 356.124L175.38 358.499H206.721L209.237 332.118L209.329 331.183L209.429 330.174L209.921 325.013L210.35 320.545L212.392 299.119L164.802 299.072Z" fill="#263238"/>
<path d="M126.485 358.499H196.744C196.863 352.123 196.981 345.963 197.136 340.148C197.136 340.008 197.136 339.868 197.136 339.727C197.136 339.587 205.015 334.941 209.264 331.193C209.984 330.584 210.646 329.908 211.243 329.173C213.978 325.621 216.714 311.973 222.322 299.128H135.54C127.962 316.89 124.533 347.281 126.485 358.499Z" fill="#37474F"/>
<path d="M213.222 328.22C209.201 329.902 205.59 332.501 202.024 334.997C198.313 337.596 194.921 340.606 191.356 343.411C191.219 343.513 191.355 343.747 191.501 343.644C195.258 341.186 199.188 339.026 202.909 336.493C206.629 333.959 210.268 331.641 213.395 328.547C213.438 328.523 213.469 328.484 213.483 328.436C213.496 328.389 213.491 328.338 213.468 328.294C213.445 328.251 213.406 328.219 213.36 328.205C213.314 328.191 213.264 328.196 213.222 328.22Z" fill="#263238"/>
<path d="M213.723 304.41C213.249 307.046 212.62 309.654 212.064 312.272C211.544 314.73 211.152 317.245 210.532 319.675C210.011 322.029 208.844 324.18 207.167 325.873C206.255 326.808 205.188 327.556 204.185 328.379C203.647 328.827 203.064 329.248 202.498 329.697C202.571 329.351 202.635 328.996 202.699 328.64L203.191 325.64C203.556 323.415 203.906 321.19 204.24 318.965C204.887 314.59 205.489 310.178 206.383 305.877C206.387 305.843 206.379 305.808 206.36 305.78C206.341 305.751 206.312 305.731 206.279 305.723C206.247 305.715 206.212 305.719 206.182 305.736C206.153 305.752 206.13 305.779 206.118 305.812C205.052 310.103 203.875 314.347 202.954 318.675C202.498 320.797 200.875 331.277 200.802 332.015C200.729 332.754 200.666 333.548 200.647 334.324C200.551 335.103 200.551 335.891 200.647 336.67C200.659 336.708 200.682 336.74 200.714 336.763C200.745 336.787 200.782 336.799 200.821 336.799C200.859 336.799 200.896 336.787 200.927 336.763C200.959 336.74 200.982 336.708 200.994 336.67C201.301 335.941 201.519 335.174 201.641 334.389C201.824 333.642 201.997 332.884 202.125 332.118C202.125 331.847 202.207 331.566 202.243 331.286C203.255 330.66 204.194 329.828 205.134 329.136C206.073 328.444 207.176 327.64 208.143 326.817C209.906 325.276 211.177 323.228 211.79 320.937C212.41 318.468 212.813 315.946 212.994 313.403C213.322 310.43 213.559 307.439 213.961 304.466C214.015 304.279 213.76 304.279 213.723 304.41Z" fill="#263238"/>
<path d="M145.014 322.77C146.09 322.19 150.267 323.209 157.872 321.882C159.357 321.682 160.767 321.093 161.966 320.171C163.954 318.516 165.449 315.852 166.644 313.571C168.079 311.013 169.18 308.272 169.917 305.42C169.963 305.251 170.2 305.326 170.173 305.494C169.89 307.112 169.735 308.719 169.316 310.318C168.902 311.815 168.377 313.278 167.747 314.693C166.598 317.339 165.258 320.171 162.942 321.957C160.626 323.742 157.133 324.181 154.197 324.396C152.492 324.518 145.826 324.331 144.923 323.359C144.886 323.316 144.858 323.266 144.842 323.211C144.826 323.156 144.823 323.098 144.832 323.042C144.84 322.985 144.861 322.932 144.893 322.885C144.924 322.838 144.966 322.798 145.014 322.77Z" fill="#263238"/>
<path d="M208.973 210.629C221.082 207.965 268.518 185.155 278.503 168.384C286.363 155.175 292.09 119.091 292.664 113.651C294.233 98.6934 255.086 92.3834 252.77 100.9C248.648 116.044 248.211 147.154 246.332 150.875C242.53 158.269 217.535 180.995 199.48 193.26C187.799 201.196 186.942 215.471 208.973 210.629Z" fill="#D3766A"/>
<path d="M292.664 113.651C294.05 111.547 305.913 96.3563 308.302 85.5031C309.57 79.7539 311.312 63.5535 308.001 62.3196C304.974 61.2071 303.442 65.526 303.442 65.526C303.442 65.526 304.117 58.2905 299.895 56.7761C295.673 55.2617 293.43 62.7028 293.43 62.7028C293.43 62.7028 293.594 55.2243 289.281 54.0184C284.968 52.8124 283.937 60.6836 283.937 60.6836C283.937 60.6836 284.393 53.8501 280.436 54.4016C275.676 55.056 276.214 67.7602 273.733 73.7617C273.168 75.1266 260.42 100.591 260.42 100.591L292.664 113.651Z" fill="#D3766A"/>
<path d="M283.682 60.7771C284.056 70.1253 282.652 74.2666 278.211 82.278C278.12 82.4369 278.329 82.6052 278.43 82.4462C283.509 75.0518 286.016 70.1066 284.165 60.7678C284.038 60.291 283.673 60.291 283.682 60.7771Z" fill="#263238"/>
<path d="M293.165 62.759C292.728 72.4998 291.241 77.015 287.147 85.7182C287.092 85.8397 287.293 85.9613 287.357 85.8397C292.062 77.6414 294.451 72.6494 293.649 62.8619C293.603 62.4225 293.193 62.3197 293.165 62.759Z" fill="#263238"/>
<path d="M303.223 65.8998C302.138 75.248 300.707 80.3148 295.682 88.2514C295.666 88.2885 295.662 88.3304 295.672 88.3699C295.682 88.4094 295.705 88.4441 295.738 88.4682C295.77 88.4924 295.809 88.5045 295.849 88.5024C295.888 88.5004 295.926 88.4844 295.956 88.4571C301.847 80.8757 303.67 74.6217 303.497 65.9653C303.488 65.4137 303.287 65.3483 303.223 65.8998Z" fill="#263238"/>
<path d="M254.338 103.629C254.338 103.629 250.855 95.2814 251.822 86.9335C252.433 81.6985 258.797 62.0018 263.019 63.3106C268.491 64.9932 266.621 77.1646 264.962 82.9979C264.962 82.9979 277.582 86.8867 278.102 95.9077C278.621 104.929 254.338 103.629 254.338 103.629Z" fill="#D3766A"/>
<path d="M264.378 64.2828C268.272 69.4991 265.6 77.0151 264.378 82.7923C264.356 82.8765 264.354 82.9651 264.372 83.0504C264.39 83.1357 264.428 83.2152 264.483 83.2822C264.537 83.3492 264.607 83.4017 264.686 83.4352C264.764 83.4687 264.85 83.4823 264.934 83.4747C270.123 85.4659 276.871 89.8221 278.321 95.6273C278.328 95.6573 278.345 95.6837 278.369 95.7026C278.393 95.7214 278.423 95.7317 278.453 95.7317C278.483 95.7317 278.512 95.7214 278.536 95.7026C278.56 95.6837 278.577 95.6573 278.585 95.6273C277.856 89.1771 271.564 84.3441 265.746 82.5399C267.077 76.6318 269.393 68.9756 264.406 64.2828H264.378Z" fill="#263238"/>
<path d="M229.553 166.243L262.135 192.83C262.135 192.83 228.395 209.722 210.641 213.078C192.176 216.574 182.729 205.749 201.742 189.324C220.462 173.133 229.553 166.243 229.553 166.243Z" fill="#EF4444"/>
<path d="M268.646 191.493L258.615 197.457L225.669 165.748L234.751 158.802L267.779 190.773" fill="#EF4444"/>
<path d="M254.876 193.176C253.964 192.503 253.153 191.689 252.314 190.932L249.724 188.604C247.973 187.034 246.241 185.426 244.526 183.809C241.098 180.584 237.651 177.377 234.268 174.087C233.356 173.152 232.444 172.282 231.532 171.357C230.62 170.431 229.709 169.338 228.751 168.366C228.687 168.3 228.751 168.216 228.842 168.272C229.754 169.048 230.666 169.749 231.532 170.516C232.399 171.282 233.356 172.105 234.195 172.909C235.928 174.51 237.648 176.125 239.356 177.751C242.712 180.948 246.086 184.136 249.387 187.408C250.299 188.343 251.21 189.277 252.122 190.156C253.034 191.035 254.11 192.026 254.986 193.082C254.992 193.09 254.996 193.098 254.999 193.107C255.002 193.116 255.003 193.126 255.002 193.136C255.001 193.145 254.998 193.154 254.994 193.163C254.99 193.171 254.984 193.179 254.976 193.185C254.969 193.191 254.961 193.196 254.952 193.199C254.943 193.201 254.934 193.202 254.924 193.202C254.915 193.201 254.906 193.198 254.898 193.194C254.889 193.189 254.882 193.183 254.876 193.176Z" fill="#263238"/>
<path d="M224.903 304.279H132.111C132.111 304.279 139.981 236.514 164.802 192.54C174.085 176.106 199.836 179.004 204.988 196.167C212.939 222.707 225.167 303.961 224.903 304.279Z" fill="#EF4444"/>
<path d="M208.845 209.862C208.845 209.526 208.9 209.17 208.927 208.834C208.954 208.497 208.982 207.899 209 207.404C209 206.469 209 205.534 209 204.552C209 204.468 208.881 204.478 208.872 204.552C208.79 205.487 208.717 206.422 208.681 207.357C208.681 207.815 208.681 208.292 208.681 208.731C208.685 208.8 208.685 208.868 208.681 208.937C208.198 206.275 207.546 203.649 206.729 201.075C206.729 200.991 206.556 201 206.565 201.075C206.948 203.992 207.678 206.889 208.261 209.778C208.845 212.667 209.511 215.677 210.176 218.621C210.181 218.636 210.191 218.648 210.203 218.657C210.215 218.666 210.23 218.67 210.245 218.67C210.26 218.67 210.274 218.666 210.286 218.657C210.299 218.648 210.308 218.636 210.313 218.621C209.912 215.649 209.447 212.732 208.845 209.862Z" fill="#263238"/>
<path d="M160.899 199.579C149.3 195.129 109.16 173.012 101.628 154.932C95.7278 140.676 91.67 96.59 91.8706 91.112C92.4451 76.1549 132.066 75.6968 133.151 84.4654C135.075 100.068 134.592 138.451 135.95 142.424C138.686 150.314 156.613 168.992 172.726 183.827C183.185 193.409 182 207.665 160.899 199.579Z" fill="#D3766A"/>
<path d="M93.6397 93.9445C92.0439 92.0001 78.6942 78.1647 75.2108 67.62C73.3871 62.0111 69.9858 46.1191 73.1591 44.5393C76.0497 43.0997 78.0285 47.2316 78.0285 47.2316C78.0285 47.2316 76.6151 40.1082 80.6638 38.1545C84.7125 36.2007 87.6852 43.3521 87.6852 43.3521C87.6852 43.3521 86.7733 35.9296 90.9405 34.2843C95.1078 32.639 96.9589 40.3513 96.9589 40.3513C96.9589 40.3513 95.8008 33.6019 99.7948 33.7234C104.6 33.873 105.366 46.5585 108.439 52.2702C109.132 53.5696 124.406 77.5104 124.406 77.5104L93.6397 93.9445Z" fill="#D3766A"/>
<path d="M97.1778 40.4167C97.7614 49.7649 99.5851 53.7285 104.847 61.179C104.947 61.3192 104.765 61.5156 104.646 61.366C98.8374 54.5512 95.8464 49.9051 96.7401 40.426C96.7765 39.9586 97.1504 39.9773 97.1778 40.4167Z" fill="#263238"/>
<path d="M87.9498 43.4083C89.3815 53.0463 91.3237 57.3745 96.2752 65.6009C96.3481 65.7131 96.1566 65.8439 96.0837 65.7318C90.6125 58.0849 87.6763 53.3734 87.4848 43.5578C87.4757 43.1185 87.886 42.9689 87.9498 43.4083Z" fill="#263238"/>
<path d="M78.2745 47.643C80.3171 56.8697 82.2412 61.6653 88.0498 69.0597C88.0647 69.0763 88.0764 69.0957 88.084 69.1169C88.0916 69.1381 88.0951 69.1606 88.0943 69.1832C88.0934 69.2058 88.0883 69.2279 88.0791 69.2484C88.0699 69.269 88.0568 69.2874 88.0406 69.3028C88.0245 69.3181 88.0055 69.3301 87.9848 69.3379C87.9642 69.3457 87.9422 69.3493 87.9202 69.3484C87.8982 69.3476 87.8766 69.3423 87.8565 69.3328C87.8365 69.3234 87.8185 69.31 87.8035 69.2934C81.1651 62.3945 78.6849 56.3649 78.0101 47.7365C77.9554 47.1475 78.1469 47.0634 78.2745 47.643Z" fill="#263238"/>
<path d="M133.187 84.4654C133.187 84.4654 134.756 73.0887 131.528 63.0207C129.932 58.01 122.063 38.9771 117.987 40.7252C112.734 42.9875 115.816 54.8877 118.069 60.5153C118.069 60.5153 105.904 65.7316 106.315 74.762C106.725 83.7924 133.187 84.4654 133.187 84.4654Z" fill="#D3766A"/>
<path d="M116.746 41.8377C113.4 47.4466 116.819 54.626 118.57 60.2536C118.602 60.3352 118.613 60.4235 118.603 60.5106C118.593 60.5978 118.563 60.6812 118.514 60.7533C118.465 60.8255 118.4 60.8841 118.324 60.9242C118.248 60.9642 118.163 60.9843 118.078 60.9828C113.126 63.5255 106.852 68.5829 106.014 74.5096C106.014 74.5468 105.999 74.5825 105.973 74.6088C105.948 74.6351 105.913 74.6498 105.877 74.6498C105.84 74.6498 105.806 74.6351 105.78 74.6088C105.754 74.5825 105.74 74.5468 105.74 74.5096C105.804 68.0313 111.576 62.5439 117.175 60.1227C115.251 54.3829 112.132 47.0353 116.655 41.819L116.746 41.8377Z" fill="#263238"/>
<path d="M146.857 152.595L110.847 174.021C110.847 174.021 141.85 195.784 158.902 201.748C176.666 207.965 187.553 198.672 171.094 179.583C154.872 160.766 146.857 152.595 146.857 152.595Z" fill="#EF4444"/>
<path d="M106.743 172.974L115.333 180.948L154.015 156.998L146.546 148.258L107.737 172.451" fill="#EF4444"/>
<path d="M119.865 177.574C120.886 177.106 121.853 176.48 122.829 175.919C123.804 175.358 124.835 174.769 125.838 174.199C127.862 173.046 129.88 171.846 131.893 170.6C135.905 168.188 139.926 165.785 143.902 163.289C144.996 162.607 146.09 161.925 147.157 161.205C148.224 160.485 149.373 159.625 150.495 158.877C150.568 158.877 150.495 158.737 150.422 158.774C149.419 159.345 148.352 159.821 147.34 160.392C146.327 160.962 145.261 161.56 144.239 162.158C142.224 163.355 140.209 164.561 138.212 165.785C134.282 168.197 130.333 170.6 126.449 173.096L123.203 175.19C122.072 175.919 120.868 176.601 119.81 177.433C119.756 177.499 119.756 177.602 119.865 177.574Z" fill="#263238"/>
<path d="M161.61 203.318C160.833 202.325 159.91 201.461 158.875 200.757C156.75 199.252 154.315 198.485 151.935 197.523C151.926 197.518 151.916 197.515 151.905 197.514C151.895 197.514 151.884 197.516 151.875 197.52C151.865 197.524 151.856 197.53 151.849 197.538C151.842 197.546 151.836 197.555 151.833 197.565C151.83 197.576 151.828 197.587 151.83 197.597C151.831 197.608 151.834 197.618 151.839 197.628C151.845 197.637 151.852 197.645 151.861 197.651C151.87 197.657 151.879 197.661 151.89 197.663C154.169 198.693 156.282 200.073 158.154 201.757C159.066 202.496 159.978 203.234 160.89 203.917C161.908 204.678 162.857 205.532 163.726 206.469C163.726 206.516 163.863 206.469 163.817 206.394C163.179 205.338 162.385 204.347 161.61 203.318Z" fill="#263238"/>
<path d="M173.492 186.838C175.52 192.548 178.979 197.61 183.523 201.514C185.751 203.506 188.412 204.923 191.283 205.646C192.786 206.047 194.372 205.985 195.842 205.469C197.217 204.813 198.406 203.81 199.298 202.552C200.325 201.163 201.14 199.621 201.714 197.981C202.379 196.153 202.915 194.278 203.319 192.372C203.316 192.363 203.314 192.354 203.315 192.345C203.316 192.335 203.319 192.326 203.324 192.319C203.329 192.311 203.335 192.305 203.343 192.3C203.351 192.296 203.36 192.293 203.369 192.293C203.378 192.293 203.387 192.296 203.395 192.3C203.403 192.305 203.41 192.311 203.415 192.319C203.42 192.326 203.423 192.335 203.424 192.345C203.425 192.354 203.423 192.363 203.419 192.372C203.046 194.185 202.818 196.027 202.316 197.812C201.888 199.396 201.256 200.914 200.438 202.328C199.64 203.686 198.571 204.855 197.301 205.758C195.947 206.645 194.339 207.034 192.742 206.862C189.61 206.508 186.641 205.25 184.179 203.234C181.721 201.339 179.568 199.062 177.796 196.485C175.793 193.562 174.28 190.318 173.319 186.884C173.282 186.763 173.456 186.726 173.492 186.838Z" fill="#263238"/>
<path d="M195.441 201.309C189.751 202.374 180.522 193.045 177.067 185.697C176.829 185.192 177.823 180.088 178.744 173.788C179.282 169.964 179.802 165.701 179.994 161.775C179.994 160.971 203.702 169.02 203.702 169.02C203.702 169.02 200.967 177.125 200.629 183.977C200.609 184.518 200.637 185.059 200.711 185.594C200.711 185.669 200.711 185.763 200.711 185.865C201.067 188.941 200.912 200.271 195.441 201.309Z" fill="#D3766A"/>
<path d="M198.258 185.856C199.08 185.931 199.907 185.931 200.729 185.856C200.735 185.766 200.735 185.675 200.729 185.585C200.655 185.05 200.627 184.508 200.647 183.968C200.948 177.125 203.72 169.011 203.72 169.011C203.72 169.011 184.498 162.467 180.659 161.766C181.161 166.356 184.115 184.79 198.258 185.856Z" fill="#263238"/>
<path d="M170.683 138.909C170.428 148.042 181.307 171.17 188.611 174.947C199.197 180.425 213.277 177.265 216.997 164.981C220.599 153.072 205.918 123.195 198.058 120.11C186.495 115.548 171.048 125.41 170.683 138.909Z" fill="#D3766A"/>
<path d="M197.529 146.5C197.529 146.444 197.447 146.631 197.529 146.696C198.295 148.23 198.933 150.127 197.793 151.314C197.793 151.314 197.793 151.427 197.848 151.399C199.371 150.333 198.505 147.828 197.529 146.5Z" fill="#263238"/>
<path d="M195.441 145.537C192.906 146.538 195.049 151.67 197.401 150.735C199.754 149.8 197.547 144.687 195.441 145.537Z" fill="#263238"/>
<path d="M206.383 142.406C206.383 142.34 206.538 142.406 206.556 142.499C207.176 144.107 208.143 145.846 209.766 145.752C209.821 145.752 209.848 145.836 209.766 145.846C207.988 146.351 206.72 144.032 206.383 142.406Z" fill="#263238"/>
<path d="M207.076 140.143C209.493 138.853 211.836 143.883 209.593 145.079C207.35 146.276 205.061 141.218 207.076 140.143Z" fill="#263238"/>
<path d="M192.459 144.06C193.035 143.573 193.586 143.055 194.109 142.508C194.752 142.053 195.234 141.397 195.486 140.639C195.518 140.38 195.464 140.118 195.333 139.895C195.203 139.671 195.003 139.499 194.766 139.405C194.275 139.289 193.763 139.309 193.282 139.464C192.801 139.618 192.369 139.901 192.03 140.284C191.22 140.958 190.684 141.918 190.526 142.976C190.513 143.212 190.566 143.446 190.678 143.653C190.79 143.859 190.957 144.029 191.159 144.142C191.361 144.255 191.591 144.308 191.821 144.293C192.05 144.279 192.272 144.198 192.459 144.06Z" fill="#263238"/>
<path d="M207.933 136.703C207.204 136.86 206.468 136.976 205.727 137.049C204.963 137.282 204.147 137.252 203.401 136.965C203.187 136.824 203.024 136.616 202.935 136.371C202.846 136.127 202.837 135.86 202.909 135.609C203.131 135.14 203.471 134.739 203.894 134.448C204.317 134.157 204.808 133.987 205.316 133.955C206.333 133.729 207.396 133.899 208.298 134.431C208.496 134.566 208.651 134.756 208.746 134.979C208.841 135.202 208.871 135.448 208.832 135.688C208.794 135.928 208.688 136.152 208.529 136.332C208.369 136.512 208.163 136.641 207.933 136.703Z" fill="#263238"/>
<path d="M201.605 161.607C202.113 161.923 202.712 162.052 203.301 161.971C203.875 161.704 204.388 161.315 204.806 160.831C204.815 160.824 204.827 160.82 204.839 160.819C204.85 160.819 204.862 160.821 204.873 160.827C204.883 160.833 204.892 160.842 204.898 160.852C204.903 160.863 204.906 160.875 204.906 160.887C204.815 161.296 204.618 161.673 204.335 161.978C204.053 162.282 203.695 162.503 203.301 162.616C202.947 162.671 202.586 162.617 202.262 162.463C201.937 162.308 201.665 162.059 201.477 161.747C201.432 161.663 201.532 161.579 201.605 161.607Z" fill="#263238"/>
<path d="M201.249 156.138C201.91 156.597 202.657 156.909 203.442 157.056C204.226 157.202 205.033 157.179 205.809 156.989C206.484 156.839 207.135 156.59 207.742 156.25C207.86 156.185 207.979 156.119 208.088 156.045C208.198 155.97 208.289 155.923 208.398 155.839C208.475 155.789 208.534 155.714 208.564 155.625C208.593 155.537 208.593 155.441 208.562 155.353C208.541 155.3 208.513 155.25 208.48 155.203L208.417 155.072C207.942 153.829 207.049 152.025 207.049 152.025C207.578 152.025 210.231 152.1 209.921 151.473C207.368 146.294 204.559 140.555 200.994 136.011C200.968 135.985 200.934 135.967 200.898 135.963C200.861 135.958 200.824 135.966 200.793 135.985C200.761 136.005 200.737 136.034 200.724 136.07C200.711 136.105 200.709 136.144 200.72 136.18C202.954 141.228 206.046 145.846 208.362 150.884C207.412 150.856 206.463 150.966 205.544 151.212C205.398 151.333 207.368 154.67 207.505 155.25C207.511 155.268 207.511 155.288 207.505 155.306C205.608 156.456 203.857 156.503 201.313 155.97C201.176 155.886 201.103 156.045 201.249 156.138Z" fill="#263238"/>
<path d="M206.748 155.932C206.459 157.093 205.885 158.159 205.079 159.027C204.623 159.485 204.04 159.788 203.411 159.896C202.034 160.102 201.514 158.961 201.322 157.858C201.229 157.271 201.201 156.675 201.24 156.082C203.044 156.639 204.975 156.586 206.748 155.932Z" fill="#263238"/>
<path d="M205.079 159.027C204.623 159.485 204.041 159.788 203.411 159.896C202.034 160.102 201.514 158.961 201.323 157.858C202.736 157.41 204.414 157.755 205.079 159.027Z" fill="#FF97B8"/>
<path d="M204.231 125.906C203.355 127.258 202.257 128.445 200.985 129.412C193.836 135.123 176.574 135.497 176.574 135.497C178.694 141.096 179.988 146.988 180.413 152.978C180.434 153.99 180.181 154.988 179.682 155.861C179.183 156.734 178.458 157.448 177.586 157.924C177.586 157.924 176.547 156.849 175.069 155.119C172.389 148.893 170.574 142.695 170.683 138.909C171.048 125.411 186.495 115.539 198.039 120.101C199.854 120.811 202.015 122.924 204.231 125.906Z" fill="#263238"/>
<path d="M203.082 129.365C199.772 131.791 195.995 133.465 192.003 134.273C187.869 135.169 183.653 135.602 179.428 135.563C176.975 135.563 174.513 135.469 172.06 135.329C171.987 135.329 171.978 135.441 172.06 135.451C176.477 136.221 180.961 136.512 185.437 136.32C189.591 136.091 193.661 135.034 197.419 133.207C199.475 132.19 201.397 130.908 203.137 129.393L203.082 129.365Z" fill="#263238"/>
<path d="M181.407 157.447C181.407 157.447 173.802 151.24 170.902 154.25C168.002 157.26 175.297 167.337 179.811 167.693C180.388 167.775 180.975 167.736 181.537 167.58C182.099 167.423 182.624 167.151 183.081 166.781C183.537 166.41 183.916 165.949 184.194 165.425C184.472 164.9 184.644 164.323 184.699 163.729L181.407 157.447Z" fill="#D3766A"/>
<path d="M173.063 157.092C173.051 157.097 173.041 157.105 173.034 157.116C173.027 157.127 173.023 157.139 173.023 157.152C173.023 157.166 173.027 157.178 173.034 157.189C173.041 157.2 173.051 157.208 173.063 157.213C176.255 157.531 178.535 159.784 180.413 162.28C179.246 161.457 177.924 161.214 176.811 162.673C176.747 162.757 176.811 162.85 176.93 162.813C177.383 162.495 177.921 162.329 178.47 162.34C179.019 162.35 179.552 162.535 179.994 162.869C180.731 163.43 181.407 164.073 182.009 164.785C182.218 165 182.638 164.72 182.456 164.449L182.41 164.393C181.407 160.644 177.076 156.278 173.063 157.092Z" fill="#263238"/>
<path d="M169.644 147.398C169.352 147.304 158.702 142.153 157.443 141.845C156.185 141.536 149.938 146.033 147.194 143.714C144.449 141.396 141.02 135.572 143.145 131.02C145.27 126.467 148.616 123.363 148.616 122.831C148.616 122.298 142.707 114.202 146.346 108.444C149.984 102.685 161.082 106.2 161.465 105.985C161.847 105.77 161.337 99.6283 165.003 97.2819C168.668 94.9355 175.489 99.0113 176.41 98.4037C177.331 97.7961 182.182 94.3372 187.699 95.216C193.216 96.0947 192.824 105.237 192.258 106.836C191.693 108.434 197.976 118.138 197.976 118.138L169.644 147.398Z" fill="#EBEBEB"/>
<path d="M170.93 141.518C170.361 141.385 169.818 141.154 169.325 140.835C168.787 140.545 168.258 140.265 167.72 140.003C166.629 139.485 165.501 139.054 164.346 138.713C163.425 138.328 162.407 138.263 161.446 138.526C161.052 138.687 160.714 138.968 160.48 139.33C160.302 139.547 160.169 139.798 160.087 140.069C160.074 140.318 160.074 140.567 160.087 140.816C160.087 140.891 160.206 140.891 160.197 140.816C160.135 140.495 160.194 140.161 160.361 139.882C160.506 139.678 160.671 139.49 160.853 139.321C161.26 138.978 161.778 138.804 162.303 138.835C163.308 138.929 164.289 139.201 165.203 139.639L168.121 140.742C168.984 141.235 169.931 141.552 170.911 141.677C170.993 141.62 171.012 141.527 170.93 141.518Z" fill="#C7C7C7"/>
<path d="M172.927 140.153L166.316 136.769C164.034 135.715 161.877 134.398 159.887 132.842C159.832 132.796 159.759 132.842 159.814 132.927C161.672 134.637 163.712 136.126 165.896 137.367C168.144 138.531 170.48 139.507 172.881 140.284C172.945 140.302 172.991 140.19 172.927 140.153Z" fill="#C7C7C7"/>
<path d="M176.237 133.824C174.522 132.562 172.68 131.468 170.857 130.375C169.259 129.4 167.542 128.649 165.75 128.14C165.74 128.145 165.732 128.152 165.726 128.161C165.72 128.17 165.717 128.181 165.717 128.192C165.717 128.203 165.72 128.213 165.726 128.223C165.732 128.232 165.74 128.239 165.75 128.243C167.486 128.999 169.139 129.938 170.683 131.048C172.443 132.132 174.221 133.244 176.072 134.161C176.111 134.163 176.15 134.153 176.183 134.133C176.217 134.113 176.244 134.083 176.261 134.047C176.279 134.012 176.286 133.971 176.281 133.932C176.277 133.892 176.261 133.855 176.237 133.824Z" fill="#C7C7C7"/>
<path d="M175.379 113.305C175.063 113.266 174.743 113.3 174.441 113.404C174.139 113.508 173.864 113.679 173.634 113.906C173.405 114.132 173.227 114.407 173.115 114.712C173.002 115.017 172.956 115.344 172.981 115.67C173.072 117.306 174.212 118.848 175.133 120.129C176.144 121.514 177.313 122.769 178.616 123.868C180.094 125.086 181.722 126.098 183.458 126.878C183.531 126.878 183.577 126.822 183.513 126.785C180.957 125.223 178.694 123.207 176.829 120.83C175.892 119.667 175.064 118.415 174.358 117.091C173.774 115.988 173.382 113.865 175.087 113.576C176.793 113.286 177.987 114.875 179.392 115.389C179.392 115.389 179.437 115.389 179.392 115.333C177.987 114.772 176.984 113.464 175.379 113.305Z" fill="#C7C7C7"/>
<path d="M187.699 105.508C187.235 108.001 187.598 110.58 188.729 112.837C189.323 114.093 190.044 115.28 190.881 116.38C191.683 117.577 192.599 118.689 193.617 119.699C193.621 119.705 193.626 119.71 193.632 119.714C193.639 119.718 193.645 119.721 193.653 119.722C193.66 119.724 193.667 119.724 193.674 119.722C193.681 119.72 193.688 119.717 193.694 119.713C193.7 119.709 193.705 119.703 193.709 119.697C193.713 119.691 193.716 119.683 193.717 119.676C193.718 119.669 193.718 119.661 193.717 119.654C193.715 119.647 193.712 119.64 193.708 119.633C193.042 118.446 192.121 117.418 191.437 116.249C190.738 115.081 190.129 113.859 189.614 112.594C189.167 111.473 188.801 110.321 188.519 109.145C188.224 107.955 188.058 106.736 188.027 105.508C188.027 105.486 188.023 105.464 188.014 105.444C188.006 105.424 187.994 105.405 187.979 105.389C187.964 105.374 187.946 105.361 187.926 105.353C187.906 105.344 187.884 105.34 187.863 105.34C187.841 105.34 187.82 105.344 187.8 105.353C187.78 105.361 187.762 105.374 187.747 105.389C187.731 105.405 187.719 105.424 187.711 105.444C187.703 105.464 187.699 105.486 187.699 105.508Z" fill="#C7C7C7"/>
<path d="M186.814 116.548C185.447 114.885 183.966 113.323 182.383 111.874C182.351 111.843 182.309 111.826 182.265 111.827C182.222 111.828 182.18 111.847 182.15 111.879C182.12 111.911 182.103 111.954 182.104 111.999C182.105 112.044 182.123 112.086 182.155 112.117C183.577 113.697 184.89 115.38 186.249 117.053C187.608 118.727 188.793 120.475 190.207 122.036C190.252 122.083 190.316 122.036 190.289 121.961C189.369 120.007 188.201 118.187 186.814 116.548Z" fill="#C7C7C7"/>
<path d="M173.383 151.24C172.288 150.043 179.538 130.674 201.796 122.26C202.836 121.868 197.438 114.52 195.997 114.398C194.556 114.277 166.352 127.196 166.188 146.678C166.179 148.024 173.383 151.24 173.383 151.24Z" fill="#DBDBDB"/>
<path d="M202.188 189.773C202.854 189.867 204.368 192.521 204.723 193.11C205.079 193.699 230.019 306.663 230.493 311.543C230.967 316.422 240.122 358.499 240.122 358.499H135.804C135.804 358.499 145.58 292.996 145.58 291.883C145.58 291.883 133.133 290.771 133.269 290.397C133.406 290.023 135.339 281.385 135.339 281.385L147.385 279.899C147.385 279.899 165.148 216.06 166.352 210.386C167.556 204.712 172.325 185.94 174.003 183.276C174.985 182.891 175.994 182.578 177.021 182.341C177.021 182.341 177.842 207.282 178.006 207.282C178.17 207.282 202.252 210.863 202.252 210.863L202.188 189.773Z" fill="#EBEBEB"/>
<path d="M199.672 42.6603C199.672 42.6603 236.967 39.2389 262.59 50.3819C281.639 58.6644 298.956 81.3245 286.6 90.4296C267.378 104.592 204.03 63.7125 204.03 63.7125C204.03 63.7125 164.72 64.3201 133.251 53.5977C101.782 42.8753 71.244 9.82945 107.354 3.57551C143.464 -2.67843 199.672 42.6603 199.672 42.6603Z" fill="#EF4444"/>
<path opacity="0.1" d="M93.3114 24.2163C99.3206 35.35 116.108 47.755 133.242 53.579C164.711 64.292 204.021 63.6937 204.021 63.6937C192.979 56.2152 163.498 28.4323 133.561 16.4012C103.625 4.37005 89.3995 10.0164 93.3114 24.2163Z" fill="black"/>
<path opacity="0.1" d="M199.681 42.6605C218.119 57.1128 262.8 86.1202 277.126 78.0714C283.664 74.3976 281.284 66.6853 276.761 59.3751C272.492 55.6732 267.718 52.6309 262.59 50.3447C236.967 39.2297 199.681 42.6605 199.681 42.6605Z" fill="black"/>
<path d="M0 358.499L49.9977 358.274L100.005 358.19L200 358.031L299.995 358.19L350.002 358.265L400 358.499L350.002 358.723L299.995 358.807L200 358.966L100.005 358.807L49.9977 358.723L0 358.499Z" fill="#263238"/>
<path d="M200 400.5C282.965 400.5 350.221 394.729 350.221 387.609C350.221 380.489 282.965 374.718 200 374.718C117.035 374.718 49.7788 380.489 49.7788 387.609C49.7788 394.729 117.035 400.5 200 400.5Z" fill="#EBEBEB"/>
<path d="M82.734 313.347V353.282C82.734 356.133 81.6944 358.47 80.4269 358.47H65.4358H50.4538C49.1863 358.47 48.165 356.161 48.165 353.31V313.347C48.165 310.486 49.1863 308.177 50.4538 308.177H51.8399V304.438H65.4632H79.0682V308.177H80.4543C81.6944 308.177 82.734 310.486 82.734 313.347Z" fill="#EF4444"/>
<path d="M79.9891 298.296H50.8367V305.018H79.9891V298.296Z" fill="#37474F"/>
<path d="M82.7337 321.807H48.1375V347.038H82.7337V321.807Z" fill="#EBEBEB"/>
<path d="M44.2896 351.431C44.2896 356.666 42.3747 358.471 41.399 358.471H32.8183H24.7756C23.7908 358.471 21.8668 356.676 21.8577 351.441C21.8577 345.224 26.189 341.504 26.189 338.11C26.189 335.895 24.1009 329.024 24.9945 329.024H41.089C42.0008 329.024 39.9218 335.895 39.9218 338.101C39.9309 341.513 44.2805 345.224 44.2896 351.431Z" fill="#EBEBEB"/>
<path d="M26.2291 324.44L39.8068 324.42C40.3267 324.42 40.8257 324.631 41.1939 325.007C41.562 325.383 41.7693 325.894 41.77 326.427L41.7756 330.513C41.7756 330.55 41.7613 330.585 41.7357 330.612C41.71 330.638 41.6753 330.653 41.639 330.653L24.4138 330.678C24.3775 330.678 24.3427 330.663 24.3171 330.637C24.2914 330.61 24.2769 330.575 24.2769 330.538L24.2713 326.453C24.2706 325.919 24.4764 325.408 24.8436 325.03C25.2107 324.653 25.7091 324.441 26.2291 324.44Z" fill="#37474F"/>
<path d="M86.1967 362.976L100.009 362.697L99.9059 357.351L86.0938 357.63L86.1967 362.976Z" fill="#A6A6A6"/>
<path d="M120.137 372.517C126.334 366.021 126.221 355.604 119.884 349.251C113.547 342.898 103.386 343.014 97.1886 349.511C90.9915 356.008 91.105 366.424 97.4421 372.777C103.779 379.13 113.94 379.014 120.137 372.517Z" fill="#C7C7C7"/>
<path d="M122.398 362.085C123.002 354.309 117.342 347.503 109.756 346.884C102.171 346.265 95.5321 352.068 94.9285 359.844C94.3248 367.621 99.9848 374.427 107.57 375.045C115.156 375.664 121.795 369.862 122.398 362.085Z" fill="#DBDBDB"/>
<path d="M105.786 361.64C105.911 362.225 106.203 362.758 106.624 363.174C107.046 363.589 107.578 363.866 108.153 363.971C108.728 364.077 109.321 364.005 109.856 363.764C110.391 363.524 110.845 363.127 111.16 362.622C111.475 362.118 111.637 361.529 111.625 360.93C111.614 360.331 111.429 359.749 111.095 359.258C110.761 358.766 110.292 358.387 109.748 358.169C109.204 357.951 108.609 357.903 108.038 358.031C107.659 358.115 107.299 358.276 106.98 358.503C106.661 358.73 106.389 359.02 106.18 359.355C105.97 359.69 105.828 360.065 105.76 360.457C105.693 360.849 105.701 361.251 105.786 361.64Z" fill="#A6A6A6"/>
<path d="M107.828 343.111C108.841 343.111 108.266 340.307 107.062 339.55C105.859 338.793 97.4879 339.858 94.3784 341.7C90.7309 343.841 86.354 351.515 85.3965 355.451C84.9588 357.227 69.5209 354.9 60.7761 355.124C49.1406 355.414 37.3502 359.798 32.3714 361.668C30.9488 362.191 30.8668 364.472 32.116 365.407C34.952 367.314 51.2379 367.716 61.3961 366.912C71.5543 366.108 83.8281 363.014 84.9497 363.397C86.0713 363.78 87.4208 373.811 94.652 377.419C96.7584 378.485 98.0076 375.97 97.7979 375.484C97.5882 374.998 88.5242 368.454 91.6884 356.171C92.6463 352.502 94.7351 349.248 97.6436 346.894C100.552 344.541 104.125 343.214 107.828 343.111Z" fill="#EF4444"/>
<path opacity="0.1" d="M107.828 343.111C108.841 343.111 108.266 340.307 107.062 339.55C105.859 338.793 97.4879 339.858 94.3784 341.7C90.7309 343.841 86.354 351.515 85.3965 355.451C84.9588 357.227 69.5209 354.9 60.7761 355.124C49.1406 355.414 37.3502 359.798 32.3714 361.668C30.9488 362.191 30.8668 364.472 32.116 365.407C34.952 367.314 51.2379 367.716 61.3961 366.912C71.5543 366.108 83.8281 363.014 84.9497 363.397C86.0713 363.78 87.4208 373.811 94.652 377.419C96.7584 378.485 98.0076 375.97 97.7979 375.484C97.5882 374.998 88.5242 368.454 91.6884 356.171C92.6463 352.502 94.7351 349.248 97.6436 346.894C100.552 344.541 104.125 343.214 107.828 343.111Z" fill="black"/>
<path d="M209.821 372.745H126.184V393.592H209.821V372.745Z" fill="#EF4444"/>
<path d="M126.184 380.691V385.608H119.892C117.385 385.608 107.792 389.048 104.528 387.871C99.7676 386.16 99.7676 383.131 99.7676 383.131C99.7676 383.131 99.7676 380.112 104.528 378.41C107.792 377.232 117.385 380.663 119.892 380.663L126.184 380.691Z" fill="#EF4444"/>
<path opacity="0.2" d="M126.184 380.691V385.608H123.075L122.564 380.663L126.184 380.691Z" fill="black"/>
<path d="M209.83 385.608V380.663H216.122C218.629 380.663 228.222 377.232 231.487 378.41C236.247 380.112 236.247 383.14 236.247 383.14C236.247 383.14 236.247 386.16 231.487 387.871C228.222 389.048 218.629 385.608 216.122 385.608H209.83Z" fill="#EF4444"/>
<path opacity="0.2" d="M213.35 385.608H209.83V380.663H212.839L213.35 385.608Z" fill="black"/>
<path d="M227.356 363.5C230.493 373.97 240.122 372.633 242.858 371.773C245.593 370.913 254.274 366.491 251.137 356.021C248.001 345.551 237.724 347.963 235.9 348.543C233.739 349.15 224.174 353.021 227.356 363.5Z" fill="#EF4444"/>
<path opacity="0.1" d="M227.356 363.5C230.493 373.97 240.122 372.633 242.858 371.773C245.593 370.913 254.274 366.491 251.137 356.021C248.001 345.551 237.724 347.963 235.9 348.543C233.739 349.15 224.174 353.021 227.356 363.5Z" fill="black"/>
<path d="M236.73 349.964C236.73 349.964 237.149 353.909 243.897 351.553C243.897 351.553 239.338 346.57 236.73 349.964Z" fill="#37474F"/>
<path d="M237.387 351.6C237.387 351.6 240.56 351.815 239.657 345.888C239.648 345.888 235.071 348.963 237.387 351.6Z" fill="#37474F"/>
<path d="M237.122 350.553C237.122 350.553 236.019 353.61 231.104 350.347C231.104 350.347 235.709 347.281 237.122 350.553Z" fill="#37474F"/>
<path d="M236.912 349.777C236.912 349.777 233.958 352.338 239.648 356.76C239.63 356.76 241.116 350.085 236.912 349.777Z" fill="#37474F"/>
<path d="M236.602 350.347C236.602 350.347 232.344 349.122 232.9 356.591C232.9 356.629 239.42 354.264 236.602 350.347Z" fill="#37474F"/>
<path d="M237.323 351.263C237.433 350.015 237.25 348.759 236.788 347.599C236.326 346.439 235.6 345.41 234.669 344.598C234.137 344.628 233.63 344.837 233.225 345.191C232.819 345.546 232.539 346.027 232.426 346.561C232.426 346.561 236.074 348.645 236.311 352.039L237.159 351.515" fill="#37474F"/>
<path d="M251.183 383.355C261.378 386.665 265.773 377.803 266.621 375.007C267.469 372.212 268.873 362.378 258.679 359.069C248.484 355.76 244.59 365.809 244.016 367.678C243.368 369.772 241.034 380.055 251.183 383.355Z" fill="#EF4444"/>
<path d="M245.675 367.725C245.675 367.725 249.077 369.595 251.019 362.574C251.065 362.574 244.435 363.593 245.675 367.725Z" fill="#37474F"/>
<path d="M247.362 368.109C247.362 368.109 249.332 365.547 244.061 362.939C244.061 362.939 243.925 368.548 247.362 368.109Z" fill="#37474F"/>
<path d="M246.369 367.725C246.369 367.725 248.192 370.39 242.785 372.68C242.785 372.68 242.976 367.08 246.369 367.725Z" fill="#37474F"/>
<path d="M245.593 367.463C245.593 367.463 245.976 371.408 252.742 369.137C252.779 369.137 248.274 364.107 245.593 367.463Z" fill="#37474F"/>
<path d="M245.912 368.053C245.912 368.053 242.502 370.941 248.821 374.718C248.821 374.718 250.654 367.894 245.912 368.053Z" fill="#37474F"/>
<path d="M247.052 367.968C246.115 367.164 245.002 366.604 243.808 366.334C242.615 366.063 241.375 366.092 240.195 366.416C239.92 366.884 239.8 367.43 239.854 367.973C239.909 368.516 240.134 369.026 240.496 369.427C240.496 369.427 244.235 367.557 247.098 369.258L247.162 368.249" fill="#37474F"/>
<path d="M298.363 375.961C291.542 384.374 283.18 379.401 280.974 377.522C278.767 375.643 272.402 368.174 279.214 359.761C286.025 351.347 294.615 357.582 296.083 358.826C297.743 360.2 305.175 367.51 298.363 375.961Z" fill="#EF4444"/>
<path d="M294.716 359.761C294.716 359.761 292.892 363.238 287.503 358.405C287.539 358.405 293.576 355.601 294.716 359.761Z" fill="#37474F"/>
<path d="M293.503 361.013C293.503 361.013 290.494 359.966 293.503 354.844C293.539 354.844 296.658 359.48 293.503 361.013Z" fill="#37474F"/>
<path d="M294.132 360.153C294.132 360.153 294.014 363.406 299.768 362.322C299.768 362.322 296.658 357.713 294.132 360.153Z" fill="#37474F"/>
<path d="M294.615 359.518C294.615 359.518 296.384 363.042 289.491 364.902C289.491 364.902 290.612 358.162 294.615 359.518Z" fill="#37474F"/>
<path d="M294.688 360.162C294.688 360.162 299.084 360.705 295.773 367.379C295.746 367.379 290.621 362.668 294.688 360.162Z" fill="#37474F"/>
<path d="M293.685 360.733C294.048 359.535 294.687 358.445 295.547 357.553C296.407 356.662 297.463 355.995 298.627 355.61C299.107 355.85 299.497 356.243 299.739 356.73C299.981 357.218 300.061 357.773 299.968 358.312C299.968 358.312 295.837 358.807 294.333 361.836L293.74 361.023" fill="#37474F"/>
<path d="M375.699 345.514L372.197 342.607C374.869 339.204 377.915 334.848 378.416 333.473C377.896 330.024 374.769 318.647 372.744 317.049H359.677V312.449H373C379.383 312.449 382.884 333.015 382.912 333.193C383.012 334.025 383.285 335.913 375.699 345.514Z" fill="#EBEBEB"/>
<path d="M352.957 375.98C330.306 375.98 324.826 360.882 327.06 350.291C329.294 339.699 345.106 330.66 345.297 327.173C345.488 323.686 345.297 308.187 344.485 307.13C343.674 306.074 338.494 304.017 337.09 304.017C335.686 304.017 335.686 302.25 337.09 302.25H363.224C364.629 302.25 364.629 304.017 363.224 304.017C361.82 304.017 360.936 305.793 360.689 307.672C360.507 308.981 360.252 324.294 360.626 327.173C361.081 330.594 376.62 339.709 378.863 350.291C381.106 360.873 375.598 375.98 352.957 375.98Z" fill="#EBEBEB"/>
<path d="M352.392 372.399C333.352 372.399 328.747 359.714 330.625 350.814C332.504 341.915 348.516 331.959 348.206 329.07C348.151 328.5 348.106 317.179 348.078 315.983H357.571C357.571 317.217 357.635 328.556 357.708 329.07C358.082 331.95 372.298 341.905 374.167 350.814C376.036 359.723 371.431 372.399 352.392 372.399Z" fill="#EF4444"/>
</svg>
